<?xml version="1.0" encoding="UTF-8" standalone="no"?>
<!DOCTYPE svg PUBLIC "-//W3C//DTD SVG 1.1//EN"
 "http://www.w3.org/Graphics/SVG/1.1/DTD/svg11.dtd">
<!-- Generated by graphviz version 2.38.0 (20140413.2041)
 -->
<!-- Title: /home/travis/build/robotology/blockfactory/sources/Core/include/BlockFactory/Core/BlockInformation.h Pages: 1 -->
<svg width="438pt" height="173pt"
 viewBox="0.00 0.00 438.00 173.00" xmlns="http://www.w3.org/2000/svg" xmlns:xlink="http://www.w3.org/1999/xlink">
<g id="graph0" class="graph" transform="scale(1 1) rotate(0) translate(4 169)">
<title>/home/travis/build/robotology/blockfactory/sources/Core/include/BlockFactory/Core/BlockInformation.h</title>
<!-- Node1 -->
<g id="node1" class="node"><title>Node1</title>
<polygon fill="#bfbfbf" stroke="black" points="162,-112.5 162,-164.5 344,-164.5 344,-112.5 162,-112.5"/>
<text text-anchor="start" x="170" y="-152.5" font-family="Helvetica,sans-Serif" font-size="10.00">/home/travis/build</text>
<text text-anchor="start" x="170" y="-141.5" font-family="Helvetica,sans-Serif" font-size="10.00">/robotology/blockfactory</text>
<text text-anchor="start" x="170" y="-130.5" font-family="Helvetica,sans-Serif" font-size="10.00">/sources/Core/include/BlockFactory</text>
<text text-anchor="middle" x="253" y="-119.5" font-family="Helvetica,sans-Serif" font-size="10.00">/Core/BlockInformation.h</text>
</g>
<!-- Node2 -->
<g id="node2" class="node"><title>Node2</title>
<g id="a_node2"><a xlink:href="_port_8h.html" target="_top" xlink:title="BlockFactory/Core/Port.h">
<polygon fill="none" stroke="black" points="0,-56.5 0,-75.5 134,-75.5 134,-56.5 0,-56.5"/>
<text text-anchor="middle" x="67" y="-63.5" font-family="Helvetica,sans-Serif" font-size="10.00">BlockFactory/Core/Port.h</text>
</a>
</g>
</g>
<!-- Node1&#45;&gt;Node2 -->
<g id="edge1" class="edge"><title>Node1&#45;&gt;Node2</title>
<path fill="none" stroke="midnightblue" d="M186.9,-112.446C156.982,-101.106 123,-88.2257 98.872,-79.0805"/>
<polygon fill="midnightblue" stroke="midnightblue" points="100.088,-75.7985 89.4967,-75.527 97.607,-82.3441 100.088,-75.7985"/>
</g>
<!-- Node4 -->
<g id="node4" class="node"><title>Node4</title>
<polygon fill="none" stroke="#bfbfbf" points="124.5,-0.5 124.5,-19.5 171.5,-19.5 171.5,-0.5 124.5,-0.5"/>
<text text-anchor="middle" x="148" y="-7.5" font-family="Helvetica,sans-Serif" font-size="10.00">vector</text>
</g>
<!-- Node1&#45;&gt;Node4 -->
<g id="edge8" class="edge"><title>Node1&#45;&gt;Node4</title>
<path fill="none" stroke="midnightblue" d="M218.764,-112.269C206.216,-101.943 192.525,-89.2993 182,-76 170.538,-61.5165 161.151,-42.5816 155.166,-28.8875"/>
<polygon fill="midnightblue" stroke="midnightblue" points="158.367,-27.469 151.275,-19.5977 151.91,-30.1734 158.367,-27.469"/>
</g>
<!-- Node5 -->
<g id="node5" class="node"><title>Node5</title>
<polygon fill="none" stroke="#bfbfbf" points="190.5,-56.5 190.5,-75.5 247.5,-75.5 247.5,-56.5 190.5,-56.5"/>
<text text-anchor="middle" x="219" y="-63.5" font-family="Helvetica,sans-Serif" font-size="10.00">memory</text>
</g>
<!-- Node1&#45;&gt;Node5 -->
<g id="edge4" class="edge"><title>Node1&#45;&gt;Node5</title>
<path fill="none" stroke="midnightblue" d="M240.917,-112.446C236.521,-103.329 231.644,-93.2174 227.609,-84.8509"/>
<polygon fill="midnightblue" stroke="midnightblue" points="230.69,-83.1823 223.194,-75.6955 224.385,-86.2231 230.69,-83.1823"/>
</g>
<!-- Node6 -->
<g id="node6" class="node"><title>Node6</title>
<polygon fill="none" stroke="#bfbfbf" points="266,-56.5 266,-75.5 310,-75.5 310,-56.5 266,-56.5"/>
<text text-anchor="middle" x="288" y="-63.5" font-family="Helvetica,sans-Serif" font-size="10.00">string</text>
</g>
<!-- Node1&#45;&gt;Node6 -->
<g id="edge5" class="edge"><title>Node1&#45;&gt;Node6</title>
<path fill="none" stroke="midnightblue" d="M265.438,-112.446C269.964,-103.329 274.984,-93.2174 279.138,-84.8509"/>
<polygon fill="midnightblue" stroke="midnightblue" points="282.371,-86.2088 283.683,-75.6955 276.101,-83.0961 282.371,-86.2088"/>
</g>
<!-- Node7 -->
<g id="node7" class="node"><title>Node7</title>
<polygon fill="none" stroke="#bfbfbf" points="328.5,-56.5 328.5,-75.5 369.5,-75.5 369.5,-56.5 328.5,-56.5"/>
<text text-anchor="middle" x="349" y="-63.5" font-family="Helvetica,sans-Serif" font-size="10.00">tuple</text>
</g>
<!-- Node1&#45;&gt;Node7 -->
<g id="edge6" class="edge"><title>Node1&#45;&gt;Node7</title>
<path fill="none" stroke="midnightblue" d="M287.116,-112.446C301.167,-102.127 316.955,-90.5333 329.067,-81.6384"/>
<polygon fill="midnightblue" stroke="midnightblue" points="331.171,-84.4356 337.159,-75.6955 327.028,-78.7936 331.171,-84.4356"/>
</g>
<!-- Node8 -->
<g id="node8" class="node"><title>Node8</title>
<polygon fill="none" stroke="#bfbfbf" points="388,-56.5 388,-75.5 430,-75.5 430,-56.5 388,-56.5"/>
<text text-anchor="middle" x="409" y="-63.5" font-family="Helvetica,sans-Serif" font-size="10.00">utility</text>
</g>
<!-- Node1&#45;&gt;Node8 -->
<g id="edge7" class="edge"><title>Node1&#45;&gt;Node8</title>
<path fill="none" stroke="midnightblue" d="M308.439,-112.446C332.974,-101.358 360.767,-88.7974 380.907,-79.6957"/>
<polygon fill="midnightblue" stroke="midnightblue" points="382.461,-82.8347 390.132,-75.527 379.578,-76.4558 382.461,-82.8347"/>
</g>
<!-- Node3 -->
<g id="node3" class="node"><title>Node3</title>
<polygon fill="none" stroke="#bfbfbf" points="41,-0.5 41,-19.5 93,-19.5 93,-0.5 41,-0.5"/>
<text text-anchor="middle" x="67" y="-7.5" font-family="Helvetica,sans-Serif" font-size="10.00">cstddef</text>
</g>
<!-- Node2&#45;&gt;Node3 -->
<g id="edge2" class="edge"><title>Node2&#45;&gt;Node3</title>
<path fill="none" stroke="midnightblue" d="M67,-56.083C67,-49.0059 67,-38.8611 67,-29.9865"/>
<polygon fill="midnightblue" stroke="midnightblue" points="70.5001,-29.751 67,-19.7511 63.5001,-29.7511 70.5001,-29.751"/>
</g>
<!-- Node2&#45;&gt;Node4 -->
<g id="edge3" class="edge"><title>Node2&#45;&gt;Node4</title>
<path fill="none" stroke="midnightblue" d="M80.0141,-56.324C92.5316,-47.979 111.682,-35.2122 126.471,-25.3524"/>
<polygon fill="midnightblue" stroke="midnightblue" points="128.639,-28.1137 135.018,-19.6545 124.756,-22.2894 128.639,-28.1137"/>
</g>
</g>
</svg>
