<?xml version="1.0" encoding="UTF-8" standalone="no"?>
<!DOCTYPE svg PUBLIC "-//W3C//DTD SVG 1.1//EN"
 "http://www.w3.org/Graphics/SVG/1.1/DTD/svg11.dtd">
<!-- Generated by graphviz version 2.38.0 (20140413.2041)
 -->
<!-- Title: /home/travis/build/robotology/blockfactory/sources/Core/include/BlockFactory/Core/Block.h Pages: 1 -->
<svg width="236pt" height="173pt"
 viewBox="0.00 0.00 235.50 173.00" xmlns="http://www.w3.org/2000/svg" xmlns:xlink="http://www.w3.org/1999/xlink">
<g id="graph0" class="graph" transform="scale(1 1) rotate(0) translate(4 169)">
<title>/home/travis/build/robotology/blockfactory/sources/Core/include/BlockFactory/Core/Block.h</title>
<!-- Node1 -->
<g id="node1" class="node"><title>Node1</title>
<polygon fill="#bfbfbf" stroke="black" points="22,-112.5 22,-164.5 204,-164.5 204,-112.5 22,-112.5"/>
<text text-anchor="start" x="30" y="-152.5" font-family="Helvetica,sans-Serif" font-size="10.00">/home/travis/build</text>
<text text-anchor="start" x="30" y="-141.5" font-family="Helvetica,sans-Serif" font-size="10.00">/robotology/blockfactory</text>
<text text-anchor="start" x="30" y="-130.5" font-family="Helvetica,sans-Serif" font-size="10.00">/sources/Core/include/BlockFactory</text>
<text text-anchor="middle" x="113" y="-119.5" font-family="Helvetica,sans-Serif" font-size="10.00">/Core/Block.h</text>
</g>
<!-- Node2 -->
<g id="node2" class="node"><title>Node2</title>
<g id="a_node2"><a xlink:href="_parameters_8h.html" target="_top" xlink:title="BlockFactory/Core/Parameters.h">
<polygon fill="none" stroke="black" points="28,-56.5 28,-75.5 198,-75.5 198,-56.5 28,-56.5"/>
<text text-anchor="middle" x="113" y="-63.5" font-family="Helvetica,sans-Serif" font-size="10.00">BlockFactory/Core/Parameters.h</text>
</a>
</g>
</g>
<!-- Node1&#45;&gt;Node2 -->
<g id="edge1" class="edge"><title>Node1&#45;&gt;Node2</title>
<path fill="none" stroke="midnightblue" d="M113,-112.446C113,-103.73 113,-94.1045 113,-85.9641"/>
<polygon fill="midnightblue" stroke="midnightblue" points="116.5,-85.6954 113,-75.6955 109.5,-85.6955 116.5,-85.6954"/>
</g>
<!-- Node4 -->
<g id="node4" class="node"><title>Node4</title>
<polygon fill="none" stroke="#bfbfbf" points="0,-0.5 0,-19.5 44,-19.5 44,-0.5 0,-0.5"/>
<text text-anchor="middle" x="22" y="-7.5" font-family="Helvetica,sans-Serif" font-size="10.00">string</text>
</g>
<!-- Node1&#45;&gt;Node4 -->
<g id="edge5" class="edge"><title>Node1&#45;&gt;Node4</title>
<path fill="none" stroke="midnightblue" d="M55.2327,-112.309C40.8216,-103.08 27.1632,-91.0959 19,-76 11.2832,-61.7297 13.1684,-43.0149 16.3109,-29.3329"/>
<polygon fill="midnightblue" stroke="midnightblue" points="19.7055,-30.1875 18.9414,-19.6203 12.9489,-28.3576 19.7055,-30.1875"/>
</g>
<!-- Node5 -->
<g id="node5" class="node"><title>Node5</title>
<polygon fill="none" stroke="#bfbfbf" points="180.5,-0.5 180.5,-19.5 227.5,-19.5 227.5,-0.5 180.5,-0.5"/>
<text text-anchor="middle" x="204" y="-7.5" font-family="Helvetica,sans-Serif" font-size="10.00">vector</text>
</g>
<!-- Node1&#45;&gt;Node5 -->
<g id="edge6" class="edge"><title>Node1&#45;&gt;Node5</title>
<path fill="none" stroke="midnightblue" d="M170.767,-112.309C185.178,-103.08 198.837,-91.0959 207,-76 214.717,-61.7297 212.832,-43.0149 209.689,-29.3329"/>
<polygon fill="midnightblue" stroke="midnightblue" points="213.051,-28.3576 207.059,-19.6203 206.294,-30.1875 213.051,-28.3576"/>
</g>
<!-- Node3 -->
<g id="node3" class="node"><title>Node3</title>
<polygon fill="none" stroke="#bfbfbf" points="84.5,-0.5 84.5,-19.5 141.5,-19.5 141.5,-0.5 84.5,-0.5"/>
<text text-anchor="middle" x="113" y="-7.5" font-family="Helvetica,sans-Serif" font-size="10.00">memory</text>
</g>
<!-- Node2&#45;&gt;Node3 -->
<g id="edge2" class="edge"><title>Node2&#45;&gt;Node3</title>
<path fill="none" stroke="midnightblue" d="M113,-56.083C113,-49.0059 113,-38.8611 113,-29.9865"/>
<polygon fill="midnightblue" stroke="midnightblue" points="116.5,-29.751 113,-19.7511 109.5,-29.7511 116.5,-29.751"/>
</g>
<!-- Node2&#45;&gt;Node4 -->
<g id="edge3" class="edge"><title>Node2&#45;&gt;Node4</title>
<path fill="none" stroke="midnightblue" d="M98.3793,-56.324C84.0511,-47.8215 61.9875,-34.7288 45.2513,-24.7975"/>
<polygon fill="midnightblue" stroke="midnightblue" points="46.9704,-21.7478 36.5844,-19.6545 43.3982,-27.7677 46.9704,-21.7478"/>
</g>
<!-- Node2&#45;&gt;Node5 -->
<g id="edge4" class="edge"><title>Node2&#45;&gt;Node5</title>
<path fill="none" stroke="midnightblue" d="M127.621,-56.324C141.949,-47.8215 164.013,-34.7288 180.749,-24.7975"/>
<polygon fill="midnightblue" stroke="midnightblue" points="182.602,-27.7677 189.416,-19.6545 179.03,-21.7478 182.602,-27.7677"/>
</g>
</g>
</svg>
