<?xml version="1.0" encoding="UTF-8" standalone="no"?>
<!DOCTYPE svg PUBLIC "-//W3C//DTD SVG 1.1//EN"
 "http://www.w3.org/Graphics/SVG/1.1/DTD/svg11.dtd">
<!-- Generated by graphviz version 2.38.0 (20140413.2041)
 -->
<!-- Title: /home/travis/build/robotology/blockfactory/sources/Core/include/BlockFactory/Core/FactorySingleton.h Pages: 1 -->
<svg width="507pt" height="173pt"
 viewBox="0.00 0.00 507.00 173.00" xmlns="http://www.w3.org/2000/svg" xmlns:xlink="http://www.w3.org/1999/xlink">
<g id="graph0" class="graph" transform="scale(1 1) rotate(0) translate(4 169)">
<title>/home/travis/build/robotology/blockfactory/sources/Core/include/BlockFactory/Core/FactorySingleton.h</title>
<!-- Node1 -->
<g id="node1" class="node"><title>Node1</title>
<polygon fill="#bfbfbf" stroke="black" points="96.5,-112.5 96.5,-164.5 278.5,-164.5 278.5,-112.5 96.5,-112.5"/>
<text text-anchor="start" x="104.5" y="-152.5" font-family="Helvetica,sans-Serif" font-size="10.00">/home/travis/build</text>
<text text-anchor="start" x="104.5" y="-141.5" font-family="Helvetica,sans-Serif" font-size="10.00">/robotology/blockfactory</text>
<text text-anchor="start" x="104.5" y="-130.5" font-family="Helvetica,sans-Serif" font-size="10.00">/sources/Core/include/BlockFactory</text>
<text text-anchor="middle" x="187.5" y="-119.5" font-family="Helvetica,sans-Serif" font-size="10.00">/Core/FactorySingleton.h</text>
</g>
<!-- Node2 -->
<g id="node2" class="node"><title>Node2</title>
<g id="a_node2"><a xlink:href="_log_8h.html" target="_top" xlink:title="BlockFactory/Core/Log.h">
<polygon fill="none" stroke="black" points="48,-56.5 48,-75.5 179,-75.5 179,-56.5 48,-56.5"/>
<text text-anchor="middle" x="113.5" y="-63.5" font-family="Helvetica,sans-Serif" font-size="10.00">BlockFactory/Core/Log.h</text>
</a>
</g>
</g>
<!-- Node1&#45;&gt;Node2 -->
<g id="edge1" class="edge"><title>Node1&#45;&gt;Node2</title>
<path fill="none" stroke="midnightblue" d="M161.202,-112.446C150.792,-102.528 139.145,-91.4318 129.965,-82.6867"/>
<polygon fill="midnightblue" stroke="midnightblue" points="132.282,-80.0592 122.627,-75.6955 127.453,-85.1274 132.282,-80.0592"/>
</g>
<!-- Node3 -->
<g id="node3" class="node"><title>Node3</title>
<polygon fill="none" stroke="#bfbfbf" points="0,-0.5 0,-19.5 57,-19.5 57,-0.5 0,-0.5"/>
<text text-anchor="middle" x="28.5" y="-7.5" font-family="Helvetica,sans-Serif" font-size="10.00">memory</text>
</g>
<!-- Node1&#45;&gt;Node3 -->
<g id="edge7" class="edge"><title>Node1&#45;&gt;Node3</title>
<path fill="none" stroke="midnightblue" d="M96.1556,-116.713C74.3093,-107.613 53.1103,-94.5939 38.5,-76 28.2581,-62.9657 26.4169,-43.8089 26.742,-29.6666"/>
<polygon fill="midnightblue" stroke="midnightblue" points="30.2399,-29.8052 27.3479,-19.6127 23.2525,-29.384 30.2399,-29.8052"/>
</g>
<!-- Node6 -->
<g id="node6" class="node"><title>Node6</title>
<polygon fill="none" stroke="#bfbfbf" points="197.5,-56.5 197.5,-75.5 325.5,-75.5 325.5,-56.5 197.5,-56.5"/>
<text text-anchor="middle" x="261.5" y="-63.5" font-family="Helvetica,sans-Serif" font-size="10.00">shlibpp/SharedLibrary.h</text>
</g>
<!-- Node1&#45;&gt;Node6 -->
<g id="edge5" class="edge"><title>Node1&#45;&gt;Node6</title>
<path fill="none" stroke="midnightblue" d="M213.798,-112.446C224.208,-102.528 235.855,-91.4318 245.035,-82.6867"/>
<polygon fill="midnightblue" stroke="midnightblue" points="247.547,-85.1274 252.373,-75.6955 242.718,-80.0592 247.547,-85.1274"/>
</g>
<!-- Node7 -->
<g id="node7" class="node"><title>Node7</title>
<polygon fill="none" stroke="#bfbfbf" points="344,-56.5 344,-75.5 499,-75.5 499,-56.5 344,-56.5"/>
<text text-anchor="middle" x="421.5" y="-63.5" font-family="Helvetica,sans-Serif" font-size="10.00">shlibpp/SharedLibraryClass.h</text>
</g>
<!-- Node1&#45;&gt;Node7 -->
<g id="edge6" class="edge"><title>Node1&#45;&gt;Node7</title>
<path fill="none" stroke="midnightblue" d="M270.659,-112.446C309.134,-100.854 352.951,-87.6525 383.408,-78.4764"/>
<polygon fill="midnightblue" stroke="midnightblue" points="384.633,-81.763 393.198,-75.527 382.613,-75.0606 384.633,-81.763"/>
</g>
<!-- Node2&#45;&gt;Node3 -->
<g id="edge2" class="edge"><title>Node2&#45;&gt;Node3</title>
<path fill="none" stroke="midnightblue" d="M99.8433,-56.324C86.5837,-47.9002 66.232,-34.9709 50.6538,-25.0741"/>
<polygon fill="midnightblue" stroke="midnightblue" points="52.4404,-22.0626 42.1228,-19.6545 48.6867,-27.9711 52.4404,-22.0626"/>
</g>
<!-- Node4 -->
<g id="node4" class="node"><title>Node4</title>
<polygon fill="none" stroke="#bfbfbf" points="80.5,-0.5 80.5,-19.5 136.5,-19.5 136.5,-0.5 80.5,-0.5"/>
<text text-anchor="middle" x="108.5" y="-7.5" font-family="Helvetica,sans-Serif" font-size="10.00">sstream</text>
</g>
<!-- Node2&#45;&gt;Node4 -->
<g id="edge3" class="edge"><title>Node2&#45;&gt;Node4</title>
<path fill="none" stroke="midnightblue" d="M112.674,-56.083C112.019,-49.0059 111.08,-38.8611 110.258,-29.9865"/>
<polygon fill="midnightblue" stroke="midnightblue" points="113.717,-29.3858 109.31,-19.7511 106.747,-30.0312 113.717,-29.3858"/>
</g>
<!-- Node5 -->
<g id="node5" class="node"><title>Node5</title>
<polygon fill="none" stroke="#bfbfbf" points="154.5,-0.5 154.5,-19.5 198.5,-19.5 198.5,-0.5 154.5,-0.5"/>
<text text-anchor="middle" x="176.5" y="-7.5" font-family="Helvetica,sans-Serif" font-size="10.00">string</text>
</g>
<!-- Node2&#45;&gt;Node5 -->
<g id="edge4" class="edge"><title>Node2&#45;&gt;Node5</title>
<path fill="none" stroke="midnightblue" d="M123.622,-56.324C133.026,-48.2631 147.244,-36.0765 158.569,-26.3695"/>
<polygon fill="midnightblue" stroke="midnightblue" points="160.879,-28.9993 166.194,-19.8339 156.323,-23.6844 160.879,-28.9993"/>
</g>
</g>
</svg>
