<?xml version="1.0" encoding="UTF-8" standalone="no"?>
<!DOCTYPE svg PUBLIC "-//W3C//DTD SVG 1.1//EN"
 "http://www.w3.org/Graphics/SVG/1.1/DTD/svg11.dtd">
<!-- Generated by graphviz version 2.38.0 (20140413.2041)
 -->
<!-- Title: /home/travis/build/robotology/blockfactory/sources/SimulinkCoder/include/BlockFactory/SimulinkCoder/GeneratedCodeWrapper.h Pages: 1 -->
<svg width="208pt" height="128pt"
 viewBox="0.00 0.00 207.50 128.00" xmlns="http://www.w3.org/2000/svg" xmlns:xlink="http://www.w3.org/1999/xlink">
<g id="graph0" class="graph" transform="scale(1 1) rotate(0) translate(4 124)">
<title>/home/travis/build/robotology/blockfactory/sources/SimulinkCoder/include/BlockFactory/SimulinkCoder/GeneratedCodeWrapper.h</title>
<!-- Node1 -->
<g id="node1" class="node"><title>Node1</title>
<polygon fill="#bfbfbf" stroke="black" points="11.5,-56.5 11.5,-119.5 199.5,-119.5 199.5,-56.5 11.5,-56.5"/>
<text text-anchor="start" x="19.5" y="-107.5" font-family="Helvetica,sans-Serif" font-size="10.00">/home/travis/build</text>
<text text-anchor="start" x="19.5" y="-96.5" font-family="Helvetica,sans-Serif" font-size="10.00">/robotology/blockfactory</text>
<text text-anchor="start" x="19.5" y="-85.5" font-family="Helvetica,sans-Serif" font-size="10.00">/sources/SimulinkCoder</text>
<text text-anchor="start" x="19.5" y="-74.5" font-family="Helvetica,sans-Serif" font-size="10.00">/include/BlockFactory/SimulinkCoder</text>
<text text-anchor="middle" x="105.5" y="-63.5" font-family="Helvetica,sans-Serif" font-size="10.00">/GeneratedCodeWrapper.h</text>
</g>
<!-- Node2 -->
<g id="node2" class="node"><title>Node2</title>
<polygon fill="none" stroke="#bfbfbf" points="0,-0.5 0,-19.5 59,-19.5 59,-0.5 0,-0.5"/>
<text text-anchor="middle" x="29.5" y="-7.5" font-family="Helvetica,sans-Serif" font-size="10.00">iostream</text>
</g>
<!-- Node1&#45;&gt;Node2 -->
<g id="edge1" class="edge"><title>Node1&#45;&gt;Node2</title>
<path fill="none" stroke="midnightblue" d="M74.5879,-56.0879C64.6222,-46.1222 53.9822,-35.4822 45.5422,-27.0422"/>
<polygon fill="midnightblue" stroke="midnightblue" points="47.7641,-24.3144 38.2182,-19.7182 42.8144,-29.2641 47.7641,-24.3144"/>
</g>
<!-- Node3 -->
<g id="node3" class="node"><title>Node3</title>
<polygon fill="none" stroke="#bfbfbf" points="77,-0.5 77,-19.5 134,-19.5 134,-0.5 77,-0.5"/>
<text text-anchor="middle" x="105.5" y="-7.5" font-family="Helvetica,sans-Serif" font-size="10.00">memory</text>
</g>
<!-- Node1&#45;&gt;Node3 -->
<g id="edge2" class="edge"><title>Node1&#45;&gt;Node3</title>
<path fill="none" stroke="midnightblue" d="M105.5,-56.0879C105.5,-47.1496 105.5,-37.6688 105.5,-29.7195"/>
<polygon fill="midnightblue" stroke="midnightblue" points="109,-29.7181 105.5,-19.7182 102,-29.7182 109,-29.7181"/>
</g>
<!-- Node4 -->
<g id="node4" class="node"><title>Node4</title>
<polygon fill="none" stroke="#bfbfbf" points="152.5,-0.5 152.5,-19.5 196.5,-19.5 196.5,-0.5 152.5,-0.5"/>
<text text-anchor="middle" x="174.5" y="-7.5" font-family="Helvetica,sans-Serif" font-size="10.00">string</text>
</g>
<!-- Node1&#45;&gt;Node4 -->
<g id="edge3" class="edge"><title>Node1&#45;&gt;Node4</title>
<path fill="none" stroke="midnightblue" d="M133.565,-56.0879C142.519,-46.2249 152.074,-35.7015 159.698,-27.3039"/>
<polygon fill="midnightblue" stroke="midnightblue" points="162.454,-29.4747 166.585,-19.7182 157.272,-24.7693 162.454,-29.4747"/>
</g>
</g>
</svg>
