<?xml version="1.0" encoding="UTF-8" standalone="no"?>
<!DOCTYPE svg PUBLIC "-//W3C//DTD SVG 1.1//EN"
 "http://www.w3.org/Graphics/SVG/1.1/DTD/svg11.dtd">
<!-- Generated by graphviz version 2.38.0 (20140413.2041)
 -->
<!-- Title: /home/travis/build/robotology/blockfactory/sources/Core/include/BlockFactory/Core/Signal.h Pages: 1 -->
<svg width="223pt" height="173pt"
 viewBox="0.00 0.00 223.00 173.00" xmlns="http://www.w3.org/2000/svg" xmlns:xlink="http://www.w3.org/1999/xlink">
<g id="graph0" class="graph" transform="scale(1 1) rotate(0) translate(4 169)">
<title>/home/travis/build/robotology/blockfactory/sources/Core/include/BlockFactory/Core/Signal.h</title>
<!-- Node1 -->
<g id="node1" class="node"><title>Node1</title>
<polygon fill="#bfbfbf" stroke="black" points="33,-112.5 33,-164.5 215,-164.5 215,-112.5 33,-112.5"/>
<text text-anchor="start" x="41" y="-152.5" font-family="Helvetica,sans-Serif" font-size="10.00">/home/travis/build</text>
<text text-anchor="start" x="41" y="-141.5" font-family="Helvetica,sans-Serif" font-size="10.00">/robotology/blockfactory</text>
<text text-anchor="start" x="41" y="-130.5" font-family="Helvetica,sans-Serif" font-size="10.00">/sources/Core/include/BlockFactory</text>
<text text-anchor="middle" x="124" y="-119.5" font-family="Helvetica,sans-Serif" font-size="10.00">/Core/Signal.h</text>
</g>
<!-- Node2 -->
<g id="node2" class="node"><title>Node2</title>
<g id="a_node2"><a xlink:href="_port_8h.html" target="_top" xlink:title="BlockFactory/Core/Port.h">
<polygon fill="none" stroke="black" points="0,-56.5 0,-75.5 134,-75.5 134,-56.5 0,-56.5"/>
<text text-anchor="middle" x="67" y="-63.5" font-family="Helvetica,sans-Serif" font-size="10.00">BlockFactory/Core/Port.h</text>
</a>
</g>
</g>
<!-- Node1&#45;&gt;Node2 -->
<g id="edge1" class="edge"><title>Node1&#45;&gt;Node2</title>
<path fill="none" stroke="midnightblue" d="M103.743,-112.446C95.9677,-102.828 87.2962,-92.1032 80.3308,-83.4881"/>
<polygon fill="midnightblue" stroke="midnightblue" points="83.0394,-81.2713 74.0304,-75.6955 77.5959,-85.6723 83.0394,-81.2713"/>
</g>
<!-- Node5 -->
<g id="node5" class="node"><title>Node5</title>
<polygon fill="none" stroke="#bfbfbf" points="152.5,-56.5 152.5,-75.5 209.5,-75.5 209.5,-56.5 152.5,-56.5"/>
<text text-anchor="middle" x="181" y="-63.5" font-family="Helvetica,sans-Serif" font-size="10.00">memory</text>
</g>
<!-- Node1&#45;&gt;Node5 -->
<g id="edge4" class="edge"><title>Node1&#45;&gt;Node5</title>
<path fill="none" stroke="midnightblue" d="M144.257,-112.446C152.032,-102.828 160.704,-92.1032 167.669,-83.4881"/>
<polygon fill="midnightblue" stroke="midnightblue" points="170.404,-85.6723 173.97,-75.6955 164.961,-81.2713 170.404,-85.6723"/>
</g>
<!-- Node3 -->
<g id="node3" class="node"><title>Node3</title>
<polygon fill="none" stroke="#bfbfbf" points="7,-0.5 7,-19.5 59,-19.5 59,-0.5 7,-0.5"/>
<text text-anchor="middle" x="33" y="-7.5" font-family="Helvetica,sans-Serif" font-size="10.00">cstddef</text>
</g>
<!-- Node2&#45;&gt;Node3 -->
<g id="edge2" class="edge"><title>Node2&#45;&gt;Node3</title>
<path fill="none" stroke="midnightblue" d="M61.3856,-56.083C56.6326,-48.5341 49.6819,-37.4948 43.8484,-28.2298"/>
<polygon fill="midnightblue" stroke="midnightblue" points="46.7999,-26.3486 38.5099,-19.7511 40.8763,-30.0783 46.7999,-26.3486"/>
</g>
<!-- Node4 -->
<g id="node4" class="node"><title>Node4</title>
<polygon fill="none" stroke="#bfbfbf" points="77.5,-0.5 77.5,-19.5 124.5,-19.5 124.5,-0.5 77.5,-0.5"/>
<text text-anchor="middle" x="101" y="-7.5" font-family="Helvetica,sans-Serif" font-size="10.00">vector</text>
</g>
<!-- Node2&#45;&gt;Node4 -->
<g id="edge3" class="edge"><title>Node2&#45;&gt;Node4</title>
<path fill="none" stroke="midnightblue" d="M72.6144,-56.083C77.3674,-48.5341 84.3181,-37.4948 90.1516,-28.2298"/>
<polygon fill="midnightblue" stroke="midnightblue" points="93.1237,-30.0783 95.4901,-19.7511 87.2001,-26.3486 93.1237,-30.0783"/>
</g>
</g>
</svg>
