<?xml version="1.0" encoding="UTF-8" standalone="no"?>
<!DOCTYPE svg PUBLIC "-//W3C//DTD SVG 1.1//EN"
 "http://www.w3.org/Graphics/SVG/1.1/DTD/svg11.dtd">
<!-- Generated by graphviz version 2.38.0 (20140413.2041)
 -->
<!-- Title: /home/travis/build/robotology/blockfactory/sources/Simulink/include/BlockFactory/Simulink/Private/SimulinkBlockInformationImpl.h Pages: 1 -->
<svg width="672pt" height="240pt"
 viewBox="0.00 0.00 671.50 240.00" xmlns="http://www.w3.org/2000/svg" xmlns:xlink="http://www.w3.org/1999/xlink">
<g id="graph0" class="graph" transform="scale(1 1) rotate(0) translate(4 236)">
<title>/home/travis/build/robotology/blockfactory/sources/Simulink/include/BlockFactory/Simulink/Private/SimulinkBlockInformationImpl.h</title>
<!-- Node1 -->
<g id="node1" class="node"><title>Node1</title>
<polygon fill="#bfbfbf" stroke="black" points="372,-168.5 372,-231.5 542,-231.5 542,-168.5 372,-168.5"/>
<text text-anchor="start" x="380" y="-219.5" font-family="Helvetica,sans-Serif" font-size="10.00">/home/travis/build</text>
<text text-anchor="start" x="380" y="-208.5" font-family="Helvetica,sans-Serif" font-size="10.00">/robotology/blockfactory</text>
<text text-anchor="start" x="380" y="-197.5" font-family="Helvetica,sans-Serif" font-size="10.00">/sources/Simulink/include</text>
<text text-anchor="start" x="380" y="-186.5" font-family="Helvetica,sans-Serif" font-size="10.00">/BlockFactory/Simulink/Private</text>
<text text-anchor="middle" x="457" y="-175.5" font-family="Helvetica,sans-Serif" font-size="10.00">/SimulinkBlockInformationImpl.h</text>
</g>
<!-- Node2 -->
<g id="node2" class="node"><title>Node2</title>
<g id="a_node2"><a xlink:href="_block_information_8h.html" target="_top" xlink:title="BlockFactory/Core/BlockInformation.h">
<polygon fill="none" stroke="black" points="189,-112.5 189,-131.5 383,-131.5 383,-112.5 189,-112.5"/>
<text text-anchor="middle" x="286" y="-119.5" font-family="Helvetica,sans-Serif" font-size="10.00">BlockFactory/Core/BlockInformation.h</text>
</a>
</g>
</g>
<!-- Node1&#45;&gt;Node2 -->
<g id="edge1" class="edge"><title>Node1&#45;&gt;Node2</title>
<path fill="none" stroke="midnightblue" d="M387.941,-168.307C362.291,-156.907 334.589,-144.595 314.547,-135.687"/>
<polygon fill="midnightblue" stroke="midnightblue" points="315.925,-132.47 305.365,-131.607 313.082,-138.866 315.925,-132.47"/>
</g>
<!-- Node5 -->
<g id="node5" class="node"><title>Node5</title>
<polygon fill="none" stroke="#bfbfbf" points="138.5,-0.5 138.5,-19.5 185.5,-19.5 185.5,-0.5 138.5,-0.5"/>
<text text-anchor="middle" x="162" y="-7.5" font-family="Helvetica,sans-Serif" font-size="10.00">vector</text>
</g>
<!-- Node1&#45;&gt;Node5 -->
<g id="edge13" class="edge"><title>Node1&#45;&gt;Node5</title>
<path fill="none" stroke="midnightblue" d="M462.488,-168.286C466.362,-135.868 466.611,-85.4687 438,-56 405.083,-22.0968 262.64,-13.7342 196.271,-11.6732"/>
<polygon fill="midnightblue" stroke="midnightblue" points="196.02,-8.16491 185.927,-11.3842 195.825,-15.1622 196.02,-8.16491"/>
</g>
<!-- Node7 -->
<g id="node7" class="node"><title>Node7</title>
<polygon fill="none" stroke="#bfbfbf" points="385,-56.5 385,-75.5 429,-75.5 429,-56.5 385,-56.5"/>
<text text-anchor="middle" x="407" y="-63.5" font-family="Helvetica,sans-Serif" font-size="10.00">string</text>
</g>
<!-- Node1&#45;&gt;Node7 -->
<g id="edge12" class="edge"><title>Node1&#45;&gt;Node7</title>
<path fill="none" stroke="midnightblue" d="M445.403,-168.385C435.63,-142.584 421.978,-106.541 413.858,-85.1045"/>
<polygon fill="midnightblue" stroke="midnightblue" points="417.077,-83.7218 410.261,-75.61 410.531,-86.2014 417.077,-83.7218"/>
</g>
<!-- Node10 -->
<g id="node10" class="node"><title>Node10</title>
<polygon fill="none" stroke="#bfbfbf" points="485.5,-112.5 485.5,-131.5 578.5,-131.5 578.5,-112.5 485.5,-112.5"/>
<text text-anchor="middle" x="532" y="-119.5" font-family="Helvetica,sans-Serif" font-size="10.00">mxpp/MxArray.h</text>
</g>
<!-- Node1&#45;&gt;Node10 -->
<g id="edge10" class="edge"><title>Node1&#45;&gt;Node10</title>
<path fill="none" stroke="midnightblue" d="M487.505,-168.088C497.34,-158.122 507.84,-147.482 516.169,-139.042"/>
<polygon fill="midnightblue" stroke="midnightblue" points="518.864,-141.294 523.397,-131.718 513.881,-136.377 518.864,-141.294"/>
</g>
<!-- Node11 -->
<g id="node11" class="node"><title>Node11</title>
<polygon fill="none" stroke="#bfbfbf" points="596.5,-112.5 596.5,-131.5 663.5,-131.5 663.5,-112.5 596.5,-112.5"/>
<text text-anchor="middle" x="630" y="-119.5" font-family="Helvetica,sans-Serif" font-size="10.00">simstruc.h</text>
</g>
<!-- Node1&#45;&gt;Node11 -->
<g id="edge11" class="edge"><title>Node1&#45;&gt;Node11</title>
<path fill="none" stroke="midnightblue" d="M526.867,-168.307C552.817,-156.907 580.842,-144.595 601.12,-135.687"/>
<polygon fill="midnightblue" stroke="midnightblue" points="602.661,-138.833 610.408,-131.607 599.845,-132.424 602.661,-138.833"/>
</g>
<!-- Node3 -->
<g id="node3" class="node"><title>Node3</title>
<g id="a_node3"><a xlink:href="_port_8h.html" target="_top" xlink:title="BlockFactory/Core/Port.h">
<polygon fill="none" stroke="black" points="0,-56.5 0,-75.5 134,-75.5 134,-56.5 0,-56.5"/>
<text text-anchor="middle" x="67" y="-63.5" font-family="Helvetica,sans-Serif" font-size="10.00">BlockFactory/Core/Port.h</text>
</a>
</g>
</g>
<!-- Node2&#45;&gt;Node3 -->
<g id="edge2" class="edge"><title>Node2&#45;&gt;Node3</title>
<path fill="none" stroke="midnightblue" d="M251.299,-112.444C213.415,-103.102 152.651,-88.1194 111.338,-77.9326"/>
<polygon fill="midnightblue" stroke="midnightblue" points="112.086,-74.5123 101.539,-75.5164 110.41,-81.3088 112.086,-74.5123"/>
</g>
<!-- Node2&#45;&gt;Node5 -->
<g id="edge9" class="edge"><title>Node2&#45;&gt;Node5</title>
<path fill="none" stroke="midnightblue" d="M245.092,-112.441C223.269,-105.895 197.574,-94.702 181,-76 169.679,-63.225 165.088,-44.0334 163.234,-29.8124"/>
<polygon fill="midnightblue" stroke="midnightblue" points="166.702,-29.3087 162.259,-19.6907 159.734,-29.9804 166.702,-29.3087"/>
</g>
<!-- Node6 -->
<g id="node6" class="node"><title>Node6</title>
<polygon fill="none" stroke="#bfbfbf" points="190.5,-56.5 190.5,-75.5 247.5,-75.5 247.5,-56.5 190.5,-56.5"/>
<text text-anchor="middle" x="219" y="-63.5" font-family="Helvetica,sans-Serif" font-size="10.00">memory</text>
</g>
<!-- Node2&#45;&gt;Node6 -->
<g id="edge5" class="edge"><title>Node2&#45;&gt;Node6</title>
<path fill="none" stroke="midnightblue" d="M275.235,-112.324C265.234,-104.263 250.113,-92.0765 238.07,-82.3695"/>
<polygon fill="midnightblue" stroke="midnightblue" points="239.943,-79.3841 229.961,-75.8339 235.55,-84.8343 239.943,-79.3841"/>
</g>
<!-- Node2&#45;&gt;Node7 -->
<g id="edge6" class="edge"><title>Node2&#45;&gt;Node7</title>
<path fill="none" stroke="midnightblue" d="M305.173,-112.444C324.909,-103.636 355.885,-89.8116 378.493,-79.722"/>
<polygon fill="midnightblue" stroke="midnightblue" points="380.211,-82.788 387.917,-75.5164 377.359,-76.3957 380.211,-82.788"/>
</g>
<!-- Node8 -->
<g id="node8" class="node"><title>Node8</title>
<polygon fill="none" stroke="#bfbfbf" points="265.5,-56.5 265.5,-75.5 306.5,-75.5 306.5,-56.5 265.5,-56.5"/>
<text text-anchor="middle" x="286" y="-63.5" font-family="Helvetica,sans-Serif" font-size="10.00">tuple</text>
</g>
<!-- Node2&#45;&gt;Node8 -->
<g id="edge7" class="edge"><title>Node2&#45;&gt;Node8</title>
<path fill="none" stroke="midnightblue" d="M286,-112.083C286,-105.006 286,-94.8611 286,-85.9865"/>
<polygon fill="midnightblue" stroke="midnightblue" points="289.5,-85.751 286,-75.7511 282.5,-85.7511 289.5,-85.751"/>
</g>
<!-- Node9 -->
<g id="node9" class="node"><title>Node9</title>
<polygon fill="none" stroke="#bfbfbf" points="325,-56.5 325,-75.5 367,-75.5 367,-56.5 325,-56.5"/>
<text text-anchor="middle" x="346" y="-63.5" font-family="Helvetica,sans-Serif" font-size="10.00">utility</text>
</g>
<!-- Node2&#45;&gt;Node9 -->
<g id="edge8" class="edge"><title>Node2&#45;&gt;Node9</title>
<path fill="none" stroke="midnightblue" d="M295.64,-112.324C304.51,-104.341 317.875,-92.3128 328.608,-82.6529"/>
<polygon fill="midnightblue" stroke="midnightblue" points="331.093,-85.1251 336.185,-75.8339 326.41,-79.922 331.093,-85.1251"/>
</g>
<!-- Node4 -->
<g id="node4" class="node"><title>Node4</title>
<polygon fill="none" stroke="#bfbfbf" points="41,-0.5 41,-19.5 93,-19.5 93,-0.5 41,-0.5"/>
<text text-anchor="middle" x="67" y="-7.5" font-family="Helvetica,sans-Serif" font-size="10.00">cstddef</text>
</g>
<!-- Node3&#45;&gt;Node4 -->
<g id="edge3" class="edge"><title>Node3&#45;&gt;Node4</title>
<path fill="none" stroke="midnightblue" d="M67,-56.083C67,-49.0059 67,-38.8611 67,-29.9865"/>
<polygon fill="midnightblue" stroke="midnightblue" points="70.5001,-29.751 67,-19.7511 63.5001,-29.7511 70.5001,-29.751"/>
</g>
<!-- Node3&#45;&gt;Node5 -->
<g id="edge4" class="edge"><title>Node3&#45;&gt;Node5</title>
<path fill="none" stroke="midnightblue" d="M82.2634,-56.324C97.2214,-47.8215 120.255,-34.7288 137.727,-24.7975"/>
<polygon fill="midnightblue" stroke="midnightblue" points="139.81,-27.639 146.774,-19.6545 136.351,-21.5534 139.81,-27.639"/>
</g>
</g>
</svg>
