<?xml version="1.0" encoding="UTF-8" standalone="no"?>
<!DOCTYPE svg PUBLIC "-//W3C//DTD SVG 1.1//EN"
 "http://www.w3.org/Graphics/SVG/1.1/DTD/svg11.dtd">
<!-- Generated by graphviz version 2.38.0 (20140413.2041)
 -->
<!-- Title: Graphical Class Hierarchy Pages: 1 -->
<svg width="284pt" height="88pt"
 viewBox="0.00 0.00 284.00 88.00" xmlns="http://www.w3.org/2000/svg" xmlns:xlink="http://www.w3.org/1999/xlink">
<g id="graph0" class="graph" transform="scale(1 1) rotate(0) translate(4 84)">
<title>Graphical Class Hierarchy</title>
<!-- Node1 -->
<g id="node1" class="node"><title>Node1</title>
<g id="a_node1"><a xlink:href="classblockfactory_1_1core_1_1_block_information.html" target="_top" xlink:title="Abstract class for storing generic core::Block properties. ">
<polygon fill="none" stroke="black" points="0,-24.5 0,-54.5 103,-54.5 103,-24.5 0,-24.5"/>
<text text-anchor="start" x="8" y="-42.5" font-family="Helvetica,sans-Serif" font-size="10.00">blockfactory::core</text>
<text text-anchor="middle" x="51.5" y="-31.5" font-family="Helvetica,sans-Serif" font-size="10.00">::BlockInformation</text>
</a>
</g>
</g>
<!-- Node2 -->
<g id="node2" class="node"><title>Node2</title>
<g id="a_node2"><a xlink:href="classblockfactory_1_1coder_1_1_coder_block_information.html" target="_top" xlink:title="blockfactory::coder\l::CoderBlockInformation">
<polygon fill="none" stroke="black" points="142,-49.5 142,-79.5 273,-79.5 273,-49.5 142,-49.5"/>
<text text-anchor="start" x="150" y="-67.5" font-family="Helvetica,sans-Serif" font-size="10.00">blockfactory::coder</text>
<text text-anchor="middle" x="207.5" y="-56.5" font-family="Helvetica,sans-Serif" font-size="10.00">::CoderBlockInformation</text>
</a>
</g>
</g>
<!-- Node1&#45;&gt;Node2 -->
<g id="edge1" class="edge"><title>Node1&#45;&gt;Node2</title>
<path fill="none" stroke="midnightblue" d="M113.384,-49.3837C122.775,-50.9083 132.502,-52.4873 141.97,-54.0244"/>
<polygon fill="midnightblue" stroke="midnightblue" points="113.784,-45.9029 103.352,-47.7552 112.662,-52.8125 113.784,-45.9029"/>
</g>
<!-- Node3 -->
<g id="node3" class="node"><title>Node3</title>
<g id="a_node3"><a xlink:href="classblockfactory_1_1mex_1_1_simulink_block_information.html" target="_top" xlink:title="Simulink implementation of block information. ">
<polygon fill="none" stroke="black" points="139,-0.5 139,-30.5 276,-30.5 276,-0.5 139,-0.5"/>
<text text-anchor="start" x="147" y="-18.5" font-family="Helvetica,sans-Serif" font-size="10.00">blockfactory::mex::</text>
<text text-anchor="middle" x="207.5" y="-7.5" font-family="Helvetica,sans-Serif" font-size="10.00">SimulinkBlockInformation</text>
</a>
</g>
</g>
<!-- Node1&#45;&gt;Node3 -->
<g id="edge2" class="edge"><title>Node1&#45;&gt;Node3</title>
<path fill="none" stroke="midnightblue" d="M113.418,-30.0063C121.801,-28.6998 130.451,-27.3518 138.945,-26.0281"/>
<polygon fill="midnightblue" stroke="midnightblue" points="112.694,-26.5768 103.352,-31.575 113.772,-33.4933 112.694,-26.5768"/>
</g>
</g>
</svg>
