<?xml version="1.0" encoding="UTF-8" standalone="no"?>
<!DOCTYPE svg PUBLIC "-//W3C//DTD SVG 1.1//EN"
 "http://www.w3.org/Graphics/SVG/1.1/DTD/svg11.dtd">
<!-- Generated by graphviz version 2.38.0 (20140413.2041)
 -->
<!-- Title: /home/travis/build/robotology/blockfactory/sources/Core/include/BlockFactory/Core/BlockInformation.h Pages: 1 -->
<svg width="313pt" height="117pt"
 viewBox="0.00 0.00 313.00 117.00" xmlns="http://www.w3.org/2000/svg" xmlns:xlink="http://www.w3.org/1999/xlink">
<g id="graph0" class="graph" transform="scale(1 1) rotate(0) translate(4 113)">
<title>/home/travis/build/robotology/blockfactory/sources/Core/include/BlockFactory/Core/BlockInformation.h</title>
<!-- Node1 -->
<g id="node1" class="node"><title>Node1</title>
<polygon fill="#bfbfbf" stroke="black" points="67.5,-56.5 67.5,-108.5 249.5,-108.5 249.5,-56.5 67.5,-56.5"/>
<text text-anchor="start" x="75.5" y="-96.5" font-family="Helvetica,sans-Serif" font-size="10.00">/home/travis/build</text>
<text text-anchor="start" x="75.5" y="-85.5" font-family="Helvetica,sans-Serif" font-size="10.00">/robotology/blockfactory</text>
<text text-anchor="start" x="75.5" y="-74.5" font-family="Helvetica,sans-Serif" font-size="10.00">/sources/Core/include/BlockFactory</text>
<text text-anchor="middle" x="158.5" y="-63.5" font-family="Helvetica,sans-Serif" font-size="10.00">/Core/BlockInformation.h</text>
</g>
<!-- Node2 -->
<g id="node2" class="node"><title>Node2</title>
<polygon fill="none" stroke="#bfbfbf" points="0,-0.5 0,-19.5 57,-19.5 57,-0.5 0,-0.5"/>
<text text-anchor="middle" x="28.5" y="-7.5" font-family="Helvetica,sans-Serif" font-size="10.00">memory</text>
</g>
<!-- Node1&#45;&gt;Node2 -->
<g id="edge1" class="edge"><title>Node1&#45;&gt;Node2</title>
<path fill="none" stroke="midnightblue" d="M112.301,-56.4458C92.4126,-45.6603 69.9551,-33.4814 53.2977,-24.448"/>
<polygon fill="midnightblue" stroke="midnightblue" points="54.6826,-21.2175 44.2235,-19.527 51.3455,-27.3709 54.6826,-21.2175"/>
</g>
<!-- Node3 -->
<g id="node3" class="node"><title>Node3</title>
<polygon fill="none" stroke="#bfbfbf" points="75.5,-0.5 75.5,-19.5 119.5,-19.5 119.5,-0.5 75.5,-0.5"/>
<text text-anchor="middle" x="97.5" y="-7.5" font-family="Helvetica,sans-Serif" font-size="10.00">string</text>
</g>
<!-- Node1&#45;&gt;Node3 -->
<g id="edge2" class="edge"><title>Node1&#45;&gt;Node3</title>
<path fill="none" stroke="midnightblue" d="M136.822,-56.4458C128.501,-46.8285 119.221,-36.1032 111.766,-27.4881"/>
<polygon fill="midnightblue" stroke="midnightblue" points="114.214,-24.9676 105.024,-19.6955 108.92,-29.5478 114.214,-24.9676"/>
</g>
<!-- Node4 -->
<g id="node4" class="node"><title>Node4</title>
<polygon fill="none" stroke="#bfbfbf" points="138,-0.5 138,-19.5 179,-19.5 179,-0.5 138,-0.5"/>
<text text-anchor="middle" x="158.5" y="-7.5" font-family="Helvetica,sans-Serif" font-size="10.00">tuple</text>
</g>
<!-- Node1&#45;&gt;Node4 -->
<g id="edge3" class="edge"><title>Node1&#45;&gt;Node4</title>
<path fill="none" stroke="midnightblue" d="M158.5,-56.4458C158.5,-47.7301 158.5,-38.1045 158.5,-29.9641"/>
<polygon fill="midnightblue" stroke="midnightblue" points="162,-29.6954 158.5,-19.6955 155,-29.6955 162,-29.6954"/>
</g>
<!-- Node5 -->
<g id="node5" class="node"><title>Node5</title>
<polygon fill="none" stroke="#bfbfbf" points="197.5,-0.5 197.5,-19.5 239.5,-19.5 239.5,-0.5 197.5,-0.5"/>
<text text-anchor="middle" x="218.5" y="-7.5" font-family="Helvetica,sans-Serif" font-size="10.00">utility</text>
</g>
<!-- Node1&#45;&gt;Node5 -->
<g id="edge4" class="edge"><title>Node1&#45;&gt;Node5</title>
<path fill="none" stroke="midnightblue" d="M179.823,-56.4458C188.008,-46.8285 197.136,-36.1032 204.468,-27.4881"/>
<polygon fill="midnightblue" stroke="midnightblue" points="207.284,-29.5793 211.1,-19.6955 201.953,-25.0425 207.284,-29.5793"/>
</g>
<!-- Node6 -->
<g id="node6" class="node"><title>Node6</title>
<polygon fill="none" stroke="#bfbfbf" points="258,-0.5 258,-19.5 305,-19.5 305,-0.5 258,-0.5"/>
<text text-anchor="middle" x="281.5" y="-7.5" font-family="Helvetica,sans-Serif" font-size="10.00">vector</text>
</g>
<!-- Node1&#45;&gt;Node6 -->
<g id="edge5" class="edge"><title>Node1&#45;&gt;Node6</title>
<path fill="none" stroke="midnightblue" d="M202.212,-56.4458C220.853,-45.7611 241.88,-33.709 257.594,-24.7021"/>
<polygon fill="midnightblue" stroke="midnightblue" points="259.688,-27.5364 266.623,-19.527 256.207,-21.4632 259.688,-27.5364"/>
</g>
</g>
</svg>
