<?xml version="1.0" encoding="UTF-8" standalone="no"?>
<!DOCTYPE svg PUBLIC "-//W3C//DTD SVG 1.1//EN"
 "http://www.w3.org/Graphics/SVG/1.1/DTD/svg11.dtd">
<!-- Generated by graphviz version 2.40.1 (20161225.0304)
 -->
<!-- Title: /root/blockfactory/sources/Core/include/BlockFactory/Core/Block.h Pages: 1 -->
<svg width="224pt" height="162pt"
 viewBox="0.00 0.00 223.50 162.00" xmlns="http://www.w3.org/2000/svg" xmlns:xlink="http://www.w3.org/1999/xlink">
<g id="graph0" class="graph" transform="scale(1 1) rotate(0) translate(4 158)">
<title>/root/blockfactory/sources/Core/include/BlockFactory/Core/Block.h</title>
<!-- Node0 -->
<g id="node1" class="node">
<title>Node0</title>
<polygon fill="#bfbfbf" stroke="#000000" points="38,-112.5 38,-153.5 175,-153.5 175,-112.5 38,-112.5"/>
<text text-anchor="start" x="46" y="-141.5" font-family="Helvetica,sans-Serif" font-size="10.00" fill="#000000">/root/blockfactory</text>
<text text-anchor="start" x="46" y="-130.5" font-family="Helvetica,sans-Serif" font-size="10.00" fill="#000000">/sources/Core/include</text>
<text text-anchor="middle" x="106.5" y="-119.5" font-family="Helvetica,sans-Serif" font-size="10.00" fill="#000000">/BlockFactory/Core/Block.h</text>
</g>
<!-- Node1 -->
<g id="node2" class="node">
<title>Node1</title>
<g id="a_node2"><a xlink:href="_parameters_8h.html" target="_top" xlink:title="BlockFactory/Core/Parameters.h">
<polygon fill="none" stroke="#000000" points="26.5,-56.5 26.5,-75.5 186.5,-75.5 186.5,-56.5 26.5,-56.5"/>
<text text-anchor="middle" x="106.5" y="-63.5" font-family="Helvetica,sans-Serif" font-size="10.00" fill="#000000">BlockFactory/Core/Parameters.h</text>
</a>
</g>
</g>
<!-- Node0&#45;&gt;Node1 -->
<g id="edge1" class="edge">
<title>Node0&#45;&gt;Node1</title>
<path fill="none" stroke="#191970" d="M106.5,-112.168C106.5,-103.8226 106.5,-94.2471 106.5,-85.9879"/>
<polygon fill="#191970" stroke="#191970" points="110.0001,-85.7804 106.5,-75.7805 103.0001,-85.7805 110.0001,-85.7804"/>
</g>
<!-- Node3 -->
<g id="node4" class="node">
<title>Node3</title>
<polygon fill="none" stroke="#bfbfbf" points="0,-.5 0,-19.5 41,-19.5 41,-.5 0,-.5"/>
<text text-anchor="middle" x="20.5" y="-7.5" font-family="Helvetica,sans-Serif" font-size="10.00" fill="#000000">string</text>
</g>
<!-- Node0&#45;&gt;Node3 -->
<g id="edge5" class="edge">
<title>Node0&#45;&gt;Node3</title>
<path fill="none" stroke="#191970" d="M56.0355,-112.419C40.8885,-103.5795 26.042,-91.6144 17.5,-76 9.7681,-61.8665 11.4234,-43.3748 14.4928,-29.5614"/>
<polygon fill="#191970" stroke="#191970" points="17.9384,-30.2211 17.1052,-19.659 11.17,-28.4354 17.9384,-30.2211"/>
</g>
<!-- Node4 -->
<g id="node5" class="node">
<title>Node4</title>
<polygon fill="none" stroke="#bfbfbf" points="171.5,-.5 171.5,-19.5 215.5,-19.5 215.5,-.5 171.5,-.5"/>
<text text-anchor="middle" x="193.5" y="-7.5" font-family="Helvetica,sans-Serif" font-size="10.00" fill="#000000">vector</text>
</g>
<!-- Node0&#45;&gt;Node4 -->
<g id="edge6" class="edge">
<title>Node0&#45;&gt;Node4</title>
<path fill="none" stroke="#191970" d="M156.9645,-112.419C172.1115,-103.5795 186.958,-91.6144 195.5,-76 203.2274,-61.8746 201.8736,-43.3821 199.0773,-29.5664"/>
<polygon fill="#191970" stroke="#191970" points="202.433,-28.5531 196.6713,-19.6619 195.6308,-30.2055 202.433,-28.5531"/>
</g>
<!-- Node2 -->
<g id="node3" class="node">
<title>Node2</title>
<polygon fill="none" stroke="#bfbfbf" points="80.5,-.5 80.5,-19.5 132.5,-19.5 132.5,-.5 80.5,-.5"/>
<text text-anchor="middle" x="106.5" y="-7.5" font-family="Helvetica,sans-Serif" font-size="10.00" fill="#000000">memory</text>
</g>
<!-- Node1&#45;&gt;Node2 -->
<g id="edge2" class="edge">
<title>Node1&#45;&gt;Node2</title>
<path fill="none" stroke="#191970" d="M106.5,-56.2455C106.5,-48.9382 106.5,-38.6944 106.5,-29.7046"/>
<polygon fill="#191970" stroke="#191970" points="110.0001,-29.6426 106.5,-19.6427 103.0001,-29.6427 110.0001,-29.6426"/>
</g>
<!-- Node1&#45;&gt;Node3 -->
<g id="edge3" class="edge">
<title>Node1&#45;&gt;Node3</title>
<path fill="none" stroke="#191970" d="M91.5199,-56.2455C78.3249,-47.6534 58.8949,-35.0014 43.6921,-25.1018"/>
<polygon fill="#191970" stroke="#191970" points="45.5983,-22.1665 35.3084,-19.6427 41.7785,-28.0325 45.5983,-22.1665"/>
</g>
<!-- Node1&#45;&gt;Node4 -->
<g id="edge4" class="edge">
<title>Node1&#45;&gt;Node4</title>
<path fill="none" stroke="#191970" d="M121.6542,-56.2455C135.0027,-47.6534 154.6586,-35.0014 170.0383,-25.1018"/>
<polygon fill="#191970" stroke="#191970" points="172.0051,-27.9982 178.5194,-19.6427 168.2164,-22.1121 172.0051,-27.9982"/>
</g>
</g>
</svg>
