<?xml version="1.0" encoding="UTF-8" standalone="no"?>
<!DOCTYPE svg PUBLIC "-//W3C//DTD SVG 1.1//EN"
 "http://www.w3.org/Graphics/SVG/1.1/DTD/svg11.dtd">
<!-- Generated by graphviz version 2.40.1 (20161225.0304)
 -->
<!-- Title: /root/blockfactory/sources/Core/include/BlockFactory/Core/BlockInformation.h Pages: 1 -->
<svg width="296pt" height="106pt"
 viewBox="0.00 0.00 296.00 106.00" xmlns="http://www.w3.org/2000/svg" xmlns:xlink="http://www.w3.org/1999/xlink">
<g id="graph0" class="graph" transform="scale(1 1) rotate(0) translate(4 102)">
<title>/root/blockfactory/sources/Core/include/BlockFactory/Core/BlockInformation.h</title>
<!-- Node0 -->
<g id="node1" class="node">
<title>Node0</title>
<polygon fill="#bfbfbf" stroke="#000000" points="56,-56.5 56,-97.5 242,-97.5 242,-56.5 56,-56.5"/>
<text text-anchor="start" x="64" y="-85.5" font-family="Helvetica,sans-Serif" font-size="10.00" fill="#000000">/root/blockfactory</text>
<text text-anchor="start" x="64" y="-74.5" font-family="Helvetica,sans-Serif" font-size="10.00" fill="#000000">/sources/Core/include</text>
<text text-anchor="middle" x="149" y="-63.5" font-family="Helvetica,sans-Serif" font-size="10.00" fill="#000000">/BlockFactory/Core/BlockInformation.h</text>
</g>
<!-- Node1 -->
<g id="node2" class="node">
<title>Node1</title>
<polygon fill="none" stroke="#bfbfbf" points="0,-.5 0,-19.5 52,-19.5 52,-.5 0,-.5"/>
<text text-anchor="middle" x="26" y="-7.5" font-family="Helvetica,sans-Serif" font-size="10.00" fill="#000000">memory</text>
</g>
<!-- Node0&#45;&gt;Node1 -->
<g id="edge1" class="edge">
<title>Node0&#45;&gt;Node1</title>
<path fill="none" stroke="#191970" d="M111.0923,-56.3511C92.153,-46.0346 69.6954,-33.8015 52.6081,-24.4939"/>
<polygon fill="#191970" stroke="#191970" points="54.1801,-21.3646 43.7242,-19.6546 50.8316,-27.5118 54.1801,-21.3646"/>
</g>
<!-- Node2 -->
<g id="node3" class="node">
<title>Node2</title>
<polygon fill="none" stroke="#bfbfbf" points="70.5,-.5 70.5,-19.5 111.5,-19.5 111.5,-.5 70.5,-.5"/>
<text text-anchor="middle" x="91" y="-7.5" font-family="Helvetica,sans-Serif" font-size="10.00" fill="#000000">string</text>
</g>
<!-- Node0&#45;&gt;Node2 -->
<g id="edge2" class="edge">
<title>Node0&#45;&gt;Node2</title>
<path fill="none" stroke="#191970" d="M130.9664,-56.168C123.0031,-46.9691 113.746,-36.2756 106.1474,-27.4979"/>
<polygon fill="#191970" stroke="#191970" points="108.6579,-25.0503 99.4667,-19.7805 103.3655,-29.6319 108.6579,-25.0503"/>
</g>
<!-- Node3 -->
<g id="node4" class="node">
<title>Node3</title>
<polygon fill="none" stroke="#bfbfbf" points="130,-.5 130,-19.5 168,-19.5 168,-.5 130,-.5"/>
<text text-anchor="middle" x="149" y="-7.5" font-family="Helvetica,sans-Serif" font-size="10.00" fill="#000000">tuple</text>
</g>
<!-- Node0&#45;&gt;Node3 -->
<g id="edge3" class="edge">
<title>Node0&#45;&gt;Node3</title>
<path fill="none" stroke="#191970" d="M149,-56.168C149,-47.8226 149,-38.2471 149,-29.9879"/>
<polygon fill="#191970" stroke="#191970" points="152.5001,-29.7804 149,-19.7805 145.5001,-29.7805 152.5001,-29.7804"/>
</g>
<!-- Node4 -->
<g id="node5" class="node">
<title>Node4</title>
<polygon fill="none" stroke="#bfbfbf" points="186,-.5 186,-19.5 226,-19.5 226,-.5 186,-.5"/>
<text text-anchor="middle" x="206" y="-7.5" font-family="Helvetica,sans-Serif" font-size="10.00" fill="#000000">utility</text>
</g>
<!-- Node0&#45;&gt;Node4 -->
<g id="edge4" class="edge">
<title>Node0&#45;&gt;Node4</title>
<path fill="none" stroke="#191970" d="M166.7227,-56.168C174.5487,-46.9691 183.6462,-36.2756 191.1138,-27.4979"/>
<polygon fill="#191970" stroke="#191970" points="193.8653,-29.665 197.6793,-19.7805 188.5337,-25.1291 193.8653,-29.665"/>
</g>
<!-- Node5 -->
<g id="node6" class="node">
<title>Node5</title>
<polygon fill="none" stroke="#bfbfbf" points="244,-.5 244,-19.5 288,-19.5 288,-.5 244,-.5"/>
<text text-anchor="middle" x="266" y="-7.5" font-family="Helvetica,sans-Serif" font-size="10.00" fill="#000000">vector</text>
</g>
<!-- Node0&#45;&gt;Node5 -->
<g id="edge5" class="edge">
<title>Node0&#45;&gt;Node5</title>
<path fill="none" stroke="#191970" d="M185.0585,-56.3511C202.9071,-46.1301 224.0408,-34.0279 240.237,-24.7532"/>
<polygon fill="#191970" stroke="#191970" points="242.2018,-27.6613 249.1404,-19.6546 238.7232,-21.5868 242.2018,-27.6613"/>
</g>
</g>
</svg>
