<?xml version="1.0" encoding="UTF-8" standalone="no"?>
<!DOCTYPE svg PUBLIC "-//W3C//DTD SVG 1.1//EN"
 "http://www.w3.org/Graphics/SVG/1.1/DTD/svg11.dtd">
<!-- Generated by graphviz version 2.38.0 (20140413.2041)
 -->
<!-- Title: /home/travis/build/robotology/blockfactory/sources/SimulinkCoder/include/BlockFactory/SimulinkCoder/CoderBlockInformation.h Pages: 1 -->
<!--zoomable 240 -->
<svg id="main" version="1.1" xmlns="http://www.w3.org/2000/svg" xmlns:xlink="http://www.w3.org/1999/xlink" xml:space="preserve" onload="init(evt)">
<style type="text/css"><![CDATA[
.edge:hover path { stroke: red; }
.edge:hover polygon { stroke: red; fill: red; }
]]></style>
<script type="text/javascript"><![CDATA[
var edges = document.getElementsByTagName('g');
if (edges && edges.length) {
  for (var i=0;i<edges.length;i++) {
    if (edges[i].id.substr(0,4)=='edge') {
      edges[i].setAttribute('class','edge');
    }
  }
}
]]></script>
        <defs>
                <circle id="rim" cx="0" cy="0" r="7"/>
                <circle id="rim2" cx="0" cy="0" r="3.5"/>
                <g id="zoomPlus">
                        <use xlink:href="#rim" fill="#404040">
                                <set attributeName="fill" to="#808080" begin="zoomplus.mouseover" end="zoomplus.mouseout"/>
                        </use>
                        <path d="M-4,0h8M0,-4v8" fill="none" stroke="white" stroke-width="1.5" pointer-events="none"/>
                </g>
                <g id="zoomMin">
                        <use xlink:href="#rim" fill="#404040">
                                <set attributeName="fill" to="#808080" begin="zoomminus.mouseover" end="zoomminus.mouseout"/>
                        </use>
                        <path d="M-4,0h8" fill="none" stroke="white" stroke-width="1.5" pointer-events="none"/>
                </g>
                <g id="dirArrow">
                        <path fill="none" stroke="white" stroke-width="1.5" d="M0,-3.0v7 M-2.5,-0.5L0,-3.0L2.5,-0.5"/>
                </g>
               <g id="resetDef">
                       <use xlink:href="#rim2" fill="#404040">
                               <set attributeName="fill" to="#808080" begin="reset.mouseover" end="reset.mouseout"/>
                       </use>
               </g>
        </defs>

<script type="text/javascript">
var viewWidth = 825;
var viewHeight = 240;
var sectionId = 'dynsection-0';
</script>
<script xlink:href="svgpan.js"/>
<svg id="graph" class="graph">
<g id="viewport">
<title>/home/travis/build/robotology/blockfactory/sources/SimulinkCoder/include/BlockFactory/SimulinkCoder/CoderBlockInformation.h</title>
<!-- Node1 -->
<g id="node1" class="node"><title>Node1</title>
<polygon fill="#bfbfbf" stroke="black" points="304.589,-168.5 304.589,-231.5 492.589,-231.5 492.589,-168.5 304.589,-168.5"/>
<text text-anchor="start" x="312.589" y="-219.5" font-family="Helvetica,sans-Serif" font-size="10.00">/home/travis/build</text>
<text text-anchor="start" x="312.589" y="-208.5" font-family="Helvetica,sans-Serif" font-size="10.00">/robotology/blockfactory</text>
<text text-anchor="start" x="312.589" y="-197.5" font-family="Helvetica,sans-Serif" font-size="10.00">/sources/SimulinkCoder</text>
<text text-anchor="start" x="312.589" y="-186.5" font-family="Helvetica,sans-Serif" font-size="10.00">/include/BlockFactory/SimulinkCoder</text>
<text text-anchor="middle" x="398.589" y="-175.5" font-family="Helvetica,sans-Serif" font-size="10.00">/CoderBlockInformation.h</text>
</g>
<!-- Node2 -->
<g id="node2" class="node"><title>Node2</title>
<g id="a_node2"><a xlink:href="_block_information_8h.html" target="_top" xlink:title="BlockFactory/Core/BlockInformation.h">
<polygon fill="none" stroke="black" points="176.589,-112.5 176.589,-131.5 370.589,-131.5 370.589,-112.5 176.589,-112.5"/>
<text text-anchor="middle" x="273.589" y="-119.5" font-family="Helvetica,sans-Serif" font-size="10.00">BlockFactory/Core/BlockInformation.h</text>
</a>
</g>
</g>
<!-- Node1&#45;&gt;Node2 -->
<g id="edge1" class="edge"><title>Node1&#45;&gt;Node2</title>
<path fill="none" stroke="midnightblue" d="M348.107,-168.307C330.209,-157.425 310.945,-145.713 296.488,-136.923"/>
<polygon fill="midnightblue" stroke="midnightblue" points="298.107,-133.811 287.744,-131.607 294.471,-139.792 298.107,-133.811"/>
</g>
<!-- Node3 -->
<g id="node3" class="node"><title>Node3</title>
<g id="a_node3"><a xlink:href="_port_8h.html" target="_top" xlink:title="BlockFactory/Core/Port.h">
<polygon fill="none" stroke="black" points="32.5887,-56.5 32.5887,-75.5 166.589,-75.5 166.589,-56.5 32.5887,-56.5"/>
<text text-anchor="middle" x="99.5887" y="-63.5" font-family="Helvetica,sans-Serif" font-size="10.00">BlockFactory/Core/Port.h</text>
</a>
</g>
</g>
<!-- Node1&#45;&gt;Node3 -->
<g id="edge17" class="edge"><title>Node1&#45;&gt;Node3</title>
<path fill="none" stroke="midnightblue" d="M304.492,-196.442C200.619,-191.401 43.0861,-176.431 5.58866,-132 -14.0947,-108.677 23.8107,-89.915 57.2069,-78.6531"/>
<polygon fill="midnightblue" stroke="midnightblue" points="58.4534,-81.9289 66.9052,-75.5401 56.314,-75.2639 58.4534,-81.9289"/>
</g>
<!-- Node6 -->
<g id="node6" class="node"><title>Node6</title>
<polygon fill="none" stroke="#bfbfbf" points="365.089,-56.5 365.089,-75.5 422.089,-75.5 422.089,-56.5 365.089,-56.5"/>
<text text-anchor="middle" x="393.589" y="-63.5" font-family="Helvetica,sans-Serif" font-size="10.00">memory</text>
</g>
<!-- Node1&#45;&gt;Node6 -->
<g id="edge21" class="edge"><title>Node1&#45;&gt;Node6</title>
<path fill="none" stroke="midnightblue" d="M397.429,-168.385C396.461,-142.82 395.111,-107.199 394.297,-85.6954"/>
<polygon fill="midnightblue" stroke="midnightblue" points="397.791,-85.4703 393.915,-75.61 390.796,-85.7353 397.791,-85.4703"/>
</g>
<!-- Node7 -->
<g id="node7" class="node"><title>Node7</title>
<polygon fill="none" stroke="#bfbfbf" points="516.589,-56.5 516.589,-75.5 560.589,-75.5 560.589,-56.5 516.589,-56.5"/>
<text text-anchor="middle" x="538.589" y="-63.5" font-family="Helvetica,sans-Serif" font-size="10.00">string</text>
</g>
<!-- Node1&#45;&gt;Node7 -->
<g id="edge22" class="edge"><title>Node1&#45;&gt;Node7</title>
<path fill="none" stroke="midnightblue" d="M492.672,-192.75C534.314,-184.733 579.647,-167.663 605.589,-132 620.317,-111.752 592.868,-92.2705 568.784,-80.0041"/>
<polygon fill="midnightblue" stroke="midnightblue" points="570.005,-76.7073 559.477,-75.5157 566.964,-83.0123 570.005,-76.7073"/>
</g>
<!-- Node10 -->
<g id="node10" class="node"><title>Node10</title>
<g id="a_node10"><a xlink:href="_parameter_8h.html" target="_top" xlink:title="BlockFactory/Core/Parameter.h">
<polygon fill="none" stroke="black" points="652.589,-112.5 652.589,-131.5 816.589,-131.5 816.589,-112.5 652.589,-112.5"/>
<text text-anchor="middle" x="734.589" y="-119.5" font-family="Helvetica,sans-Serif" font-size="10.00">BlockFactory/Core/Parameter.h</text>
</a>
</g>
</g>
<!-- Node1&#45;&gt;Node10 -->
<g id="edge10" class="edge"><title>Node1&#45;&gt;Node10</title>
<path fill="none" stroke="midnightblue" d="M492.63,-177.729C555.837,-163.432 636.494,-145.188 686.852,-133.798"/>
<polygon fill="midnightblue" stroke="midnightblue" points="687.831,-137.165 696.813,-131.545 686.287,-130.337 687.831,-137.165"/>
</g>
<!-- Node11 -->
<g id="node11" class="node"><title>Node11</title>
<g id="a_node11"><a xlink:href="_parameters_8h.html" target="_top" xlink:title="BlockFactory/Core/Parameters.h">
<polygon fill="none" stroke="black" points="426.589,-112.5 426.589,-131.5 596.589,-131.5 596.589,-112.5 426.589,-112.5"/>
<text text-anchor="middle" x="511.589" y="-119.5" font-family="Helvetica,sans-Serif" font-size="10.00">BlockFactory/Core/Parameters.h</text>
</a>
</g>
</g>
<!-- Node1&#45;&gt;Node11 -->
<g id="edge13" class="edge"><title>Node1&#45;&gt;Node11</title>
<path fill="none" stroke="midnightblue" d="M444.224,-168.307C459.997,-157.699 476.944,-146.301 489.894,-137.591"/>
<polygon fill="midnightblue" stroke="midnightblue" points="492.199,-140.259 498.543,-131.774 488.292,-134.45 492.199,-140.259"/>
</g>
<!-- Node12 -->
<g id="node12" class="node"><title>Node12</title>
<g id="a_node12"><a xlink:href="_signal_8h.html" target="_top" xlink:title="BlockFactory/Core/Signal.h">
<polygon fill="none" stroke="black" points="15.0887,-112.5 15.0887,-131.5 158.089,-131.5 158.089,-112.5 15.0887,-112.5"/>
<text text-anchor="middle" x="86.5887" y="-119.5" font-family="Helvetica,sans-Serif" font-size="10.00">BlockFactory/Core/Signal.h</text>
</a>
</g>
</g>
<!-- Node1&#45;&gt;Node12 -->
<g id="edge18" class="edge"><title>Node1&#45;&gt;Node12</title>
<path fill="none" stroke="midnightblue" d="M304.555,-176.094C247.173,-162.117 176.433,-144.885 131.411,-133.918"/>
<polygon fill="midnightblue" stroke="midnightblue" points="132.199,-130.508 121.655,-131.542 130.542,-137.309 132.199,-130.508"/>
</g>
<!-- Node2&#45;&gt;Node3 -->
<g id="edge2" class="edge"><title>Node2&#45;&gt;Node3</title>
<path fill="none" stroke="midnightblue" d="M246.018,-112.444C216.491,-103.28 169.471,-88.6876 136.706,-78.5192"/>
<polygon fill="midnightblue" stroke="midnightblue" points="137.619,-75.1378 127.03,-75.5164 135.544,-81.8232 137.619,-75.1378"/>
</g>
<!-- Node5 -->
<g id="node5" class="node"><title>Node5</title>
<polygon fill="none" stroke="#bfbfbf" points="385.089,-0.5 385.089,-19.5 432.089,-19.5 432.089,-0.5 385.089,-0.5"/>
<text text-anchor="middle" x="408.589" y="-7.5" font-family="Helvetica,sans-Serif" font-size="10.00">vector</text>
</g>
<!-- Node2&#45;&gt;Node5 -->
<g id="edge9" class="edge"><title>Node2&#45;&gt;Node5</title>
<path fill="none" stroke="midnightblue" d="M284.182,-112.368C307.052,-93.7334 361.299,-49.5324 390.015,-26.1338"/>
<polygon fill="midnightblue" stroke="midnightblue" points="392.503,-28.6215 398.045,-19.5914 388.081,-23.1949 392.503,-28.6215"/>
</g>
<!-- Node2&#45;&gt;Node6 -->
<g id="edge5" class="edge"><title>Node2&#45;&gt;Node6</title>
<path fill="none" stroke="midnightblue" d="M292.603,-112.444C312.176,-103.636 342.896,-89.8116 365.318,-79.722"/>
<polygon fill="midnightblue" stroke="midnightblue" points="366.98,-82.8119 374.663,-75.5164 364.108,-76.4284 366.98,-82.8119"/>
</g>
<!-- Node2&#45;&gt;Node7 -->
<g id="edge6" class="edge"><title>Node2&#45;&gt;Node7</title>
<path fill="none" stroke="midnightblue" d="M315.579,-112.444C368.606,-101.638 458.68,-83.2834 506.515,-73.5357"/>
<polygon fill="midnightblue" stroke="midnightblue" points="507.232,-76.9617 516.332,-71.5354 505.834,-70.1026 507.232,-76.9617"/>
</g>
<!-- Node8 -->
<g id="node8" class="node"><title>Node8</title>
<polygon fill="none" stroke="#bfbfbf" points="195.089,-56.5 195.089,-75.5 236.089,-75.5 236.089,-56.5 195.089,-56.5"/>
<text text-anchor="middle" x="215.589" y="-63.5" font-family="Helvetica,sans-Serif" font-size="10.00">tuple</text>
</g>
<!-- Node2&#45;&gt;Node8 -->
<g id="edge7" class="edge"><title>Node2&#45;&gt;Node8</title>
<path fill="none" stroke="midnightblue" d="M264.27,-112.324C255.696,-104.341 242.776,-92.3128 232.401,-82.6529"/>
<polygon fill="midnightblue" stroke="midnightblue" points="234.781,-80.0865 225.077,-75.8339 230.011,-85.2098 234.781,-80.0865"/>
</g>
<!-- Node9 -->
<g id="node9" class="node"><title>Node9</title>
<polygon fill="none" stroke="#bfbfbf" points="254.589,-56.5 254.589,-75.5 296.589,-75.5 296.589,-56.5 254.589,-56.5"/>
<text text-anchor="middle" x="275.589" y="-63.5" font-family="Helvetica,sans-Serif" font-size="10.00">utility</text>
</g>
<!-- Node2&#45;&gt;Node9 -->
<g id="edge8" class="edge"><title>Node2&#45;&gt;Node9</title>
<path fill="none" stroke="midnightblue" d="M273.919,-112.083C274.181,-105.006 274.557,-94.8611 274.885,-85.9865"/>
<polygon fill="midnightblue" stroke="midnightblue" points="278.392,-85.8738 275.265,-75.7511 271.397,-85.6147 278.392,-85.8738"/>
</g>
<!-- Node4 -->
<g id="node4" class="node"><title>Node4</title>
<polygon fill="none" stroke="#bfbfbf" points="73.5887,-0.5 73.5887,-19.5 125.589,-19.5 125.589,-0.5 73.5887,-0.5"/>
<text text-anchor="middle" x="99.5887" y="-7.5" font-family="Helvetica,sans-Serif" font-size="10.00">cstddef</text>
</g>
<!-- Node3&#45;&gt;Node4 -->
<g id="edge3" class="edge"><title>Node3&#45;&gt;Node4</title>
<path fill="none" stroke="midnightblue" d="M99.5887,-56.083C99.5887,-49.0059 99.5887,-38.8611 99.5887,-29.9865"/>
<polygon fill="midnightblue" stroke="midnightblue" points="103.089,-29.751 99.5887,-19.7511 96.0888,-29.7511 103.089,-29.751"/>
</g>
<!-- Node3&#45;&gt;Node5 -->
<g id="edge4" class="edge"><title>Node3&#45;&gt;Node5</title>
<path fill="none" stroke="midnightblue" d="M148.551,-56.4435C211.86,-45.3798 320.457,-26.4017 375.104,-16.8518"/>
<polygon fill="midnightblue" stroke="midnightblue" points="375.722,-20.2967 384.971,-15.1274 374.517,-13.4012 375.722,-20.2967"/>
</g>
<!-- Node10&#45;&gt;Node5 -->
<g id="edge12" class="edge"><title>Node10&#45;&gt;Node5</title>
<path fill="none" stroke="midnightblue" d="M714.768,-112.425C684.031,-99.3029 622.856,-73.8835 569.589,-56 526.142,-41.4135 475.036,-27.7001 442.25,-19.3326"/>
<polygon fill="midnightblue" stroke="midnightblue" points="442.836,-15.8704 432.283,-16.8094 441.118,-22.6563 442.836,-15.8704"/>
</g>
<!-- Node10&#45;&gt;Node7 -->
<g id="edge11" class="edge"><title>Node10&#45;&gt;Node7</title>
<path fill="none" stroke="midnightblue" d="M703.532,-112.444C667.124,-102.413 607.104,-85.8766 570.381,-75.7591"/>
<polygon fill="midnightblue" stroke="midnightblue" points="571.251,-72.3684 560.68,-73.0865 569.391,-79.1169 571.251,-72.3684"/>
</g>
<!-- Node11&#45;&gt;Node5 -->
<g id="edge16" class="edge"><title>Node11&#45;&gt;Node5</title>
<path fill="none" stroke="midnightblue" d="M503.506,-112.368C486.283,-93.9744 445.735,-50.6712 423.619,-27.0519"/>
<polygon fill="midnightblue" stroke="midnightblue" points="426.023,-24.4987 416.633,-19.5914 420.914,-29.2832 426.023,-24.4987"/>
</g>
<!-- Node11&#45;&gt;Node6 -->
<g id="edge14" class="edge"><title>Node11&#45;&gt;Node6</title>
<path fill="none" stroke="midnightblue" d="M492.891,-112.444C473.644,-103.636 443.436,-89.8116 421.389,-79.722"/>
<polygon fill="midnightblue" stroke="midnightblue" points="422.748,-76.4951 412.199,-75.5164 419.835,-82.8603 422.748,-76.4951"/>
</g>
<!-- Node11&#45;&gt;Node7 -->
<g id="edge15" class="edge"><title>Node11&#45;&gt;Node7</title>
<path fill="none" stroke="midnightblue" d="M516.047,-112.083C519.743,-104.691 525.112,-93.9533 529.683,-84.8111"/>
<polygon fill="midnightblue" stroke="midnightblue" points="532.871,-86.2606 534.213,-75.7511 526.61,-83.1301 532.871,-86.2606"/>
</g>
<!-- Node12&#45;&gt;Node3 -->
<g id="edge19" class="edge"><title>Node12&#45;&gt;Node3</title>
<path fill="none" stroke="midnightblue" d="M88.7353,-112.083C90.458,-104.927 92.9357,-94.6353 95.0889,-85.6911"/>
<polygon fill="midnightblue" stroke="midnightblue" points="98.5441,-86.2925 97.4819,-75.7511 91.7385,-84.6541 98.5441,-86.2925"/>
</g>
<!-- Node12&#45;&gt;Node6 -->
<g id="edge20" class="edge"><title>Node12&#45;&gt;Node6</title>
<path fill="none" stroke="midnightblue" d="M135.234,-112.444C196.068,-101.743 298.992,-83.6392 354.803,-73.8222"/>
<polygon fill="midnightblue" stroke="midnightblue" points="355.741,-77.211 364.984,-72.0315 354.528,-70.3169 355.741,-77.211"/>
</g>
</g>
</svg>
        <g id="navigator" transform="translate(0 0)" fill="#404254">
                <rect fill="#f2f5e9" fill-opacity="0.5" stroke="#606060" stroke-width=".5" x="0" y="0" width="60" height="60"/>
                <use id="zoomplus" xlink:href="#zoomPlus" x="17" y="9" onmousedown="handleZoom(evt,'in')"/>
                <use id="zoomminus" xlink:href="#zoomMin" x="42" y="9" onmousedown="handleZoom(evt,'out')"/>
                <use id="reset" xlink:href="#resetDef" x="30" y="36" onmousedown="handleReset()"/>
                <g id="arrowUp" xlink:href="#dirArrow" transform="translate(30 24)" onmousedown="handlePan(0,-1)">
                  <use xlink:href="#rim" fill="#404040">
                        <set attributeName="fill" to="#808080" begin="arrowUp.mouseover" end="arrowUp.mouseout"/>
                  </use>
                  <path fill="none" stroke="white" stroke-width="1.5" d="M0,-3.0v7 M-2.5,-0.5L0,-3.0L2.5,-0.5"/>
                </g>
                <g id="arrowRight" xlink:href="#dirArrow" transform="rotate(90) translate(36 -43)" onmousedown="handlePan(1,0)">
                  <use xlink:href="#rim" fill="#404040">
                        <set attributeName="fill" to="#808080" begin="arrowRight.mouseover" end="arrowRight.mouseout"/>
                  </use>
                  <path fill="none" stroke="white" stroke-width="1.5" d="M0,-3.0v7 M-2.5,-0.5L0,-3.0L2.5,-0.5"/>
                </g>
                <g id="arrowDown" xlink:href="#dirArrow" transform="rotate(180) translate(-30 -48)" onmousedown="handlePan(0,1)">
                  <use xlink:href="#rim" fill="#404040">
                        <set attributeName="fill" to="#808080" begin="arrowDown.mouseover" end="arrowDown.mouseout"/>
                  </use>
                  <path fill="none" stroke="white" stroke-width="1.5" d="M0,-3.0v7 M-2.5,-0.5L0,-3.0L2.5,-0.5"/>
                </g>
                <g id="arrowLeft" xlink:href="#dirArrow" transform="rotate(270) translate(-36 17)" onmousedown="handlePan(-1,0)">
                  <use xlink:href="#rim" fill="#404040">
                        <set attributeName="fill" to="#808080" begin="arrowLeft.mouseover" end="arrowLeft.mouseout"/>
                  </use>
                  <path fill="none" stroke="white" stroke-width="1.5" d="M0,-3.0v7 M-2.5,-0.5L0,-3.0L2.5,-0.5"/>
                </g>
        </g>
        <svg viewBox="0 0 15 15" width="100%" height="30px" preserveAspectRatio="xMaxYMin meet">
         <g id="arrow_out" transform="scale(0.3 0.3)">
          <a xlink:href="_coder_block_information_8h__incl_org.svg" target="_base">
           <rect id="button" ry="5" rx="5" y="6" x="6" height="38" width="38"
                fill="#f2f5e9" fill-opacity="0.5" stroke="#606060" stroke-width="1.0"/>
           <path id="arrow"
             d="M 11.500037,31.436501 C 11.940474,20.09759 22.043105,11.32322 32.158766,21.979434 L 37.068811,17.246167 C 37.068811,17.246167 37.088388,32 37.088388,32 L 22.160133,31.978069 C 22.160133,31.978069 26.997745,27.140456 26.997745,27.140456 C 18.528582,18.264221 13.291696,25.230495 11.500037,31.436501 z"
             style="fill:#404040;"/>
          </a>
         </g>
        </svg>
</svg>
