<?xml version="1.0" encoding="UTF-8" standalone="no"?>
<!DOCTYPE svg PUBLIC "-//W3C//DTD SVG 1.1//EN"
 "http://www.w3.org/Graphics/SVG/1.1/DTD/svg11.dtd">
<!-- Generated by graphviz version 2.38.0 (20140413.2041)
 -->
<!-- Title: /home/travis/build/robotology/blockfactory/sources/SimulinkCoder/include/BlockFactory/SimulinkCoder/CoderBlockInformation.h Pages: 1 -->
<svg width="415pt" height="184pt"
 viewBox="0.00 0.00 414.78 184.00" xmlns="http://www.w3.org/2000/svg" xmlns:xlink="http://www.w3.org/1999/xlink">
<g id="graph0" class="graph" transform="scale(1 1) rotate(0) translate(4 180)">
<title>/home/travis/build/robotology/blockfactory/sources/SimulinkCoder/include/BlockFactory/SimulinkCoder/CoderBlockInformation.h</title>
<!-- Node1 -->
<g id="node1" class="node"><title>Node1</title>
<polygon fill="#bfbfbf" stroke="black" points="40.7795,-112.5 40.7795,-175.5 228.779,-175.5 228.779,-112.5 40.7795,-112.5"/>
<text text-anchor="start" x="48.7795" y="-163.5" font-family="Helvetica,sans-Serif" font-size="10.00">/home/travis/build</text>
<text text-anchor="start" x="48.7795" y="-152.5" font-family="Helvetica,sans-Serif" font-size="10.00">/robotology/blockfactory</text>
<text text-anchor="start" x="48.7795" y="-141.5" font-family="Helvetica,sans-Serif" font-size="10.00">/sources/SimulinkCoder</text>
<text text-anchor="start" x="48.7795" y="-130.5" font-family="Helvetica,sans-Serif" font-size="10.00">/include/BlockFactory/SimulinkCoder</text>
<text text-anchor="middle" x="134.779" y="-119.5" font-family="Helvetica,sans-Serif" font-size="10.00">/CoderBlockInformation.h</text>
</g>
<!-- Node2 -->
<g id="node2" class="node"><title>Node2</title>
<g id="a_node2"><a xlink:href="_block_information_8h.html" target="_top" xlink:title="BlockFactory/Core/BlockInformation.h">
<polygon fill="none" stroke="black" points="212.779,-56.5 212.779,-75.5 406.779,-75.5 406.779,-56.5 212.779,-56.5"/>
<text text-anchor="middle" x="309.779" y="-63.5" font-family="Helvetica,sans-Serif" font-size="10.00">BlockFactory/Core/BlockInformation.h</text>
</a>
</g>
</g>
<!-- Node1&#45;&gt;Node2 -->
<g id="edge1" class="edge"><title>Node1&#45;&gt;Node2</title>
<path fill="none" stroke="midnightblue" d="M205.202,-112.416C231.484,-101.003 259.904,-88.6601 280.475,-79.7267"/>
<polygon fill="midnightblue" stroke="midnightblue" points="282.12,-82.8279 289.898,-75.6341 279.332,-76.4072 282.12,-82.8279"/>
</g>
<!-- Node3 -->
<g id="node3" class="node"><title>Node3</title>
<polygon fill="none" stroke="#bfbfbf" points="56.2795,-0.5 56.2795,-19.5 113.279,-19.5 113.279,-0.5 56.2795,-0.5"/>
<text text-anchor="middle" x="84.7795" y="-7.5" font-family="Helvetica,sans-Serif" font-size="10.00">memory</text>
</g>
<!-- Node1&#45;&gt;Node3 -->
<g id="edge9" class="edge"><title>Node1&#45;&gt;Node3</title>
<path fill="none" stroke="midnightblue" d="M42.5849,-112.446C27.1338,-103.175 13.1109,-91.2536 3.77945,-76 -10.4028,-52.8169 20.1954,-34.4002 47.7586,-23.1739"/>
<polygon fill="midnightblue" stroke="midnightblue" points="49.2236,-26.3605 57.3031,-19.5068 46.7131,-19.8262 49.2236,-26.3605"/>
</g>
<!-- Node4 -->
<g id="node4" class="node"><title>Node4</title>
<polygon fill="none" stroke="#bfbfbf" points="164.779,-0.5 164.779,-19.5 208.779,-19.5 208.779,-0.5 164.779,-0.5"/>
<text text-anchor="middle" x="186.779" y="-7.5" font-family="Helvetica,sans-Serif" font-size="10.00">string</text>
</g>
<!-- Node1&#45;&gt;Node4 -->
<g id="edge10" class="edge"><title>Node1&#45;&gt;Node4</title>
<path fill="none" stroke="midnightblue" d="M149.287,-112.237C154.42,-100.941 160.081,-87.9839 164.779,-76 170.895,-60.4027 176.93,-42.3274 181.128,-29.2031"/>
<polygon fill="midnightblue" stroke="midnightblue" points="184.516,-30.0957 184.184,-19.5061 177.84,-27.992 184.516,-30.0957"/>
</g>
<!-- Node8 -->
<g id="node8" class="node"><title>Node8</title>
<g id="a_node8"><a xlink:href="_signal_8h.html" target="_top" xlink:title="BlockFactory/Core/Signal.h">
<polygon fill="none" stroke="black" points="13.2795,-56.5 13.2795,-75.5 156.279,-75.5 156.279,-56.5 13.2795,-56.5"/>
<text text-anchor="middle" x="84.7795" y="-63.5" font-family="Helvetica,sans-Serif" font-size="10.00">BlockFactory/Core/Signal.h</text>
</a>
</g>
</g>
<!-- Node1&#45;&gt;Node8 -->
<g id="edge7" class="edge"><title>Node1&#45;&gt;Node8</title>
<path fill="none" stroke="midnightblue" d="M114.443,-112.088C108.157,-102.533 101.463,-92.3585 96.0277,-84.0973"/>
<polygon fill="midnightblue" stroke="midnightblue" points="98.9353,-82.1487 90.5151,-75.7182 93.0873,-85.996 98.9353,-82.1487"/>
</g>
<!-- Node2&#45;&gt;Node3 -->
<g id="edge2" class="edge"><title>Node2&#45;&gt;Node3</title>
<path fill="none" stroke="midnightblue" d="M274.128,-56.4435C233.031,-46.5804 165.726,-30.4272 123.411,-20.2715"/>
<polygon fill="midnightblue" stroke="midnightblue" points="124.023,-16.8191 113.482,-17.8886 122.389,-23.6258 124.023,-16.8191"/>
</g>
<!-- Node2&#45;&gt;Node4 -->
<g id="edge3" class="edge"><title>Node2&#45;&gt;Node4</title>
<path fill="none" stroke="midnightblue" d="M290.29,-56.4435C270.137,-47.5961 238.457,-33.6875 215.449,-23.5865"/>
<polygon fill="midnightblue" stroke="midnightblue" points="216.741,-20.3316 206.178,-19.5164 213.927,-26.7411 216.741,-20.3316"/>
</g>
<!-- Node5 -->
<g id="node5" class="node"><title>Node5</title>
<polygon fill="none" stroke="#bfbfbf" points="229.279,-0.5 229.279,-19.5 270.279,-19.5 270.279,-0.5 229.279,-0.5"/>
<text text-anchor="middle" x="249.779" y="-7.5" font-family="Helvetica,sans-Serif" font-size="10.00">tuple</text>
</g>
<!-- Node2&#45;&gt;Node5 -->
<g id="edge4" class="edge"><title>Node2&#45;&gt;Node5</title>
<path fill="none" stroke="midnightblue" d="M300.139,-56.324C291.27,-48.3414 277.905,-36.3128 267.172,-26.6529"/>
<polygon fill="midnightblue" stroke="midnightblue" points="269.369,-23.922 259.595,-19.8339 264.686,-29.1251 269.369,-23.922"/>
</g>
<!-- Node6 -->
<g id="node6" class="node"><title>Node6</title>
<polygon fill="none" stroke="#bfbfbf" points="288.779,-0.5 288.779,-19.5 330.779,-19.5 330.779,-0.5 288.779,-0.5"/>
<text text-anchor="middle" x="309.779" y="-7.5" font-family="Helvetica,sans-Serif" font-size="10.00">utility</text>
</g>
<!-- Node2&#45;&gt;Node6 -->
<g id="edge5" class="edge"><title>Node2&#45;&gt;Node6</title>
<path fill="none" stroke="midnightblue" d="M309.779,-56.083C309.779,-49.0059 309.779,-38.8611 309.779,-29.9865"/>
<polygon fill="midnightblue" stroke="midnightblue" points="313.28,-29.751 309.779,-19.7511 306.28,-29.7511 313.28,-29.751"/>
</g>
<!-- Node7 -->
<g id="node7" class="node"><title>Node7</title>
<polygon fill="none" stroke="#bfbfbf" points="349.279,-0.5 349.279,-19.5 396.279,-19.5 396.279,-0.5 349.279,-0.5"/>
<text text-anchor="middle" x="372.779" y="-7.5" font-family="Helvetica,sans-Serif" font-size="10.00">vector</text>
</g>
<!-- Node2&#45;&gt;Node7 -->
<g id="edge6" class="edge"><title>Node2&#45;&gt;Node7</title>
<path fill="none" stroke="midnightblue" d="M319.901,-56.324C329.306,-48.2631 343.524,-36.0765 354.848,-26.3695"/>
<polygon fill="midnightblue" stroke="midnightblue" points="357.158,-28.9993 362.473,-19.8339 352.603,-23.6844 357.158,-28.9993"/>
</g>
<!-- Node8&#45;&gt;Node3 -->
<g id="edge8" class="edge"><title>Node8&#45;&gt;Node3</title>
<path fill="none" stroke="midnightblue" d="M84.7795,-56.083C84.7795,-49.0059 84.7795,-38.8611 84.7795,-29.9865"/>
<polygon fill="midnightblue" stroke="midnightblue" points="88.2795,-29.751 84.7795,-19.7511 81.2795,-29.7511 88.2795,-29.751"/>
</g>
</g>
</svg>
