<?xml version="1.0" encoding="UTF-8" standalone="no"?>
<!DOCTYPE svg PUBLIC "-//W3C//DTD SVG 1.1//EN"
 "http://www.w3.org/Graphics/SVG/1.1/DTD/svg11.dtd">
<!-- Generated by graphviz version 2.40.1 (20161225.0304)
 -->
<!-- Title: /root/blockfactory/sources/Coder/include/BlockFactory/Coder/CoderBlockInformation.h Pages: 1 -->
<svg width="398pt" height="173pt"
 viewBox="0.00 0.00 398.32 173.00" xmlns="http://www.w3.org/2000/svg" xmlns:xlink="http://www.w3.org/1999/xlink">
<g id="graph0" class="graph" transform="scale(1 1) rotate(0) translate(4 169)">
<title>/root/blockfactory/sources/Coder/include/BlockFactory/Coder/CoderBlockInformation.h</title>
<!-- Node0 -->
<g id="node1" class="node">
<title>Node0</title>
<polygon fill="#bfbfbf" stroke="#000000" points="49.3236,-112.5 49.3236,-164.5 210.3236,-164.5 210.3236,-112.5 49.3236,-112.5"/>
<text text-anchor="start" x="57.3236" y="-152.5" font-family="Helvetica,sans-Serif" font-size="10.00" fill="#000000">/root/blockfactory</text>
<text text-anchor="start" x="57.3236" y="-141.5" font-family="Helvetica,sans-Serif" font-size="10.00" fill="#000000">/sources/Coder/include</text>
<text text-anchor="start" x="57.3236" y="-130.5" font-family="Helvetica,sans-Serif" font-size="10.00" fill="#000000">/BlockFactory/Coder/CoderBlock</text>
<text text-anchor="middle" x="129.8236" y="-119.5" font-family="Helvetica,sans-Serif" font-size="10.00" fill="#000000">Information.h</text>
</g>
<!-- Node1 -->
<g id="node2" class="node">
<title>Node1</title>
<g id="a_node2"><a xlink:href="_block_information_8h.html" target="_top" xlink:title="BlockFactory/Core/BlockInformation.h">
<polygon fill="none" stroke="#000000" points="207.3236,-56.5 207.3236,-75.5 390.3236,-75.5 390.3236,-56.5 207.3236,-56.5"/>
<text text-anchor="middle" x="298.8236" y="-63.5" font-family="Helvetica,sans-Serif" font-size="10.00" fill="#000000">BlockFactory/Core/BlockInformation.h</text>
</a>
</g>
</g>
<!-- Node0&#45;&gt;Node1 -->
<g id="edge1" class="edge">
<title>Node0&#45;&gt;Node1</title>
<path fill="none" stroke="#191970" d="M190.8365,-112.3258C216.7453,-101.2111 245.8541,-88.7236 267.3158,-79.5167"/>
<polygon fill="#191970" stroke="#191970" points="268.7893,-82.6931 276.5995,-75.534 266.0296,-76.26 268.7893,-82.6931"/>
</g>
<!-- Node2 -->
<g id="node3" class="node">
<title>Node2</title>
<polygon fill="none" stroke="#bfbfbf" points="55.8236,-.5 55.8236,-19.5 107.8236,-19.5 107.8236,-.5 55.8236,-.5"/>
<text text-anchor="middle" x="81.8236" y="-7.5" font-family="Helvetica,sans-Serif" font-size="10.00" fill="#000000">memory</text>
</g>
<!-- Node0&#45;&gt;Node2 -->
<g id="edge9" class="edge">
<title>Node0&#45;&gt;Node2</title>
<path fill="none" stroke="#191970" d="M49.2781,-114.8795C31.3019,-105.696 14.4417,-93.1196 3.8236,-76 -10.353,-53.1431 19.6252,-34.2092 46.4274,-22.5692"/>
<polygon fill="#191970" stroke="#191970" points="47.7772,-25.7986 55.6977,-18.7618 45.1177,-19.3235 47.7772,-25.7986"/>
</g>
<!-- Node3 -->
<g id="node4" class="node">
<title>Node3</title>
<polygon fill="none" stroke="#bfbfbf" points="160.3236,-.5 160.3236,-19.5 201.3236,-19.5 201.3236,-.5 160.3236,-.5"/>
<text text-anchor="middle" x="180.8236" y="-7.5" font-family="Helvetica,sans-Serif" font-size="10.00" fill="#000000">string</text>
</g>
<!-- Node0&#45;&gt;Node3 -->
<g id="edge10" class="edge">
<title>Node0&#45;&gt;Node3</title>
<path fill="none" stroke="#191970" d="M143.3521,-112.4052C148.8274,-101.3347 154.9844,-88.1941 159.8236,-76 165.9222,-60.6324 171.5278,-42.7328 175.4106,-29.4546"/>
<polygon fill="#191970" stroke="#191970" points="178.86,-30.1214 178.24,-19.5448 172.129,-28.1996 178.86,-30.1214"/>
</g>
<!-- Node7 -->
<g id="node8" class="node">
<title>Node7</title>
<g id="a_node8"><a xlink:href="_signal_8h.html" target="_top" xlink:title="BlockFactory/Core/Signal.h">
<polygon fill="none" stroke="#000000" points="13.3236,-56.5 13.3236,-75.5 150.3236,-75.5 150.3236,-56.5 13.3236,-56.5"/>
<text text-anchor="middle" x="81.8236" y="-63.5" font-family="Helvetica,sans-Serif" font-size="10.00" fill="#000000">BlockFactory/Core/Signal.h</text>
</a>
</g>
</g>
<!-- Node0&#45;&gt;Node7 -->
<g id="edge7" class="edge">
<title>Node0&#45;&gt;Node7</title>
<path fill="none" stroke="#191970" d="M112.4945,-112.3258C106.2628,-102.9134 99.3793,-92.5164 93.715,-83.961"/>
<polygon fill="#191970" stroke="#191970" points="96.5746,-81.94 88.1358,-75.534 90.7379,-85.8043 96.5746,-81.94"/>
</g>
<!-- Node1&#45;&gt;Node2 -->
<g id="edge2" class="edge">
<title>Node1&#45;&gt;Node2</title>
<path fill="none" stroke="#191970" d="M261.52,-56.3733C221.2775,-45.9881 157.64,-29.5655 117.8864,-19.3065"/>
<polygon fill="#191970" stroke="#191970" points="118.6364,-15.8855 108.079,-16.7756 116.8872,-22.6634 118.6364,-15.8855"/>
</g>
<!-- Node1&#45;&gt;Node3 -->
<g id="edge3" class="edge">
<title>Node1&#45;&gt;Node3</title>
<path fill="none" stroke="#191970" d="M278.5387,-56.3733C259.6815,-47.4241 231.3776,-33.9917 210.0781,-23.8835"/>
<polygon fill="#191970" stroke="#191970" points="211.3787,-20.6266 200.8438,-19.5011 208.3775,-26.9506 211.3787,-20.6266"/>
</g>
<!-- Node4 -->
<g id="node5" class="node">
<title>Node4</title>
<polygon fill="none" stroke="#bfbfbf" points="222.8236,-.5 222.8236,-19.5 260.8236,-19.5 260.8236,-.5 222.8236,-.5"/>
<text text-anchor="middle" x="241.8236" y="-7.5" font-family="Helvetica,sans-Serif" font-size="10.00" fill="#000000">tuple</text>
</g>
<!-- Node1&#45;&gt;Node4 -->
<g id="edge4" class="edge">
<title>Node1&#45;&gt;Node4</title>
<path fill="none" stroke="#191970" d="M288.8949,-56.2455C280.6398,-48.1352 268.7027,-36.4075 258.9154,-26.7919"/>
<polygon fill="#191970" stroke="#191970" points="261.2247,-24.1542 251.6385,-19.6427 256.319,-29.1476 261.2247,-24.1542"/>
</g>
<!-- Node5 -->
<g id="node6" class="node">
<title>Node5</title>
<polygon fill="none" stroke="#bfbfbf" points="278.8236,-.5 278.8236,-19.5 318.8236,-19.5 318.8236,-.5 278.8236,-.5"/>
<text text-anchor="middle" x="298.8236" y="-7.5" font-family="Helvetica,sans-Serif" font-size="10.00" fill="#000000">utility</text>
</g>
<!-- Node1&#45;&gt;Node5 -->
<g id="edge5" class="edge">
<title>Node1&#45;&gt;Node5</title>
<path fill="none" stroke="#191970" d="M298.8236,-56.2455C298.8236,-48.9382 298.8236,-38.6944 298.8236,-29.7046"/>
<polygon fill="#191970" stroke="#191970" points="302.3237,-29.6426 298.8236,-19.6427 295.3237,-29.6427 302.3237,-29.6426"/>
</g>
<!-- Node6 -->
<g id="node7" class="node">
<title>Node6</title>
<polygon fill="none" stroke="#bfbfbf" points="336.8236,-.5 336.8236,-19.5 380.8236,-19.5 380.8236,-.5 336.8236,-.5"/>
<text text-anchor="middle" x="358.8236" y="-7.5" font-family="Helvetica,sans-Serif" font-size="10.00" fill="#000000">vector</text>
</g>
<!-- Node1&#45;&gt;Node6 -->
<g id="edge6" class="edge">
<title>Node1&#45;&gt;Node6</title>
<path fill="none" stroke="#191970" d="M309.2748,-56.2455C318.0505,-48.0549 330.779,-36.1749 341.1376,-26.5069"/>
<polygon fill="#191970" stroke="#191970" points="343.5697,-29.0246 348.4922,-19.6427 338.7934,-23.9072 343.5697,-29.0246"/>
</g>
<!-- Node7&#45;&gt;Node2 -->
<g id="edge8" class="edge">
<title>Node7&#45;&gt;Node2</title>
<path fill="none" stroke="#191970" d="M81.8236,-56.2455C81.8236,-48.9382 81.8236,-38.6944 81.8236,-29.7046"/>
<polygon fill="#191970" stroke="#191970" points="85.3237,-29.6426 81.8236,-19.6427 78.3237,-29.6427 85.3237,-29.6426"/>
</g>
</g>
</svg>
