<?xml version="1.0" encoding="UTF-8" standalone="no"?>
<!DOCTYPE svg PUBLIC "-//W3C//DTD SVG 1.1//EN"
 "http://www.w3.org/Graphics/SVG/1.1/DTD/svg11.dtd">
<!-- Generated by graphviz version 2.38.0 (20140413.2041)
 -->
<!-- Title: /home/travis/build/robotology/blockfactory/sources/Coder/include/BlockFactory/Coder/CoderBlockInformation.h Pages: 1 -->
<svg width="415pt" height="173pt"
 viewBox="0.00 0.00 414.94 173.00" xmlns="http://www.w3.org/2000/svg" xmlns:xlink="http://www.w3.org/1999/xlink">
<g id="graph0" class="graph" transform="scale(1 1) rotate(0) translate(4 169)">
<title>/home/travis/build/robotology/blockfactory/sources/Coder/include/BlockFactory/Coder/CoderBlockInformation.h</title>
<!-- Node1 -->
<g id="node1" class="node"><title>Node1</title>
<polygon fill="#bfbfbf" stroke="black" points="18.9426,-112.5 18.9426,-164.5 250.943,-164.5 250.943,-112.5 18.9426,-112.5"/>
<text text-anchor="start" x="26.9426" y="-152.5" font-family="Helvetica,sans-Serif" font-size="10.00">/home/travis/build</text>
<text text-anchor="start" x="26.9426" y="-141.5" font-family="Helvetica,sans-Serif" font-size="10.00">/robotology/blockfactory</text>
<text text-anchor="start" x="26.9426" y="-130.5" font-family="Helvetica,sans-Serif" font-size="10.00">/sources/Coder/include</text>
<text text-anchor="middle" x="134.943" y="-119.5" font-family="Helvetica,sans-Serif" font-size="10.00">/BlockFactory/Coder/CoderBlockInformation.h</text>
</g>
<!-- Node2 -->
<g id="node2" class="node"><title>Node2</title>
<g id="a_node2"><a xlink:href="_block_information_8h.html" target="_top" xlink:title="BlockFactory/Core/BlockInformation.h">
<polygon fill="none" stroke="black" points="212.943,-56.5 212.943,-75.5 406.943,-75.5 406.943,-56.5 212.943,-56.5"/>
<text text-anchor="middle" x="309.943" y="-63.5" font-family="Helvetica,sans-Serif" font-size="10.00">BlockFactory/Core/BlockInformation.h</text>
</a>
</g>
</g>
<!-- Node1&#45;&gt;Node2 -->
<g id="edge1" class="edge"><title>Node1&#45;&gt;Node2</title>
<path fill="none" stroke="midnightblue" d="M197.134,-112.446C225.032,-101.207 256.686,-88.4546 279.348,-79.3253"/>
<polygon fill="midnightblue" stroke="midnightblue" points="280.809,-82.5102 288.776,-75.527 278.193,-76.0173 280.809,-82.5102"/>
</g>
<!-- Node3 -->
<g id="node3" class="node"><title>Node3</title>
<polygon fill="none" stroke="#bfbfbf" points="56.4426,-0.5 56.4426,-19.5 113.443,-19.5 113.443,-0.5 56.4426,-0.5"/>
<text text-anchor="middle" x="84.9426" y="-7.5" font-family="Helvetica,sans-Serif" font-size="10.00">memory</text>
</g>
<!-- Node1&#45;&gt;Node3 -->
<g id="edge9" class="edge"><title>Node1&#45;&gt;Node3</title>
<path fill="none" stroke="midnightblue" d="M45.9035,-112.419C29.2686,-103.612 13.9792,-91.7995 3.94255,-76 -10.6732,-52.9921 20.2199,-34.4907 47.9701,-23.1969"/>
<polygon fill="midnightblue" stroke="midnightblue" points="49.4951,-26.3605 57.5749,-19.5071 46.9848,-19.826 49.4951,-26.3605"/>
</g>
<!-- Node4 -->
<g id="node4" class="node"><title>Node4</title>
<polygon fill="none" stroke="#bfbfbf" points="164.943,-0.5 164.943,-19.5 208.943,-19.5 208.943,-0.5 164.943,-0.5"/>
<text text-anchor="middle" x="186.943" y="-7.5" font-family="Helvetica,sans-Serif" font-size="10.00">string</text>
</g>
<!-- Node1&#45;&gt;Node4 -->
<g id="edge10" class="edge"><title>Node1&#45;&gt;Node4</title>
<path fill="none" stroke="midnightblue" d="M148.087,-112.398C153.622,-101.378 159.928,-88.1958 164.943,-76 171.314,-60.5052 177.324,-42.4199 181.447,-29.2655"/>
<polygon fill="midnightblue" stroke="midnightblue" points="184.843,-30.1277 184.433,-19.5408 178.152,-28.0728 184.843,-30.1277"/>
</g>
<!-- Node8 -->
<g id="node8" class="node"><title>Node8</title>
<g id="a_node8"><a xlink:href="_signal_8h.html" target="_top" xlink:title="BlockFactory/Core/Signal.h">
<polygon fill="none" stroke="black" points="13.4426,-56.5 13.4426,-75.5 156.443,-75.5 156.443,-56.5 13.4426,-56.5"/>
<text text-anchor="middle" x="84.9426" y="-63.5" font-family="Helvetica,sans-Serif" font-size="10.00">BlockFactory/Core/Signal.h</text>
</a>
</g>
</g>
<!-- Node1&#45;&gt;Node8 -->
<g id="edge7" class="edge"><title>Node1&#45;&gt;Node8</title>
<path fill="none" stroke="midnightblue" d="M117.174,-112.446C110.495,-103.029 103.063,-92.5496 97.02,-84.0293"/>
<polygon fill="midnightblue" stroke="midnightblue" points="99.7495,-81.8276 91.1096,-75.6955 94.0397,-85.8771 99.7495,-81.8276"/>
</g>
<!-- Node2&#45;&gt;Node3 -->
<g id="edge2" class="edge"><title>Node2&#45;&gt;Node3</title>
<path fill="none" stroke="midnightblue" d="M274.291,-56.4435C233.194,-46.5804 165.889,-30.4272 123.574,-20.2715"/>
<polygon fill="midnightblue" stroke="midnightblue" points="124.186,-16.8191 113.645,-17.8886 122.552,-23.6258 124.186,-16.8191"/>
</g>
<!-- Node2&#45;&gt;Node4 -->
<g id="edge3" class="edge"><title>Node2&#45;&gt;Node4</title>
<path fill="none" stroke="midnightblue" d="M290.453,-56.4435C270.3,-47.5961 238.62,-33.6875 215.612,-23.5865"/>
<polygon fill="midnightblue" stroke="midnightblue" points="216.905,-20.3316 206.341,-19.5164 214.091,-26.7411 216.905,-20.3316"/>
</g>
<!-- Node5 -->
<g id="node5" class="node"><title>Node5</title>
<polygon fill="none" stroke="#bfbfbf" points="229.443,-0.5 229.443,-19.5 270.443,-19.5 270.443,-0.5 229.443,-0.5"/>
<text text-anchor="middle" x="249.943" y="-7.5" font-family="Helvetica,sans-Serif" font-size="10.00">tuple</text>
</g>
<!-- Node2&#45;&gt;Node5 -->
<g id="edge4" class="edge"><title>Node2&#45;&gt;Node5</title>
<path fill="none" stroke="midnightblue" d="M300.303,-56.324C291.433,-48.3414 278.068,-36.3128 267.335,-26.6529"/>
<polygon fill="midnightblue" stroke="midnightblue" points="269.532,-23.922 259.758,-19.8339 264.85,-29.1251 269.532,-23.922"/>
</g>
<!-- Node6 -->
<g id="node6" class="node"><title>Node6</title>
<polygon fill="none" stroke="#bfbfbf" points="288.943,-0.5 288.943,-19.5 330.943,-19.5 330.943,-0.5 288.943,-0.5"/>
<text text-anchor="middle" x="309.943" y="-7.5" font-family="Helvetica,sans-Serif" font-size="10.00">utility</text>
</g>
<!-- Node2&#45;&gt;Node6 -->
<g id="edge5" class="edge"><title>Node2&#45;&gt;Node6</title>
<path fill="none" stroke="midnightblue" d="M309.943,-56.083C309.943,-49.0059 309.943,-38.8611 309.943,-29.9865"/>
<polygon fill="midnightblue" stroke="midnightblue" points="313.443,-29.751 309.943,-19.7511 306.443,-29.7511 313.443,-29.751"/>
</g>
<!-- Node7 -->
<g id="node7" class="node"><title>Node7</title>
<polygon fill="none" stroke="#bfbfbf" points="349.443,-0.5 349.443,-19.5 396.443,-19.5 396.443,-0.5 349.443,-0.5"/>
<text text-anchor="middle" x="372.943" y="-7.5" font-family="Helvetica,sans-Serif" font-size="10.00">vector</text>
</g>
<!-- Node2&#45;&gt;Node7 -->
<g id="edge6" class="edge"><title>Node2&#45;&gt;Node7</title>
<path fill="none" stroke="midnightblue" d="M320.065,-56.324C329.469,-48.2631 343.687,-36.0765 355.012,-26.3695"/>
<polygon fill="midnightblue" stroke="midnightblue" points="357.322,-28.9993 362.636,-19.8339 352.766,-23.6844 357.322,-28.9993"/>
</g>
<!-- Node8&#45;&gt;Node3 -->
<g id="edge8" class="edge"><title>Node8&#45;&gt;Node3</title>
<path fill="none" stroke="midnightblue" d="M84.9426,-56.083C84.9426,-49.0059 84.9426,-38.8611 84.9426,-29.9865"/>
<polygon fill="midnightblue" stroke="midnightblue" points="88.4426,-29.751 84.9426,-19.7511 81.4426,-29.7511 88.4426,-29.751"/>
</g>
</g>
</svg>
