<?xml version="1.0" encoding="UTF-8" standalone="no"?>
<!DOCTYPE svg PUBLIC "-//W3C//DTD SVG 1.1//EN"
 "http://www.w3.org/Graphics/SVG/1.1/DTD/svg11.dtd">
<!-- Generated by graphviz version 2.40.1 (20161225.0304)
 -->
<!-- Title: /root/blockfactory/sources/Core/include/BlockFactory/Core/ConvertStdVector.h Pages: 1 -->
<svg width="162pt" height="117pt"
 viewBox="0.00 0.00 162.00 117.00" xmlns="http://www.w3.org/2000/svg" xmlns:xlink="http://www.w3.org/1999/xlink">
<g id="graph0" class="graph" transform="scale(1 1) rotate(0) translate(4 113)">
<title>/root/blockfactory/sources/Core/include/BlockFactory/Core/ConvertStdVector.h</title>
<!-- Node0 -->
<g id="node1" class="node">
<title>Node0</title>
<polygon fill="#bfbfbf" stroke="#000000" points="0,-56.5 0,-108.5 154,-108.5 154,-56.5 0,-56.5"/>
<text text-anchor="start" x="8" y="-96.5" font-family="Helvetica,sans-Serif" font-size="10.00" fill="#000000">/root/blockfactory</text>
<text text-anchor="start" x="8" y="-85.5" font-family="Helvetica,sans-Serif" font-size="10.00" fill="#000000">/sources/Core/include</text>
<text text-anchor="start" x="8" y="-74.5" font-family="Helvetica,sans-Serif" font-size="10.00" fill="#000000">/BlockFactory/Core/ConvertStd</text>
<text text-anchor="middle" x="77" y="-63.5" font-family="Helvetica,sans-Serif" font-size="10.00" fill="#000000">Vector.h</text>
</g>
<!-- Node1 -->
<g id="node2" class="node">
<title>Node1</title>
<polygon fill="none" stroke="#bfbfbf" points="26.5,-.5 26.5,-19.5 67.5,-19.5 67.5,-.5 26.5,-.5"/>
<text text-anchor="middle" x="47" y="-7.5" font-family="Helvetica,sans-Serif" font-size="10.00" fill="#000000">string</text>
</g>
<!-- Node0&#45;&gt;Node1 -->
<g id="edge1" class="edge">
<title>Node0&#45;&gt;Node1</title>
<path fill="none" stroke="#191970" d="M66.1693,-56.3258C62.3988,-47.2138 58.2465,-37.179 54.7734,-28.7857"/>
<polygon fill="#191970" stroke="#191970" points="58.0027,-27.4359 50.9451,-19.534 51.5346,-30.1124 58.0027,-27.4359"/>
</g>
<!-- Node2 -->
<g id="node3" class="node">
<title>Node2</title>
<polygon fill="none" stroke="#bfbfbf" points="86,-.5 86,-19.5 130,-19.5 130,-.5 86,-.5"/>
<text text-anchor="middle" x="108" y="-7.5" font-family="Helvetica,sans-Serif" font-size="10.00" fill="#000000">vector</text>
</g>
<!-- Node0&#45;&gt;Node2 -->
<g id="edge2" class="edge">
<title>Node0&#45;&gt;Node2</title>
<path fill="none" stroke="#191970" d="M88.1917,-56.3258C92.0879,-47.2138 96.3786,-37.179 99.9675,-28.7857"/>
<polygon fill="#191970" stroke="#191970" points="103.21,-30.1048 103.9234,-19.534 96.7736,-27.3527 103.21,-30.1048"/>
</g>
</g>
</svg>
