<?xml version="1.0" encoding="UTF-8" standalone="no"?>
<!DOCTYPE svg PUBLIC "-//W3C//DTD SVG 1.1//EN"
 "http://www.w3.org/Graphics/SVG/1.1/DTD/svg11.dtd">
<!-- Generated by graphviz version 2.40.1 (20161225.0304)
 -->
<!-- Title: /root/blockfactory/sources/Core/include/BlockFactory/Core/FactorySingleton.h Pages: 1 -->
<svg width="477pt" height="162pt"
 viewBox="0.00 0.00 477.00 162.00" xmlns="http://www.w3.org/2000/svg" xmlns:xlink="http://www.w3.org/1999/xlink">
<g id="graph0" class="graph" transform="scale(1 1) rotate(0) translate(4 158)">
<title>/root/blockfactory/sources/Core/include/BlockFactory/Core/FactorySingleton.h</title>
<!-- Node0 -->
<g id="node1" class="node">
<title>Node0</title>
<polygon fill="#bfbfbf" stroke="#000000" points="84,-112.5 84,-153.5 270,-153.5 270,-112.5 84,-112.5"/>
<text text-anchor="start" x="92" y="-141.5" font-family="Helvetica,sans-Serif" font-size="10.00" fill="#000000">/root/blockfactory</text>
<text text-anchor="start" x="92" y="-130.5" font-family="Helvetica,sans-Serif" font-size="10.00" fill="#000000">/sources/Core/include</text>
<text text-anchor="middle" x="177" y="-119.5" font-family="Helvetica,sans-Serif" font-size="10.00" fill="#000000">/BlockFactory/Core/FactorySingleton.h</text>
</g>
<!-- Node1 -->
<g id="node2" class="node">
<title>Node1</title>
<g id="a_node2"><a xlink:href="_log_8h.html" target="_top" xlink:title="BlockFactory/Core/Log.h">
<polygon fill="none" stroke="#000000" points="44.5,-56.5 44.5,-75.5 169.5,-75.5 169.5,-56.5 44.5,-56.5"/>
<text text-anchor="middle" x="107" y="-63.5" font-family="Helvetica,sans-Serif" font-size="10.00" fill="#000000">BlockFactory/Core/Log.h</text>
</a>
</g>
</g>
<!-- Node0&#45;&gt;Node1 -->
<g id="edge1" class="edge">
<title>Node0&#45;&gt;Node1</title>
<path fill="none" stroke="#191970" d="M155.2353,-112.168C145.4262,-102.7794 133.9907,-91.834 124.7167,-82.9574"/>
<polygon fill="#191970" stroke="#191970" points="126.8627,-80.1666 117.2184,-75.7805 122.0225,-85.2235 126.8627,-80.1666"/>
</g>
<!-- Node2 -->
<g id="node3" class="node">
<title>Node2</title>
<polygon fill="none" stroke="#bfbfbf" points="0,-.5 0,-19.5 52,-19.5 52,-.5 0,-.5"/>
<text text-anchor="middle" x="26" y="-7.5" font-family="Helvetica,sans-Serif" font-size="10.00" fill="#000000">memory</text>
</g>
<!-- Node0&#45;&gt;Node2 -->
<g id="edge7" class="edge">
<title>Node0&#45;&gt;Node2</title>
<path fill="none" stroke="#191970" d="M84.9948,-112.349C65.9015,-104.014 47.7417,-92.3398 35,-76 24.8997,-63.0476 23.2366,-44.1517 23.7576,-29.8943"/>
<polygon fill="#191970" stroke="#191970" points="27.2676,-29.8902 24.5242,-19.6567 20.2871,-29.3674 27.2676,-29.8902"/>
</g>
<!-- Node5 -->
<g id="node6" class="node">
<title>Node5</title>
<polygon fill="none" stroke="#bfbfbf" points="187.5,-56.5 187.5,-75.5 306.5,-75.5 306.5,-56.5 187.5,-56.5"/>
<text text-anchor="middle" x="247" y="-63.5" font-family="Helvetica,sans-Serif" font-size="10.00" fill="#000000">shlibpp/SharedLibrary.h</text>
</g>
<!-- Node0&#45;&gt;Node5 -->
<g id="edge5" class="edge">
<title>Node0&#45;&gt;Node5</title>
<path fill="none" stroke="#191970" d="M198.7647,-112.168C208.5738,-102.7794 220.0093,-91.834 229.2833,-82.9574"/>
<polygon fill="#191970" stroke="#191970" points="231.9775,-85.2235 236.7816,-75.7805 227.1373,-80.1666 231.9775,-85.2235"/>
</g>
<!-- Node6 -->
<g id="node7" class="node">
<title>Node6</title>
<polygon fill="none" stroke="#bfbfbf" points="325,-56.5 325,-75.5 469,-75.5 469,-56.5 325,-56.5"/>
<text text-anchor="middle" x="397" y="-63.5" font-family="Helvetica,sans-Serif" font-size="10.00" fill="#000000">shlibpp/SharedLibraryClass.h</text>
</g>
<!-- Node0&#45;&gt;Node6 -->
<g id="edge6" class="edge">
<title>Node0&#45;&gt;Node6</title>
<path fill="none" stroke="#191970" d="M244.5024,-112.4425C280.974,-101.3352 324.811,-87.9848 356.1058,-78.4542"/>
<polygon fill="#191970" stroke="#191970" points="357.2539,-81.7633 365.8004,-75.5017 355.2145,-75.0669 357.2539,-81.7633"/>
</g>
<!-- Node1&#45;&gt;Node2 -->
<g id="edge2" class="edge">
<title>Node1&#45;&gt;Node2</title>
<path fill="none" stroke="#191970" d="M92.8909,-56.2455C80.5791,-47.7337 62.5042,-35.2375 48.2462,-25.3801"/>
<polygon fill="#191970" stroke="#191970" points="50.1634,-22.4506 39.9474,-19.6427 46.1826,-28.2085 50.1634,-22.4506"/>
</g>
<!-- Node3 -->
<g id="node4" class="node">
<title>Node3</title>
<polygon fill="none" stroke="#bfbfbf" points="75,-.5 75,-19.5 127,-19.5 127,-.5 75,-.5"/>
<text text-anchor="middle" x="101" y="-7.5" font-family="Helvetica,sans-Serif" font-size="10.00" fill="#000000">sstream</text>
</g>
<!-- Node1&#45;&gt;Node3 -->
<g id="edge3" class="edge">
<title>Node1&#45;&gt;Node3</title>
<path fill="none" stroke="#191970" d="M105.9549,-56.2455C105.172,-48.9382 104.0744,-38.6944 103.1112,-29.7046"/>
<polygon fill="#191970" stroke="#191970" points="106.5786,-29.2129 102.0331,-19.6427 99.6185,-29.9587 106.5786,-29.2129"/>
</g>
<!-- Node4 -->
<g id="node5" class="node">
<title>Node4</title>
<polygon fill="none" stroke="#bfbfbf" points="145.5,-.5 145.5,-19.5 186.5,-19.5 186.5,-.5 145.5,-.5"/>
<text text-anchor="middle" x="166" y="-7.5" font-family="Helvetica,sans-Serif" font-size="10.00" fill="#000000">string</text>
</g>
<!-- Node1&#45;&gt;Node4 -->
<g id="edge4" class="edge">
<title>Node1&#45;&gt;Node4</title>
<path fill="none" stroke="#191970" d="M117.277,-56.2455C125.8218,-48.1352 138.1778,-36.4075 148.3085,-26.7919"/>
<polygon fill="#191970" stroke="#191970" points="150.9972,-29.0655 155.8408,-19.6427 146.1782,-23.9884 150.9972,-29.0655"/>
</g>
</g>
</svg>
