<?xml version="1.0" encoding="UTF-8" standalone="no"?>
<!DOCTYPE svg PUBLIC "-//W3C//DTD SVG 1.1//EN"
 "http://www.w3.org/Graphics/SVG/1.1/DTD/svg11.dtd">
<!-- Generated by graphviz version 2.40.1 (20161225.0304)
 -->
<!-- Title: /root/blockfactory/sources/Coder/include/BlockFactory/Coder/GeneratedCodeWrapper.h Pages: 1 -->
<svg width="192pt" height="117pt"
 viewBox="0.00 0.00 191.50 117.00" xmlns="http://www.w3.org/2000/svg" xmlns:xlink="http://www.w3.org/1999/xlink">
<g id="graph0" class="graph" transform="scale(1 1) rotate(0) translate(4 113)">
<title>/root/blockfactory/sources/Coder/include/BlockFactory/Coder/GeneratedCodeWrapper.h</title>
<!-- Node0 -->
<g id="node1" class="node">
<title>Node0</title>
<polygon fill="#bfbfbf" stroke="#000000" points="20.5,-56.5 20.5,-108.5 175.5,-108.5 175.5,-56.5 20.5,-56.5"/>
<text text-anchor="start" x="28.5" y="-96.5" font-family="Helvetica,sans-Serif" font-size="10.00" fill="#000000">/root/blockfactory</text>
<text text-anchor="start" x="28.5" y="-85.5" font-family="Helvetica,sans-Serif" font-size="10.00" fill="#000000">/sources/Coder/include</text>
<text text-anchor="start" x="28.5" y="-74.5" font-family="Helvetica,sans-Serif" font-size="10.00" fill="#000000">/BlockFactory/Coder/Generated</text>
<text text-anchor="middle" x="98" y="-63.5" font-family="Helvetica,sans-Serif" font-size="10.00" fill="#000000">CodeWrapper.h</text>
</g>
<!-- Node1 -->
<g id="node2" class="node">
<title>Node1</title>
<polygon fill="none" stroke="#bfbfbf" points="0,-.5 0,-19.5 54,-19.5 54,-.5 0,-.5"/>
<text text-anchor="middle" x="27" y="-7.5" font-family="Helvetica,sans-Serif" font-size="10.00" fill="#000000">iostream</text>
</g>
<!-- Node0&#45;&gt;Node1 -->
<g id="edge1" class="edge">
<title>Node0&#45;&gt;Node1</title>
<path fill="none" stroke="#191970" d="M72.3674,-56.3258C62.7574,-46.5128 52.0995,-35.6298 43.5298,-26.879"/>
<polygon fill="#191970" stroke="#191970" points="45.8342,-24.2297 36.3367,-19.534 40.8329,-29.1275 45.8342,-24.2297"/>
</g>
<!-- Node2 -->
<g id="node3" class="node">
<title>Node2</title>
<polygon fill="none" stroke="#bfbfbf" points="72,-.5 72,-19.5 124,-19.5 124,-.5 72,-.5"/>
<text text-anchor="middle" x="98" y="-7.5" font-family="Helvetica,sans-Serif" font-size="10.00" fill="#000000">memory</text>
</g>
<!-- Node0&#45;&gt;Node2 -->
<g id="edge2" class="edge">
<title>Node0&#45;&gt;Node2</title>
<path fill="none" stroke="#191970" d="M98,-56.3258C98,-47.5142 98,-37.8397 98,-29.621"/>
<polygon fill="#191970" stroke="#191970" points="101.5001,-29.534 98,-19.534 94.5001,-29.534 101.5001,-29.534"/>
</g>
<!-- Node3 -->
<g id="node4" class="node">
<title>Node3</title>
<polygon fill="none" stroke="#bfbfbf" points="142.5,-.5 142.5,-19.5 183.5,-19.5 183.5,-.5 142.5,-.5"/>
<text text-anchor="middle" x="163" y="-7.5" font-family="Helvetica,sans-Serif" font-size="10.00" fill="#000000">string</text>
</g>
<!-- Node0&#45;&gt;Node3 -->
<g id="edge3" class="edge">
<title>Node0&#45;&gt;Node3</title>
<path fill="none" stroke="#191970" d="M121.4665,-56.3258C130.1746,-46.613 139.8226,-35.8518 147.6263,-27.1476"/>
<polygon fill="#191970" stroke="#191970" points="150.3828,-29.3161 154.4523,-19.534 145.1708,-24.6433 150.3828,-29.3161"/>
</g>
</g>
</svg>
