<?xml version="1.0" encoding="UTF-8" standalone="no"?>
<!DOCTYPE svg PUBLIC "-//W3C//DTD SVG 1.1//EN"
 "http://www.w3.org/Graphics/SVG/1.1/DTD/svg11.dtd">
<!-- Generated by graphviz version 2.38.0 (20140413.2041)
 -->
<!-- Title: /home/travis/build/robotology/blockfactory/sources/Core/include/BlockFactory/Core/Port.h Pages: 1 -->
<!--zoomable 250 -->
<svg id="main" version="1.1" xmlns="http://www.w3.org/2000/svg" xmlns:xlink="http://www.w3.org/1999/xlink" xml:space="preserve" onload="init(evt)">
<style type="text/css"><![CDATA[
.edge:hover path { stroke: red; }
.edge:hover polygon { stroke: red; fill: red; }
]]></style>
<script type="text/javascript"><![CDATA[
var edges = document.getElementsByTagName('g');
if (edges && edges.length) {
  for (var i=0;i<edges.length;i++) {
    if (edges[i].id.substr(0,4)=='edge') {
      edges[i].setAttribute('class','edge');
    }
  }
}
]]></script>
        <defs>
                <circle id="rim" cx="0" cy="0" r="7"/>
                <circle id="rim2" cx="0" cy="0" r="3.5"/>
                <g id="zoomPlus">
                        <use xlink:href="#rim" fill="#404040">
                                <set attributeName="fill" to="#808080" begin="zoomplus.mouseover" end="zoomplus.mouseout"/>
                        </use>
                        <path d="M-4,0h8M0,-4v8" fill="none" stroke="white" stroke-width="1.5" pointer-events="none"/>
                </g>
                <g id="zoomMin">
                        <use xlink:href="#rim" fill="#404040">
                                <set attributeName="fill" to="#808080" begin="zoomminus.mouseover" end="zoomminus.mouseout"/>
                        </use>
                        <path d="M-4,0h8" fill="none" stroke="white" stroke-width="1.5" pointer-events="none"/>
                </g>
                <g id="dirArrow">
                        <path fill="none" stroke="white" stroke-width="1.5" d="M0,-3.0v7 M-2.5,-0.5L0,-3.0L2.5,-0.5"/>
                </g>
               <g id="resetDef">
                       <use xlink:href="#rim2" fill="#404040">
                               <set attributeName="fill" to="#808080" begin="reset.mouseover" end="reset.mouseout"/>
                       </use>
               </g>
        </defs>

<script type="text/javascript">
var viewWidth = 599;
var viewHeight = 250;
var sectionId = 'dynsection-1';
</script>
<script xlink:href="svgpan.js"/>
<svg id="graph" class="graph">
<g id="viewport">
<title>/home/travis/build/robotology/blockfactory/sources/Core/include/BlockFactory/Core/Port.h</title>
<!-- Node1 -->
<g id="node1" class="node"><title>Node1</title>
<polygon fill="#bfbfbf" stroke="black" points="118.461,-189.5 118.461,-241.5 300.461,-241.5 300.461,-189.5 118.461,-189.5"/>
<text text-anchor="start" x="126.461" y="-229.5" font-family="Helvetica,sans-Serif" font-size="10.00">/home/travis/build</text>
<text text-anchor="start" x="126.461" y="-218.5" font-family="Helvetica,sans-Serif" font-size="10.00">/robotology/blockfactory</text>
<text text-anchor="start" x="126.461" y="-207.5" font-family="Helvetica,sans-Serif" font-size="10.00">/sources/Core/include/BlockFactory</text>
<text text-anchor="middle" x="209.461" y="-196.5" font-family="Helvetica,sans-Serif" font-size="10.00">/Core/Port.h</text>
</g>
<!-- Node2 -->
<g id="node2" class="node"><title>Node2</title>
<g id="a_node2"><a xlink:href="_block_information_8h.html" target="_top" xlink:title="/home/travis/build\l/robotology/blockfactory\l/sources/Core/include/BlockFactory\l/Core/BlockInformation.h">
<polygon fill="none" stroke="black" points="218.461,-100.5 218.461,-152.5 400.461,-152.5 400.461,-100.5 218.461,-100.5"/>
<text text-anchor="start" x="226.461" y="-140.5" font-family="Helvetica,sans-Serif" font-size="10.00">/home/travis/build</text>
<text text-anchor="start" x="226.461" y="-129.5" font-family="Helvetica,sans-Serif" font-size="10.00">/robotology/blockfactory</text>
<text text-anchor="start" x="226.461" y="-118.5" font-family="Helvetica,sans-Serif" font-size="10.00">/sources/Core/include/BlockFactory</text>
<text text-anchor="middle" x="309.461" y="-107.5" font-family="Helvetica,sans-Serif" font-size="10.00">/Core/BlockInformation.h</text>
</a>
</g>
</g>
<!-- Node1&#45;&gt;Node2 -->
<g id="edge1" class="edge"><title>Node1&#45;&gt;Node2</title>
<path fill="none" stroke="midnightblue" d="M246.072,-182.649C257.451,-172.749 269.829,-161.98 280.602,-152.607"/>
<polygon fill="midnightblue" stroke="midnightblue" points="243.633,-180.132 238.386,-189.336 248.227,-185.413 243.633,-180.132"/>
</g>
<!-- Node4 -->
<g id="node4" class="node"><title>Node4</title>
<g id="a_node4"><a xlink:href="_simulink_block_information_8h.html" target="_top" xlink:title="/home/travis/build\l/robotology/blockfactory\l/sources/Simulink/include\l/BlockFactory/Simulink/SimulinkBlock\lInformation.h">
<polygon fill="none" stroke="black" points="5.46147,-0.5 5.46147,-63.5 197.461,-63.5 197.461,-0.5 5.46147,-0.5"/>
<text text-anchor="start" x="13.4615" y="-51.5" font-family="Helvetica,sans-Serif" font-size="10.00">/home/travis/build</text>
<text text-anchor="start" x="13.4615" y="-40.5" font-family="Helvetica,sans-Serif" font-size="10.00">/robotology/blockfactory</text>
<text text-anchor="start" x="13.4615" y="-29.5" font-family="Helvetica,sans-Serif" font-size="10.00">/sources/Simulink/include</text>
<text text-anchor="start" x="13.4615" y="-18.5" font-family="Helvetica,sans-Serif" font-size="10.00">/BlockFactory/Simulink/SimulinkBlock</text>
<text text-anchor="middle" x="101.461" y="-7.5" font-family="Helvetica,sans-Serif" font-size="10.00">Information.h</text>
</a>
</g>
</g>
<!-- Node1&#45;&gt;Node4 -->
<g id="edge8" class="edge"><title>Node1&#45;&gt;Node4</title>
<path fill="none" stroke="midnightblue" d="M108.485,-208.011C71.2444,-200.121 32.5445,-184.248 9.46147,-153 -4.5346,-134.053 -1.22074,-120.994 9.46147,-100 16.809,-85.5595 28.8888,-73.4958 41.9153,-63.7677"/>
<polygon fill="midnightblue" stroke="midnightblue" points="107.938,-211.47 118.422,-209.941 109.272,-204.599 107.938,-211.47"/>
</g>
<!-- Node5 -->
<g id="node5" class="node"><title>Node5</title>
<g id="a_node5"><a xlink:href="_coder_block_information_8h.html" target="_top" xlink:title="/home/travis/build\l/robotology/blockfactory\l/sources/SimulinkCoder\l/include/BlockFactory/SimulinkCoder\l/CoderBlockInformation.h">
<polygon fill="none" stroke="black" points="215.461,-0.5 215.461,-63.5 403.461,-63.5 403.461,-0.5 215.461,-0.5"/>
<text text-anchor="start" x="223.461" y="-51.5" font-family="Helvetica,sans-Serif" font-size="10.00">/home/travis/build</text>
<text text-anchor="start" x="223.461" y="-40.5" font-family="Helvetica,sans-Serif" font-size="10.00">/robotology/blockfactory</text>
<text text-anchor="start" x="223.461" y="-29.5" font-family="Helvetica,sans-Serif" font-size="10.00">/sources/SimulinkCoder</text>
<text text-anchor="start" x="223.461" y="-18.5" font-family="Helvetica,sans-Serif" font-size="10.00">/include/BlockFactory/SimulinkCoder</text>
<text text-anchor="middle" x="309.461" y="-7.5" font-family="Helvetica,sans-Serif" font-size="10.00">/CoderBlockInformation.h</text>
</a>
</g>
</g>
<!-- Node1&#45;&gt;Node5 -->
<g id="edge9" class="edge"><title>Node1&#45;&gt;Node5</title>
<path fill="none" stroke="midnightblue" d="M310.438,-208.011C347.679,-200.121 386.378,-184.248 409.461,-153 423.458,-134.053 420.552,-120.781 409.461,-100 401.59,-85.251 388.872,-73.1772 375.106,-63.5468"/>
<polygon fill="midnightblue" stroke="midnightblue" points="309.651,-204.599 300.501,-209.941 310.985,-211.47 309.651,-204.599"/>
</g>
<!-- Node6 -->
<g id="node6" class="node"><title>Node6</title>
<g id="a_node6"><a xlink:href="_signal_8h.html" target="_top" xlink:title="/home/travis/build\l/robotology/blockfactory\l/sources/Core/include/BlockFactory\l/Core/Signal.h">
<polygon fill="none" stroke="black" points="18.4615,-100.5 18.4615,-152.5 200.461,-152.5 200.461,-100.5 18.4615,-100.5"/>
<text text-anchor="start" x="26.4615" y="-140.5" font-family="Helvetica,sans-Serif" font-size="10.00">/home/travis/build</text>
<text text-anchor="start" x="26.4615" y="-129.5" font-family="Helvetica,sans-Serif" font-size="10.00">/robotology/blockfactory</text>
<text text-anchor="start" x="26.4615" y="-118.5" font-family="Helvetica,sans-Serif" font-size="10.00">/sources/Core/include/BlockFactory</text>
<text text-anchor="middle" x="109.461" y="-107.5" font-family="Helvetica,sans-Serif" font-size="10.00">/Core/Signal.h</text>
</a>
</g>
</g>
<!-- Node1&#45;&gt;Node6 -->
<g id="edge5" class="edge"><title>Node1&#45;&gt;Node6</title>
<path fill="none" stroke="midnightblue" d="M172.851,-182.649C161.472,-172.749 149.094,-161.98 138.321,-152.607"/>
<polygon fill="midnightblue" stroke="midnightblue" points="170.696,-185.413 180.537,-189.336 175.29,-180.132 170.696,-185.413"/>
</g>
<!-- Node3 -->
<g id="node3" class="node"><title>Node3</title>
<g id="a_node3"><a xlink:href="_simulink_block_information_impl_8h.html" target="_top" xlink:title="/home/travis/build\l/robotology/blockfactory\l/sources/Simulink/include\l/BlockFactory/Simulink/Private\l/SimulinkBlockInformationImpl.h">
<polygon fill="none" stroke="black" points="421.461,-0.5 421.461,-63.5 591.461,-63.5 591.461,-0.5 421.461,-0.5"/>
<text text-anchor="start" x="429.461" y="-51.5" font-family="Helvetica,sans-Serif" font-size="10.00">/home/travis/build</text>
<text text-anchor="start" x="429.461" y="-40.5" font-family="Helvetica,sans-Serif" font-size="10.00">/robotology/blockfactory</text>
<text text-anchor="start" x="429.461" y="-29.5" font-family="Helvetica,sans-Serif" font-size="10.00">/sources/Simulink/include</text>
<text text-anchor="start" x="429.461" y="-18.5" font-family="Helvetica,sans-Serif" font-size="10.00">/BlockFactory/Simulink/Private</text>
<text text-anchor="middle" x="506.461" y="-7.5" font-family="Helvetica,sans-Serif" font-size="10.00">/SimulinkBlockInformationImpl.h</text>
</a>
</g>
</g>
<!-- Node2&#45;&gt;Node3 -->
<g id="edge2" class="edge"><title>Node2&#45;&gt;Node3</title>
<path fill="none" stroke="midnightblue" d="M372.033,-96.12C394.074,-85.7706 418.897,-74.1152 441.158,-63.6626"/>
<polygon fill="midnightblue" stroke="midnightblue" points="370.337,-93.0497 362.773,-100.468 373.312,-99.386 370.337,-93.0497"/>
</g>
<!-- Node2&#45;&gt;Node4 -->
<g id="edge3" class="edge"><title>Node2&#45;&gt;Node4</title>
<path fill="none" stroke="midnightblue" d="M244.019,-96.3969C220.592,-85.9788 194.125,-74.2085 170.411,-63.6626"/>
<polygon fill="midnightblue" stroke="midnightblue" points="242.614,-99.6027 253.174,-100.468 245.459,-93.2067 242.614,-99.6027"/>
</g>
<!-- Node2&#45;&gt;Node5 -->
<g id="edge4" class="edge"><title>Node2&#45;&gt;Node5</title>
<path fill="none" stroke="midnightblue" d="M309.461,-89.9446C309.461,-81.2257 309.461,-71.9703 309.461,-63.5122"/>
<polygon fill="midnightblue" stroke="midnightblue" points="305.962,-90.2239 309.461,-100.224 312.962,-90.224 305.962,-90.2239"/>
</g>
<!-- Node6&#45;&gt;Node4 -->
<g id="edge6" class="edge"><title>Node6&#45;&gt;Node4</title>
<path fill="none" stroke="midnightblue" d="M106.411,-90.2318C105.65,-81.4292 104.84,-72.0633 104.1,-63.5122"/>
<polygon fill="midnightblue" stroke="midnightblue" points="102.927,-90.5628 107.275,-100.224 109.901,-89.9596 102.927,-90.5628"/>
</g>
<!-- Node6&#45;&gt;Node5 -->
<g id="edge7" class="edge"><title>Node6&#45;&gt;Node5</title>
<path fill="none" stroke="midnightblue" d="M172.686,-96.2585C195.138,-85.8747 220.463,-74.1618 243.164,-63.6626"/>
<polygon fill="midnightblue" stroke="midnightblue" points="171.191,-93.0936 163.584,-100.468 174.13,-99.447 171.191,-93.0936"/>
</g>
</g>
</svg>
        <g id="navigator" transform="translate(0 0)" fill="#404254">
                <rect fill="#f2f5e9" fill-opacity="0.5" stroke="#606060" stroke-width=".5" x="0" y="0" width="60" height="60"/>
                <use id="zoomplus" xlink:href="#zoomPlus" x="17" y="9" onmousedown="handleZoom(evt,'in')"/>
                <use id="zoomminus" xlink:href="#zoomMin" x="42" y="9" onmousedown="handleZoom(evt,'out')"/>
                <use id="reset" xlink:href="#resetDef" x="30" y="36" onmousedown="handleReset()"/>
                <g id="arrowUp" xlink:href="#dirArrow" transform="translate(30 24)" onmousedown="handlePan(0,-1)">
                  <use xlink:href="#rim" fill="#404040">
                        <set attributeName="fill" to="#808080" begin="arrowUp.mouseover" end="arrowUp.mouseout"/>
                  </use>
                  <path fill="none" stroke="white" stroke-width="1.5" d="M0,-3.0v7 M-2.5,-0.5L0,-3.0L2.5,-0.5"/>
                </g>
                <g id="arrowRight" xlink:href="#dirArrow" transform="rotate(90) translate(36 -43)" onmousedown="handlePan(1,0)">
                  <use xlink:href="#rim" fill="#404040">
                        <set attributeName="fill" to="#808080" begin="arrowRight.mouseover" end="arrowRight.mouseout"/>
                  </use>
                  <path fill="none" stroke="white" stroke-width="1.5" d="M0,-3.0v7 M-2.5,-0.5L0,-3.0L2.5,-0.5"/>
                </g>
                <g id="arrowDown" xlink:href="#dirArrow" transform="rotate(180) translate(-30 -48)" onmousedown="handlePan(0,1)">
                  <use xlink:href="#rim" fill="#404040">
                        <set attributeName="fill" to="#808080" begin="arrowDown.mouseover" end="arrowDown.mouseout"/>
                  </use>
                  <path fill="none" stroke="white" stroke-width="1.5" d="M0,-3.0v7 M-2.5,-0.5L0,-3.0L2.5,-0.5"/>
                </g>
                <g id="arrowLeft" xlink:href="#dirArrow" transform="rotate(270) translate(-36 17)" onmousedown="handlePan(-1,0)">
                  <use xlink:href="#rim" fill="#404040">
                        <set attributeName="fill" to="#808080" begin="arrowLeft.mouseover" end="arrowLeft.mouseout"/>
                  </use>
                  <path fill="none" stroke="white" stroke-width="1.5" d="M0,-3.0v7 M-2.5,-0.5L0,-3.0L2.5,-0.5"/>
                </g>
        </g>
        <svg viewBox="0 0 15 15" width="100%" height="30px" preserveAspectRatio="xMaxYMin meet">
         <g id="arrow_out" transform="scale(0.3 0.3)">
          <a xlink:href="_port_8h__dep__incl_org.svg" target="_base">
           <rect id="button" ry="5" rx="5" y="6" x="6" height="38" width="38"
                fill="#f2f5e9" fill-opacity="0.5" stroke="#606060" stroke-width="1.0"/>
           <path id="arrow"
             d="M 11.500037,31.436501 C 11.940474,20.09759 22.043105,11.32322 32.158766,21.979434 L 37.068811,17.246167 C 37.068811,17.246167 37.088388,32 37.088388,32 L 22.160133,31.978069 C 22.160133,31.978069 26.997745,27.140456 26.997745,27.140456 C 18.528582,18.264221 13.291696,25.230495 11.500037,31.436501 z"
             style="fill:#404040;"/>
          </a>
         </g>
        </svg>
</svg>
