<?xml version="1.0" encoding="UTF-8" standalone="no"?>
<!DOCTYPE svg PUBLIC "-//W3C//DTD SVG 1.1//EN"
 "http://www.w3.org/Graphics/SVG/1.1/DTD/svg11.dtd">
<!-- Generated by graphviz version 2.38.0 (20140413.2041)
 -->
<!-- Title: /home/travis/build/robotology/blockfactory/sources/Mex/include/BlockFactory/Mex/Private/SimulinkBlockInformationImpl.h Pages: 1 -->
<svg width="496pt" height="173pt"
 viewBox="0.00 0.00 495.50 173.00" xmlns="http://www.w3.org/2000/svg" xmlns:xlink="http://www.w3.org/1999/xlink">
<g id="graph0" class="graph" transform="scale(1 1) rotate(0) translate(4 169)">
<title>/home/travis/build/robotology/blockfactory/sources/Mex/include/BlockFactory/Mex/Private/SimulinkBlockInformationImpl.h</title>
<!-- Node1 -->
<g id="node1" class="node"><title>Node1</title>
<polygon fill="#bfbfbf" stroke="black" points="167,-112.5 167,-164.5 395,-164.5 395,-112.5 167,-112.5"/>
<text text-anchor="start" x="175" y="-152.5" font-family="Helvetica,sans-Serif" font-size="10.00">/home/travis/build</text>
<text text-anchor="start" x="175" y="-141.5" font-family="Helvetica,sans-Serif" font-size="10.00">/robotology/blockfactory</text>
<text text-anchor="start" x="175" y="-130.5" font-family="Helvetica,sans-Serif" font-size="10.00">/sources/Mex/include/BlockFactory</text>
<text text-anchor="middle" x="281" y="-119.5" font-family="Helvetica,sans-Serif" font-size="10.00">/Mex/Private/SimulinkBlockInformationImpl.h</text>
</g>
<!-- Node2 -->
<g id="node2" class="node"><title>Node2</title>
<g id="a_node2"><a xlink:href="_block_information_8h.html" target="_top" xlink:title="BlockFactory/Core/BlockInformation.h">
<polygon fill="none" stroke="black" points="59,-56.5 59,-75.5 253,-75.5 253,-56.5 59,-56.5"/>
<text text-anchor="middle" x="156" y="-63.5" font-family="Helvetica,sans-Serif" font-size="10.00">BlockFactory/Core/BlockInformation.h</text>
</a>
</g>
</g>
<!-- Node1&#45;&gt;Node2 -->
<g id="edge1" class="edge"><title>Node1&#45;&gt;Node2</title>
<path fill="none" stroke="midnightblue" d="M236.578,-112.446C217.454,-101.66 195.861,-89.4814 179.844,-80.448"/>
<polygon fill="midnightblue" stroke="midnightblue" points="181.548,-77.391 171.119,-75.527 178.11,-83.4881 181.548,-77.391"/>
</g>
<!-- Node4 -->
<g id="node4" class="node"><title>Node4</title>
<polygon fill="none" stroke="#bfbfbf" points="0,-0.5 0,-19.5 44,-19.5 44,-0.5 0,-0.5"/>
<text text-anchor="middle" x="22" y="-7.5" font-family="Helvetica,sans-Serif" font-size="10.00">string</text>
</g>
<!-- Node1&#45;&gt;Node4 -->
<g id="edge9" class="edge"><title>Node1&#45;&gt;Node4</title>
<path fill="none" stroke="midnightblue" d="M166.766,-127.787C126.072,-119.343 82.3578,-103.932 50,-76 36.214,-64.0995 29.0055,-44.1902 25.3794,-29.5352"/>
<polygon fill="midnightblue" stroke="midnightblue" points="28.7636,-28.6226 23.2552,-19.5723 21.9175,-30.0823 28.7636,-28.6226"/>
</g>
<!-- Node7 -->
<g id="node7" class="node"><title>Node7</title>
<polygon fill="none" stroke="#bfbfbf" points="257.5,-0.5 257.5,-19.5 304.5,-19.5 304.5,-0.5 257.5,-0.5"/>
<text text-anchor="middle" x="281" y="-7.5" font-family="Helvetica,sans-Serif" font-size="10.00">vector</text>
</g>
<!-- Node1&#45;&gt;Node7 -->
<g id="edge10" class="edge"><title>Node1&#45;&gt;Node7</title>
<path fill="none" stroke="midnightblue" d="M281,-112.205C281,-87.8802 281,-51.6709 281,-29.8001"/>
<polygon fill="midnightblue" stroke="midnightblue" points="284.5,-29.5497 281,-19.5497 277.5,-29.5498 284.5,-29.5497"/>
</g>
<!-- Node8 -->
<g id="node8" class="node"><title>Node8</title>
<polygon fill="none" stroke="#bfbfbf" points="309.5,-56.5 309.5,-75.5 402.5,-75.5 402.5,-56.5 309.5,-56.5"/>
<text text-anchor="middle" x="356" y="-63.5" font-family="Helvetica,sans-Serif" font-size="10.00">mxpp/MxArray.h</text>
</g>
<!-- Node1&#45;&gt;Node8 -->
<g id="edge7" class="edge"><title>Node1&#45;&gt;Node8</title>
<path fill="none" stroke="midnightblue" d="M307.653,-112.446C318.204,-102.528 330.009,-91.4318 339.312,-82.6867"/>
<polygon fill="midnightblue" stroke="midnightblue" points="341.86,-85.0948 346.749,-75.6955 337.066,-79.9944 341.86,-85.0948"/>
</g>
<!-- Node9 -->
<g id="node9" class="node"><title>Node9</title>
<polygon fill="none" stroke="#bfbfbf" points="420.5,-56.5 420.5,-75.5 487.5,-75.5 487.5,-56.5 420.5,-56.5"/>
<text text-anchor="middle" x="454" y="-63.5" font-family="Helvetica,sans-Serif" font-size="10.00">simstruc.h</text>
</g>
<!-- Node1&#45;&gt;Node9 -->
<g id="edge8" class="edge"><title>Node1&#45;&gt;Node9</title>
<path fill="none" stroke="midnightblue" d="M342.48,-112.446C370.06,-101.207 401.353,-88.4546 423.755,-79.3253"/>
<polygon fill="midnightblue" stroke="midnightblue" points="425.136,-82.5421 433.076,-75.527 422.494,-76.0597 425.136,-82.5421"/>
</g>
<!-- Node3 -->
<g id="node3" class="node"><title>Node3</title>
<polygon fill="none" stroke="#bfbfbf" points="62.5,-0.5 62.5,-19.5 119.5,-19.5 119.5,-0.5 62.5,-0.5"/>
<text text-anchor="middle" x="91" y="-7.5" font-family="Helvetica,sans-Serif" font-size="10.00">memory</text>
</g>
<!-- Node2&#45;&gt;Node3 -->
<g id="edge2" class="edge"><title>Node2&#45;&gt;Node3</title>
<path fill="none" stroke="midnightblue" d="M145.557,-56.324C135.854,-48.2631 121.185,-36.0765 109.5,-26.3695"/>
<polygon fill="midnightblue" stroke="midnightblue" points="111.562,-23.532 101.633,-19.8339 107.089,-28.9163 111.562,-23.532"/>
</g>
<!-- Node2&#45;&gt;Node4 -->
<g id="edge3" class="edge"><title>Node2&#45;&gt;Node4</title>
<path fill="none" stroke="midnightblue" d="M134.767,-56.4435C112.616,-47.5171 77.6813,-33.4387 52.564,-23.3168"/>
<polygon fill="midnightblue" stroke="midnightblue" points="53.7168,-20.0079 43.1334,-19.5164 51.1003,-26.5006 53.7168,-20.0079"/>
</g>
<!-- Node5 -->
<g id="node5" class="node"><title>Node5</title>
<polygon fill="none" stroke="#bfbfbf" points="137.5,-0.5 137.5,-19.5 178.5,-19.5 178.5,-0.5 137.5,-0.5"/>
<text text-anchor="middle" x="158" y="-7.5" font-family="Helvetica,sans-Serif" font-size="10.00">tuple</text>
</g>
<!-- Node2&#45;&gt;Node5 -->
<g id="edge4" class="edge"><title>Node2&#45;&gt;Node5</title>
<path fill="none" stroke="midnightblue" d="M156.33,-56.083C156.592,-49.0059 156.968,-38.8611 157.297,-29.9865"/>
<polygon fill="midnightblue" stroke="midnightblue" points="160.803,-29.8738 157.676,-19.7511 153.808,-29.6147 160.803,-29.8738"/>
</g>
<!-- Node6 -->
<g id="node6" class="node"><title>Node6</title>
<polygon fill="none" stroke="#bfbfbf" points="197,-0.5 197,-19.5 239,-19.5 239,-0.5 197,-0.5"/>
<text text-anchor="middle" x="218" y="-7.5" font-family="Helvetica,sans-Serif" font-size="10.00">utility</text>
</g>
<!-- Node2&#45;&gt;Node6 -->
<g id="edge5" class="edge"><title>Node2&#45;&gt;Node6</title>
<path fill="none" stroke="midnightblue" d="M165.961,-56.324C175.127,-48.3414 188.937,-36.3128 200.028,-26.6529"/>
<polygon fill="midnightblue" stroke="midnightblue" points="202.615,-29.041 207.857,-19.8339 198.018,-23.7624 202.615,-29.041"/>
</g>
<!-- Node2&#45;&gt;Node7 -->
<g id="edge6" class="edge"><title>Node2&#45;&gt;Node7</title>
<path fill="none" stroke="midnightblue" d="M175.807,-56.4435C196.287,-47.5961 228.483,-33.6875 251.865,-23.5865"/>
<polygon fill="midnightblue" stroke="midnightblue" points="253.494,-26.6953 261.286,-19.5164 250.718,-20.2692 253.494,-26.6953"/>
</g>
</g>
</svg>
