<?xml version="1.0" encoding="UTF-8" standalone="no"?>
<!DOCTYPE svg PUBLIC "-//W3C//DTD SVG 1.1//EN"
 "http://www.w3.org/Graphics/SVG/1.1/DTD/svg11.dtd">
<!-- Generated by graphviz version 2.38.0 (20140413.2041)
 -->
<!-- Title: /home/travis/build/robotology/blockfactory/sources/Simulink/include/BlockFactory/Simulink/SimulinkBlockInformation.h Pages: 1 -->
<svg width="597pt" height="184pt"
 viewBox="0.00 0.00 597.31 184.00" xmlns="http://www.w3.org/2000/svg" xmlns:xlink="http://www.w3.org/1999/xlink">
<g id="graph0" class="graph" transform="scale(1 1) rotate(0) translate(4 180)">
<title>/home/travis/build/robotology/blockfactory/sources/Simulink/include/BlockFactory/Simulink/SimulinkBlockInformation.h</title>
<!-- Node1 -->
<g id="node1" class="node"><title>Node1</title>
<polygon fill="#bfbfbf" stroke="black" points="287.5,-112.5 287.5,-175.5 479.5,-175.5 479.5,-112.5 287.5,-112.5"/>
<text text-anchor="start" x="295.5" y="-163.5" font-family="Helvetica,sans-Serif" font-size="10.00">/home/travis/build</text>
<text text-anchor="start" x="295.5" y="-152.5" font-family="Helvetica,sans-Serif" font-size="10.00">/robotology/blockfactory</text>
<text text-anchor="start" x="295.5" y="-141.5" font-family="Helvetica,sans-Serif" font-size="10.00">/sources/Simulink/include</text>
<text text-anchor="start" x="295.5" y="-130.5" font-family="Helvetica,sans-Serif" font-size="10.00">/BlockFactory/Simulink/SimulinkBlock</text>
<text text-anchor="middle" x="383.5" y="-119.5" font-family="Helvetica,sans-Serif" font-size="10.00">Information.h</text>
</g>
<!-- Node2 -->
<g id="node2" class="node"><title>Node2</title>
<g id="a_node2"><a xlink:href="_block_information_8h.html" target="_top" xlink:title="BlockFactory/Core/BlockInformation.h">
<polygon fill="none" stroke="black" points="161.5,-56.5 161.5,-75.5 355.5,-75.5 355.5,-56.5 161.5,-56.5"/>
<text text-anchor="middle" x="258.5" y="-63.5" font-family="Helvetica,sans-Serif" font-size="10.00">BlockFactory/Core/BlockInformation.h</text>
</a>
</g>
</g>
<!-- Node1&#45;&gt;Node2 -->
<g id="edge1" class="edge"><title>Node1&#45;&gt;Node2</title>
<path fill="none" stroke="midnightblue" d="M333.018,-112.307C315.12,-101.425 295.856,-89.7127 281.399,-80.9228"/>
<polygon fill="midnightblue" stroke="midnightblue" points="283.019,-77.8113 272.656,-75.6067 279.382,-83.7925 283.019,-77.8113"/>
</g>
<!-- Node4 -->
<g id="node4" class="node"><title>Node4</title>
<polygon fill="none" stroke="#bfbfbf" points="361.5,-0.5 361.5,-19.5 405.5,-19.5 405.5,-0.5 361.5,-0.5"/>
<text text-anchor="middle" x="383.5" y="-7.5" font-family="Helvetica,sans-Serif" font-size="10.00">string</text>
</g>
<!-- Node1&#45;&gt;Node4 -->
<g id="edge12" class="edge"><title>Node1&#45;&gt;Node4</title>
<path fill="none" stroke="midnightblue" d="M383.5,-112.385C383.5,-86.8199 383.5,-51.1986 383.5,-29.6954"/>
<polygon fill="midnightblue" stroke="midnightblue" points="387,-29.6099 383.5,-19.61 380,-29.61 387,-29.6099"/>
</g>
<!-- Node7 -->
<g id="node7" class="node"><title>Node7</title>
<polygon fill="none" stroke="#bfbfbf" points="470,-0.5 470,-19.5 517,-19.5 517,-0.5 470,-0.5"/>
<text text-anchor="middle" x="493.5" y="-7.5" font-family="Helvetica,sans-Serif" font-size="10.00">vector</text>
</g>
<!-- Node1&#45;&gt;Node7 -->
<g id="edge13" class="edge"><title>Node1&#45;&gt;Node7</title>
<path fill="none" stroke="midnightblue" d="M479.619,-135.033C518.742,-126.499 560.358,-109.496 584.5,-76 603.224,-50.0219 560.046,-30.5367 526.959,-19.9614"/>
<polygon fill="midnightblue" stroke="midnightblue" points="527.68,-16.5225 517.094,-16.9681 525.647,-23.221 527.68,-16.5225"/>
</g>
<!-- Node8 -->
<g id="node8" class="node"><title>Node8</title>
<g id="a_node8"><a xlink:href="_parameter_8h.html" target="_top" xlink:title="BlockFactory/Core/Parameter.h">
<polygon fill="none" stroke="black" points="411.5,-56.5 411.5,-75.5 575.5,-75.5 575.5,-56.5 411.5,-56.5"/>
<text text-anchor="middle" x="493.5" y="-63.5" font-family="Helvetica,sans-Serif" font-size="10.00">BlockFactory/Core/Parameter.h</text>
</a>
</g>
</g>
<!-- Node1&#45;&gt;Node8 -->
<g id="edge7" class="edge"><title>Node1&#45;&gt;Node8</title>
<path fill="none" stroke="midnightblue" d="M427.924,-112.307C443.278,-101.699 459.775,-90.3011 472.381,-81.5912"/>
<polygon fill="midnightblue" stroke="midnightblue" points="474.563,-84.3377 480.801,-75.7738 470.584,-78.5786 474.563,-84.3377"/>
</g>
<!-- Node9 -->
<g id="node9" class="node"><title>Node9</title>
<g id="a_node9"><a xlink:href="_signal_8h.html" target="_top" xlink:title="BlockFactory/Core/Signal.h">
<polygon fill="none" stroke="black" points="0,-56.5 0,-75.5 143,-75.5 143,-56.5 0,-56.5"/>
<text text-anchor="middle" x="71.5" y="-63.5" font-family="Helvetica,sans-Serif" font-size="10.00">BlockFactory/Core/Signal.h</text>
</a>
</g>
</g>
<!-- Node1&#45;&gt;Node9 -->
<g id="edge10" class="edge"><title>Node1&#45;&gt;Node9</title>
<path fill="none" stroke="midnightblue" d="M287.344,-119.577C230.368,-105.699 160.839,-88.7622 116.37,-77.9298"/>
<polygon fill="midnightblue" stroke="midnightblue" points="116.996,-74.4801 106.452,-75.5139 115.339,-81.2812 116.996,-74.4801"/>
</g>
<!-- Node3 -->
<g id="node3" class="node"><title>Node3</title>
<polygon fill="none" stroke="#bfbfbf" points="72,-0.5 72,-19.5 129,-19.5 129,-0.5 72,-0.5"/>
<text text-anchor="middle" x="100.5" y="-7.5" font-family="Helvetica,sans-Serif" font-size="10.00">memory</text>
</g>
<!-- Node2&#45;&gt;Node3 -->
<g id="edge2" class="edge"><title>Node2&#45;&gt;Node3</title>
<path fill="none" stroke="midnightblue" d="M233.464,-56.4435C206.884,-47.3591 164.691,-32.9388 134.977,-22.7831"/>
<polygon fill="midnightblue" stroke="midnightblue" points="136.013,-19.4386 125.418,-19.5164 133.749,-26.0625 136.013,-19.4386"/>
</g>
<!-- Node2&#45;&gt;Node4 -->
<g id="edge3" class="edge"><title>Node2&#45;&gt;Node4</title>
<path fill="none" stroke="midnightblue" d="M278.307,-56.4435C298.787,-47.5961 330.983,-33.6875 354.365,-23.5865"/>
<polygon fill="midnightblue" stroke="midnightblue" points="355.994,-26.6953 363.786,-19.5164 353.218,-20.2692 355.994,-26.6953"/>
</g>
<!-- Node5 -->
<g id="node5" class="node"><title>Node5</title>
<polygon fill="none" stroke="#bfbfbf" points="268,-0.5 268,-19.5 309,-19.5 309,-0.5 268,-0.5"/>
<text text-anchor="middle" x="288.5" y="-7.5" font-family="Helvetica,sans-Serif" font-size="10.00">tuple</text>
</g>
<!-- Node2&#45;&gt;Node5 -->
<g id="edge4" class="edge"><title>Node2&#45;&gt;Node5</title>
<path fill="none" stroke="midnightblue" d="M263.454,-56.083C267.604,-48.6127 273.653,-37.7244 278.767,-28.5199"/>
<polygon fill="midnightblue" stroke="midnightblue" points="281.841,-30.1924 283.638,-19.7511 275.722,-26.7929 281.841,-30.1924"/>
</g>
<!-- Node6 -->
<g id="node6" class="node"><title>Node6</title>
<polygon fill="none" stroke="#bfbfbf" points="207.5,-0.5 207.5,-19.5 249.5,-19.5 249.5,-0.5 207.5,-0.5"/>
<text text-anchor="middle" x="228.5" y="-7.5" font-family="Helvetica,sans-Serif" font-size="10.00">utility</text>
</g>
<!-- Node2&#45;&gt;Node6 -->
<g id="edge5" class="edge"><title>Node2&#45;&gt;Node6</title>
<path fill="none" stroke="midnightblue" d="M253.546,-56.083C249.396,-48.6127 243.347,-37.7244 238.233,-28.5199"/>
<polygon fill="midnightblue" stroke="midnightblue" points="241.278,-26.7929 233.362,-19.7511 235.159,-30.1924 241.278,-26.7929"/>
</g>
<!-- Node2&#45;&gt;Node7 -->
<g id="edge6" class="edge"><title>Node2&#45;&gt;Node7</title>
<path fill="none" stroke="midnightblue" d="M295.736,-56.4435C340.907,-46.0639 416.392,-28.7185 459.872,-18.7274"/>
<polygon fill="midnightblue" stroke="midnightblue" points="460.718,-22.1243 469.68,-16.4736 459.15,-15.3021 460.718,-22.1243"/>
</g>
<!-- Node8&#45;&gt;Node4 -->
<g id="edge8" class="edge"><title>Node8&#45;&gt;Node4</title>
<path fill="none" stroke="midnightblue" d="M475.827,-56.324C458.106,-47.6247 430.597,-34.1202 410.212,-24.113"/>
<polygon fill="midnightblue" stroke="midnightblue" points="411.649,-20.9195 401.13,-19.6545 408.564,-27.2031 411.649,-20.9195"/>
</g>
<!-- Node8&#45;&gt;Node7 -->
<g id="edge9" class="edge"><title>Node8&#45;&gt;Node7</title>
<path fill="none" stroke="midnightblue" d="M493.5,-56.083C493.5,-49.0059 493.5,-38.8611 493.5,-29.9865"/>
<polygon fill="midnightblue" stroke="midnightblue" points="497,-29.751 493.5,-19.7511 490,-29.7511 497,-29.751"/>
</g>
<!-- Node9&#45;&gt;Node3 -->
<g id="edge11" class="edge"><title>Node9&#45;&gt;Node3</title>
<path fill="none" stroke="midnightblue" d="M76.2888,-56.083C80.2584,-48.6913 86.0251,-37.9533 90.9348,-28.8111"/>
<polygon fill="midnightblue" stroke="midnightblue" points="94.1525,-30.217 95.8003,-19.7511 87.9855,-26.9051 94.1525,-30.217"/>
</g>
</g>
</svg>
