<?xml version="1.0" encoding="UTF-8" standalone="no"?>
<!DOCTYPE svg PUBLIC "-//W3C//DTD SVG 1.1//EN"
 "http://www.w3.org/Graphics/SVG/1.1/DTD/svg11.dtd">
<!-- Generated by graphviz version 2.38.0 (20140413.2041)
 -->
<!-- Title: /home/travis/build/robotology/blockfactory/sources/Simulink/include/BlockFactory/Simulink/SimulinkBlockInformation.h Pages: 1 -->
<svg width="618pt" height="240pt"
 viewBox="0.00 0.00 617.91 240.00" xmlns="http://www.w3.org/2000/svg" xmlns:xlink="http://www.w3.org/1999/xlink">
<g id="graph0" class="graph" transform="scale(1 1) rotate(0) translate(4 236)">
<title>/home/travis/build/robotology/blockfactory/sources/Simulink/include/BlockFactory/Simulink/SimulinkBlockInformation.h</title>
<!-- Node1 -->
<g id="node1" class="node"><title>Node1</title>
<polygon fill="#bfbfbf" stroke="black" points="239.098,-168.5 239.098,-231.5 431.098,-231.5 431.098,-168.5 239.098,-168.5"/>
<text text-anchor="start" x="247.098" y="-219.5" font-family="Helvetica,sans-Serif" font-size="10.00">/home/travis/build</text>
<text text-anchor="start" x="247.098" y="-208.5" font-family="Helvetica,sans-Serif" font-size="10.00">/robotology/blockfactory</text>
<text text-anchor="start" x="247.098" y="-197.5" font-family="Helvetica,sans-Serif" font-size="10.00">/sources/Simulink/include</text>
<text text-anchor="start" x="247.098" y="-186.5" font-family="Helvetica,sans-Serif" font-size="10.00">/BlockFactory/Simulink/SimulinkBlock</text>
<text text-anchor="middle" x="335.098" y="-175.5" font-family="Helvetica,sans-Serif" font-size="10.00">Information.h</text>
</g>
<!-- Node2 -->
<g id="node2" class="node"><title>Node2</title>
<g id="a_node2"><a xlink:href="_block_information_8h.html" target="_top" xlink:title="BlockFactory/Core/BlockInformation.h">
<polygon fill="none" stroke="black" points="176.098,-112.5 176.098,-131.5 370.098,-131.5 370.098,-112.5 176.098,-112.5"/>
<text text-anchor="middle" x="273.098" y="-119.5" font-family="Helvetica,sans-Serif" font-size="10.00">BlockFactory/Core/BlockInformation.h</text>
</a>
</g>
</g>
<!-- Node1&#45;&gt;Node2 -->
<g id="edge1" class="edge"><title>Node1&#45;&gt;Node2</title>
<path fill="none" stroke="midnightblue" d="M309.88,-168.088C301.918,-158.328 293.428,-147.921 286.613,-139.567"/>
<polygon fill="midnightblue" stroke="midnightblue" points="289.244,-137.254 280.21,-131.718 283.82,-141.679 289.244,-137.254"/>
</g>
<!-- Node3 -->
<g id="node3" class="node"><title>Node3</title>
<g id="a_node3"><a xlink:href="_port_8h.html" target="_top" xlink:title="BlockFactory/Core/Port.h">
<polygon fill="none" stroke="black" points="19.0982,-56.5 19.0982,-75.5 153.098,-75.5 153.098,-56.5 19.0982,-56.5"/>
<text text-anchor="middle" x="86.0982" y="-63.5" font-family="Helvetica,sans-Serif" font-size="10.00">BlockFactory/Core/Port.h</text>
</a>
</g>
</g>
<!-- Node1&#45;&gt;Node3 -->
<g id="edge13" class="edge"><title>Node1&#45;&gt;Node3</title>
<path fill="none" stroke="midnightblue" d="M239.069,-192.707C152.428,-184.791 34.2337,-167.645 5.09822,-132 -12.5863,-110.364 20.8278,-91.1022 49.9525,-79.2693"/>
<polygon fill="midnightblue" stroke="midnightblue" points="51.518,-82.4167 59.5851,-75.5486 48.9957,-75.8869 51.518,-82.4167"/>
</g>
<!-- Node5 -->
<g id="node5" class="node"><title>Node5</title>
<polygon fill="none" stroke="#bfbfbf" points="351.598,-0.5 351.598,-19.5 398.598,-19.5 398.598,-0.5 351.598,-0.5"/>
<text text-anchor="middle" x="375.098" y="-7.5" font-family="Helvetica,sans-Serif" font-size="10.00">vector</text>
</g>
<!-- Node1&#45;&gt;Node5 -->
<g id="edge18" class="edge"><title>Node1&#45;&gt;Node5</title>
<path fill="none" stroke="midnightblue" d="M431.17,-187.07C497.837,-176.589 578.266,-158.779 599.098,-132 653.789,-61.6951 483.569,-27.0968 408.644,-15.5552"/>
<polygon fill="midnightblue" stroke="midnightblue" points="409.144,-12.0912 398.737,-14.0783 408.112,-19.0147 409.144,-12.0912"/>
</g>
<!-- Node7 -->
<g id="node7" class="node"><title>Node7</title>
<polygon fill="none" stroke="#bfbfbf" points="405.098,-56.5 405.098,-75.5 449.098,-75.5 449.098,-56.5 405.098,-56.5"/>
<text text-anchor="middle" x="427.098" y="-63.5" font-family="Helvetica,sans-Serif" font-size="10.00">string</text>
</g>
<!-- Node1&#45;&gt;Node7 -->
<g id="edge17" class="edge"><title>Node1&#45;&gt;Node7</title>
<path fill="none" stroke="midnightblue" d="M356.436,-168.385C374.747,-142.113 400.459,-105.221 415.288,-83.9446"/>
<polygon fill="midnightblue" stroke="midnightblue" points="418.251,-85.8153 421.097,-75.61 412.508,-81.8127 418.251,-85.8153"/>
</g>
<!-- Node10 -->
<g id="node10" class="node"><title>Node10</title>
<g id="a_node10"><a xlink:href="_parameter_8h.html" target="_top" xlink:title="BlockFactory/Core/Parameter.h">
<polygon fill="none" stroke="black" points="426.098,-112.5 426.098,-131.5 590.098,-131.5 590.098,-112.5 426.098,-112.5"/>
<text text-anchor="middle" x="508.098" y="-119.5" font-family="Helvetica,sans-Serif" font-size="10.00">BlockFactory/Core/Parameter.h</text>
</a>
</g>
</g>
<!-- Node1&#45;&gt;Node10 -->
<g id="edge10" class="edge"><title>Node1&#45;&gt;Node10</title>
<path fill="none" stroke="midnightblue" d="M404.965,-168.307C430.915,-156.907 458.94,-144.595 479.218,-135.687"/>
<polygon fill="midnightblue" stroke="midnightblue" points="480.759,-138.833 488.507,-131.607 477.943,-132.424 480.759,-138.833"/>
</g>
<!-- Node11 -->
<g id="node11" class="node"><title>Node11</title>
<g id="a_node11"><a xlink:href="_signal_8h.html" target="_top" xlink:title="BlockFactory/Core/Signal.h">
<polygon fill="none" stroke="black" points="14.5982,-112.5 14.5982,-131.5 157.598,-131.5 157.598,-112.5 14.5982,-112.5"/>
<text text-anchor="middle" x="86.0982" y="-119.5" font-family="Helvetica,sans-Serif" font-size="10.00">BlockFactory/Core/Signal.h</text>
</a>
</g>
</g>
<!-- Node1&#45;&gt;Node11 -->
<g id="edge14" class="edge"><title>Node1&#45;&gt;Node11</title>
<path fill="none" stroke="midnightblue" d="M238.828,-169.616C198.623,-157.345 154.27,-143.808 123.768,-134.498"/>
<polygon fill="midnightblue" stroke="midnightblue" points="124.567,-131.082 113.981,-131.51 122.524,-137.777 124.567,-131.082"/>
</g>
<!-- Node2&#45;&gt;Node3 -->
<g id="edge2" class="edge"><title>Node2&#45;&gt;Node3</title>
<path fill="none" stroke="midnightblue" d="M243.468,-112.444C211.598,-103.241 160.765,-88.5617 125.534,-78.3879"/>
<polygon fill="midnightblue" stroke="midnightblue" points="126.169,-74.9282 115.59,-75.5164 124.227,-81.6534 126.169,-74.9282"/>
</g>
<!-- Node2&#45;&gt;Node5 -->
<g id="edge9" class="edge"><title>Node2&#45;&gt;Node5</title>
<path fill="none" stroke="midnightblue" d="M270.816,-112.114C267.918,-98.6957 264.572,-73.0251 276.098,-56 290.876,-34.1727 318.981,-22.7689 341.481,-16.9115"/>
<polygon fill="midnightblue" stroke="midnightblue" points="342.422,-20.286 351.357,-14.593 340.822,-13.4713 342.422,-20.286"/>
</g>
<!-- Node6 -->
<g id="node6" class="node"><title>Node6</title>
<polygon fill="none" stroke="#bfbfbf" points="171.598,-56.5 171.598,-75.5 228.598,-75.5 228.598,-56.5 171.598,-56.5"/>
<text text-anchor="middle" x="200.098" y="-63.5" font-family="Helvetica,sans-Serif" font-size="10.00">memory</text>
</g>
<!-- Node2&#45;&gt;Node6 -->
<g id="edge5" class="edge"><title>Node2&#45;&gt;Node6</title>
<path fill="none" stroke="midnightblue" d="M261.37,-112.324C250.261,-104.107 233.356,-91.6017 220.115,-81.8069"/>
<polygon fill="midnightblue" stroke="midnightblue" points="222.161,-78.9671 212.04,-75.8339 217.998,-84.5948 222.161,-78.9671"/>
</g>
<!-- Node2&#45;&gt;Node7 -->
<g id="edge6" class="edge"><title>Node2&#45;&gt;Node7</title>
<path fill="none" stroke="midnightblue" d="M297.5,-112.444C323.902,-103.186 366.107,-88.3866 395.139,-78.2066"/>
<polygon fill="midnightblue" stroke="midnightblue" points="396.532,-81.427 404.811,-74.8151 394.216,-74.8213 396.532,-81.427"/>
</g>
<!-- Node8 -->
<g id="node8" class="node"><title>Node8</title>
<polygon fill="none" stroke="#bfbfbf" points="345.598,-56.5 345.598,-75.5 386.598,-75.5 386.598,-56.5 345.598,-56.5"/>
<text text-anchor="middle" x="366.098" y="-63.5" font-family="Helvetica,sans-Serif" font-size="10.00">tuple</text>
</g>
<!-- Node2&#45;&gt;Node8 -->
<g id="edge7" class="edge"><title>Node2&#45;&gt;Node8</title>
<path fill="none" stroke="midnightblue" d="M288.04,-112.324C302.683,-103.822 325.232,-90.7288 342.336,-80.7975"/>
<polygon fill="midnightblue" stroke="midnightblue" points="344.303,-83.7027 351.193,-75.6545 340.788,-77.6491 344.303,-83.7027"/>
</g>
<!-- Node9 -->
<g id="node9" class="node"><title>Node9</title>
<polygon fill="none" stroke="#bfbfbf" points="285.098,-56.5 285.098,-75.5 327.098,-75.5 327.098,-56.5 285.098,-56.5"/>
<text text-anchor="middle" x="306.098" y="-63.5" font-family="Helvetica,sans-Serif" font-size="10.00">utility</text>
</g>
<!-- Node2&#45;&gt;Node9 -->
<g id="edge8" class="edge"><title>Node2&#45;&gt;Node9</title>
<path fill="none" stroke="midnightblue" d="M278.548,-112.083C283.113,-104.613 289.767,-93.7244 295.392,-84.5199"/>
<polygon fill="midnightblue" stroke="midnightblue" points="298.522,-86.109 300.75,-75.7511 292.549,-82.4588 298.522,-86.109"/>
</g>
<!-- Node4 -->
<g id="node4" class="node"><title>Node4</title>
<polygon fill="none" stroke="#bfbfbf" points="60.0982,-0.5 60.0982,-19.5 112.098,-19.5 112.098,-0.5 60.0982,-0.5"/>
<text text-anchor="middle" x="86.0982" y="-7.5" font-family="Helvetica,sans-Serif" font-size="10.00">cstddef</text>
</g>
<!-- Node3&#45;&gt;Node4 -->
<g id="edge3" class="edge"><title>Node3&#45;&gt;Node4</title>
<path fill="none" stroke="midnightblue" d="M86.0982,-56.083C86.0982,-49.0059 86.0982,-38.8611 86.0982,-29.9865"/>
<polygon fill="midnightblue" stroke="midnightblue" points="89.5983,-29.751 86.0982,-19.7511 82.5983,-29.7511 89.5983,-29.751"/>
</g>
<!-- Node3&#45;&gt;Node5 -->
<g id="edge4" class="edge"><title>Node3&#45;&gt;Node5</title>
<path fill="none" stroke="midnightblue" d="M131.891,-56.4435C190.261,-45.5371 289.791,-26.9397 341.57,-17.2647"/>
<polygon fill="midnightblue" stroke="midnightblue" points="342.376,-20.6748 351.563,-15.3976 341.09,-13.7939 342.376,-20.6748"/>
</g>
<!-- Node10&#45;&gt;Node5 -->
<g id="edge12" class="edge"><title>Node10&#45;&gt;Node5</title>
<path fill="none" stroke="midnightblue" d="M502.923,-112.06C494.77,-98.5716 477.817,-72.8105 458.098,-56 442.457,-42.6659 422.226,-31.5981 405.653,-23.7754"/>
<polygon fill="midnightblue" stroke="midnightblue" points="406.932,-20.512 396.381,-19.552 404.03,-26.8823 406.932,-20.512"/>
</g>
<!-- Node10&#45;&gt;Node7 -->
<g id="edge11" class="edge"><title>Node10&#45;&gt;Node7</title>
<path fill="none" stroke="midnightblue" d="M495.084,-112.324C482.567,-103.979 463.417,-91.2122 448.627,-81.3524"/>
<polygon fill="midnightblue" stroke="midnightblue" points="450.342,-78.2894 440.08,-75.6545 446.459,-84.1137 450.342,-78.2894"/>
</g>
<!-- Node11&#45;&gt;Node3 -->
<g id="edge15" class="edge"><title>Node11&#45;&gt;Node3</title>
<path fill="none" stroke="midnightblue" d="M86.0982,-112.083C86.0982,-105.006 86.0982,-94.8611 86.0982,-85.9865"/>
<polygon fill="midnightblue" stroke="midnightblue" points="89.5983,-85.751 86.0982,-75.7511 82.5983,-85.7511 89.5983,-85.751"/>
</g>
<!-- Node11&#45;&gt;Node6 -->
<g id="edge16" class="edge"><title>Node11&#45;&gt;Node6</title>
<path fill="none" stroke="midnightblue" d="M104.162,-112.444C122.673,-103.675 151.679,-89.9355 172.954,-79.8579"/>
<polygon fill="midnightblue" stroke="midnightblue" points="174.58,-82.9604 182.119,-75.5164 171.583,-76.6343 174.58,-82.9604"/>
</g>
</g>
</svg>
