<?xml version="1.0" encoding="UTF-8" standalone="no"?>
<!DOCTYPE svg PUBLIC "-//W3C//DTD SVG 1.1//EN"
 "http://www.w3.org/Graphics/SVG/1.1/DTD/svg11.dtd">
<!-- Generated by graphviz version 2.40.1 (20161225.0304)
 -->
<!-- Title: /root/blockfactory/sources/Mex/include/BlockFactory/Mex/SimulinkBlockInformation.h Pages: 1 -->
<svg width="759pt" height="173pt"
 viewBox="0.00 0.00 759.00 173.00" xmlns="http://www.w3.org/2000/svg" xmlns:xlink="http://www.w3.org/1999/xlink">
<g id="graph0" class="graph" transform="scale(1 1) rotate(0) translate(4 169)">
<title>/root/blockfactory/sources/Mex/include/BlockFactory/Mex/SimulinkBlockInformation.h</title>
<!-- Node0 -->
<g id="node1" class="node">
<title>Node0</title>
<polygon fill="#bfbfbf" stroke="#000000" points="367,-112.5 367,-164.5 531,-164.5 531,-112.5 367,-112.5"/>
<text text-anchor="start" x="375" y="-152.5" font-family="Helvetica,sans-Serif" font-size="10.00" fill="#000000">/root/blockfactory</text>
<text text-anchor="start" x="375" y="-141.5" font-family="Helvetica,sans-Serif" font-size="10.00" fill="#000000">/sources/Mex/include</text>
<text text-anchor="start" x="375" y="-130.5" font-family="Helvetica,sans-Serif" font-size="10.00" fill="#000000">/BlockFactory/Mex/SimulinkBlock</text>
<text text-anchor="middle" x="449" y="-119.5" font-family="Helvetica,sans-Serif" font-size="10.00" fill="#000000">Information.h</text>
</g>
<!-- Node1 -->
<g id="node2" class="node">
<title>Node1</title>
<polygon fill="none" stroke="#bfbfbf" points="0,-56.5 0,-75.5 64,-75.5 64,-56.5 0,-56.5"/>
<text text-anchor="middle" x="32" y="-63.5" font-family="Helvetica,sans-Serif" font-size="10.00" fill="#000000">AnyType.h</text>
</g>
<!-- Node0&#45;&gt;Node1 -->
<g id="edge1" class="edge">
<title>Node0&#45;&gt;Node1</title>
<path fill="none" stroke="#191970" d="M366.8939,-126.6545C292.8157,-115.554 180.6842,-97.7284 74.1388,-76.1227"/>
<polygon fill="#191970" stroke="#191970" points="74.6761,-72.6603 64.1779,-74.0883 73.2752,-79.5187 74.6761,-72.6603"/>
</g>
<!-- Node2 -->
<g id="node3" class="node">
<title>Node2</title>
<g id="a_node3"><a xlink:href="_block_information_8h.html" target="_top" xlink:title="BlockFactory/Core/BlockInformation.h">
<polygon fill="none" stroke="#000000" points="237.5,-56.5 237.5,-75.5 420.5,-75.5 420.5,-56.5 237.5,-56.5"/>
<text text-anchor="middle" x="329" y="-63.5" font-family="Helvetica,sans-Serif" font-size="10.00" fill="#000000">BlockFactory/Core/BlockInformation.h</text>
</a>
</g>
</g>
<!-- Node0&#45;&gt;Node2 -->
<g id="edge2" class="edge">
<title>Node0&#45;&gt;Node2</title>
<path fill="none" stroke="#191970" d="M405.6772,-112.3258C388.1091,-101.7118 368.4689,-89.8458 353.4641,-80.7804"/>
<polygon fill="#191970" stroke="#191970" points="355.1495,-77.7095 344.7804,-75.534 351.5297,-83.7009 355.1495,-77.7095"/>
</g>
<!-- Node4 -->
<g id="node5" class="node">
<title>Node4</title>
<polygon fill="none" stroke="#bfbfbf" points="428.5,-.5 428.5,-19.5 469.5,-19.5 469.5,-.5 428.5,-.5"/>
<text text-anchor="middle" x="449" y="-7.5" font-family="Helvetica,sans-Serif" font-size="10.00" fill="#000000">string</text>
</g>
<!-- Node0&#45;&gt;Node4 -->
<g id="edge14" class="edge">
<title>Node0&#45;&gt;Node4</title>
<path fill="none" stroke="#191970" d="M449,-112.4961C449,-88.0156 449,-51.8881 449,-29.7068"/>
<polygon fill="#191970" stroke="#191970" points="452.5001,-29.5141 449,-19.5142 445.5001,-29.5142 452.5001,-29.5141"/>
</g>
<!-- Node7 -->
<g id="node8" class="node">
<title>Node7</title>
<polygon fill="none" stroke="#bfbfbf" points="533,-.5 533,-19.5 577,-19.5 577,-.5 533,-.5"/>
<text text-anchor="middle" x="555" y="-7.5" font-family="Helvetica,sans-Serif" font-size="10.00" fill="#000000">vector</text>
</g>
<!-- Node0&#45;&gt;Node7 -->
<g id="edge15" class="edge">
<title>Node0&#45;&gt;Node7</title>
<path fill="none" stroke="#191970" d="M531.0928,-122.0094C577.2492,-110.8891 628.3017,-94.8347 642,-76 660.4137,-50.6818 618.8744,-30.5652 587.0642,-19.474"/>
<polygon fill="#191970" stroke="#191970" points="587.7598,-16.0174 577.1664,-16.1949 585.5583,-22.6622 587.7598,-16.0174"/>
</g>
<!-- Node8 -->
<g id="node9" class="node">
<title>Node8</title>
<g id="a_node9"><a xlink:href="_parameter_8h.html" target="_top" xlink:title="BlockFactory/Core/Parameter.h">
<polygon fill="none" stroke="#000000" points="477.5,-56.5 477.5,-75.5 632.5,-75.5 632.5,-56.5 477.5,-56.5"/>
<text text-anchor="middle" x="555" y="-63.5" font-family="Helvetica,sans-Serif" font-size="10.00" fill="#000000">BlockFactory/Core/Parameter.h</text>
</a>
</g>
</g>
<!-- Node0&#45;&gt;Node8 -->
<g id="edge8" class="edge">
<title>Node0&#45;&gt;Node8</title>
<path fill="none" stroke="#191970" d="M487.2684,-112.3258C502.4941,-101.912 519.4818,-90.2931 532.6355,-81.2965"/>
<polygon fill="#191970" stroke="#191970" points="534.7825,-84.0684 541.0606,-75.534 530.8307,-78.2906 534.7825,-84.0684"/>
</g>
<!-- Node9 -->
<g id="node10" class="node">
<title>Node9</title>
<g id="a_node10"><a xlink:href="_signal_8h.html" target="_top" xlink:title="BlockFactory/Core/Signal.h">
<polygon fill="none" stroke="#000000" points="82.5,-56.5 82.5,-75.5 219.5,-75.5 219.5,-56.5 82.5,-56.5"/>
<text text-anchor="middle" x="151" y="-63.5" font-family="Helvetica,sans-Serif" font-size="10.00" fill="#000000">BlockFactory/Core/Signal.h</text>
</a>
</g>
</g>
<!-- Node0&#45;&gt;Node9 -->
<g id="edge11" class="edge">
<title>Node0&#45;&gt;Node9</title>
<path fill="none" stroke="#191970" d="M366.7813,-118.4971C313.2864,-105.4824 245.3111,-88.9448 200.0955,-77.9444"/>
<polygon fill="#191970" stroke="#191970" points="200.7871,-74.5106 190.2432,-75.5474 199.1323,-81.3122 200.7871,-74.5106"/>
</g>
<!-- Node10 -->
<g id="node11" class="node">
<title>Node10</title>
<polygon fill="none" stroke="#bfbfbf" points="689,-56.5 689,-75.5 751,-75.5 751,-56.5 689,-56.5"/>
<text text-anchor="middle" x="720" y="-63.5" font-family="Helvetica,sans-Serif" font-size="10.00" fill="#000000">simstruc.h</text>
</g>
<!-- Node0&#45;&gt;Node10 -->
<g id="edge13" class="edge">
<title>Node0&#45;&gt;Node10</title>
<path fill="none" stroke="#191970" d="M531.0444,-116.5509C580.0566,-103.4387 640.1816,-87.3536 679.2559,-76.9002"/>
<polygon fill="#191970" stroke="#191970" points="680.2046,-80.2695 688.9603,-74.304 678.3955,-73.5073 680.2046,-80.2695"/>
</g>
<!-- Node3 -->
<g id="node4" class="node">
<title>Node3</title>
<polygon fill="none" stroke="#bfbfbf" points="182,-.5 182,-19.5 234,-19.5 234,-.5 182,-.5"/>
<text text-anchor="middle" x="208" y="-7.5" font-family="Helvetica,sans-Serif" font-size="10.00" fill="#000000">memory</text>
</g>
<!-- Node2&#45;&gt;Node3 -->
<g id="edge3" class="edge">
<title>Node2&#45;&gt;Node3</title>
<path fill="none" stroke="#191970" d="M308.1994,-56.3733C288.7757,-47.3838 259.5776,-33.8706 237.7036,-23.7471"/>
<polygon fill="#191970" stroke="#191970" points="239.0745,-20.5249 228.5292,-19.5011 236.1344,-26.8776 239.0745,-20.5249"/>
</g>
<!-- Node2&#45;&gt;Node4 -->
<g id="edge4" class="edge">
<title>Node2&#45;&gt;Node4</title>
<path fill="none" stroke="#191970" d="M349.6287,-56.3733C368.8919,-47.3838 397.8486,-33.8706 419.5419,-23.7471"/>
<polygon fill="#191970" stroke="#191970" points="421.0587,-26.9017 428.6405,-19.5011 418.0985,-20.5584 421.0587,-26.9017"/>
</g>
<!-- Node5 -->
<g id="node6" class="node">
<title>Node5</title>
<polygon fill="none" stroke="#bfbfbf" points="338,-.5 338,-19.5 376,-19.5 376,-.5 338,-.5"/>
<text text-anchor="middle" x="357" y="-7.5" font-family="Helvetica,sans-Serif" font-size="10.00" fill="#000000">tuple</text>
</g>
<!-- Node2&#45;&gt;Node5 -->
<g id="edge5" class="edge">
<title>Node2&#45;&gt;Node5</title>
<path fill="none" stroke="#191970" d="M333.8772,-56.2455C337.6513,-48.6973 342.9921,-38.0158 347.5901,-28.8197"/>
<polygon fill="#191970" stroke="#191970" points="350.837,-30.1522 352.1787,-19.6427 344.576,-27.0217 350.837,-30.1522"/>
</g>
<!-- Node6 -->
<g id="node7" class="node">
<title>Node6</title>
<polygon fill="none" stroke="#bfbfbf" points="280,-.5 280,-19.5 320,-19.5 320,-.5 280,-.5"/>
<text text-anchor="middle" x="300" y="-7.5" font-family="Helvetica,sans-Serif" font-size="10.00" fill="#000000">utility</text>
</g>
<!-- Node2&#45;&gt;Node6 -->
<g id="edge6" class="edge">
<title>Node2&#45;&gt;Node6</title>
<path fill="none" stroke="#191970" d="M323.9486,-56.2455C319.9981,-48.617 314.3903,-37.7881 309.5942,-28.5267"/>
<polygon fill="#191970" stroke="#191970" points="312.7001,-26.9131 304.9935,-19.6427 306.4841,-30.1321 312.7001,-26.9131"/>
</g>
<!-- Node2&#45;&gt;Node7 -->
<g id="edge7" class="edge">
<title>Node2&#45;&gt;Node7</title>
<path fill="none" stroke="#191970" d="M367.594,-56.4369C411.4095,-45.5799 482.0925,-28.0656 522.9785,-17.9345"/>
<polygon fill="#191970" stroke="#191970" points="523.8321,-21.3289 532.6968,-15.5265 522.1485,-14.5344 523.8321,-21.3289"/>
</g>
<!-- Node8&#45;&gt;Node4 -->
<g id="edge9" class="edge">
<title>Node8&#45;&gt;Node4</title>
<path fill="none" stroke="#191970" d="M536.5362,-56.2455C519.8926,-47.4527 495.2007,-34.4079 476.2808,-24.4125"/>
<polygon fill="#191970" stroke="#191970" points="477.7291,-21.2193 467.2522,-19.6427 474.4592,-27.4086 477.7291,-21.2193"/>
</g>
<!-- Node8&#45;&gt;Node7 -->
<g id="edge10" class="edge">
<title>Node8&#45;&gt;Node7</title>
<path fill="none" stroke="#191970" d="M555,-56.2455C555,-48.9382 555,-38.6944 555,-29.7046"/>
<polygon fill="#191970" stroke="#191970" points="558.5001,-29.6426 555,-19.6427 551.5001,-29.6427 558.5001,-29.6426"/>
</g>
<!-- Node9&#45;&gt;Node3 -->
<g id="edge12" class="edge">
<title>Node9&#45;&gt;Node3</title>
<path fill="none" stroke="#191970" d="M160.9286,-56.2455C169.1838,-48.1352 181.1209,-36.4075 190.9082,-26.7919"/>
<polygon fill="#191970" stroke="#191970" points="193.5046,-29.1476 198.1851,-19.6427 188.5989,-24.1542 193.5046,-29.1476"/>
</g>
</g>
</svg>
