<?xml version="1.0" encoding="UTF-8" standalone="no"?>
<!DOCTYPE svg PUBLIC "-//W3C//DTD SVG 1.1//EN"
 "http://www.w3.org/Graphics/SVG/1.1/DTD/svg11.dtd">
<!-- Generated by graphviz version 2.40.1 (20161225.0304)
 -->
<!-- Title: blockfactory::core::BlockInformation Pages: 1 -->
<svg width="268pt" height="88pt"
 viewBox="0.00 0.00 268.00 88.00" xmlns="http://www.w3.org/2000/svg" xmlns:xlink="http://www.w3.org/1999/xlink">
<g id="graph0" class="graph" transform="scale(1 1) rotate(0) translate(4 84)">
<title>blockfactory::core::BlockInformation</title>
<!-- Node0 -->
<g id="node1" class="node">
<title>Node0</title>
<polygon fill="#bfbfbf" stroke="#000000" points="0,-24.5 0,-54.5 96,-54.5 96,-24.5 0,-24.5"/>
<text text-anchor="start" x="8" y="-42.5" font-family="Helvetica,sans-Serif" font-size="10.00" fill="#000000">blockfactory::core</text>
<text text-anchor="middle" x="48" y="-31.5" font-family="Helvetica,sans-Serif" font-size="10.00" fill="#000000">::BlockInformation</text>
</g>
<!-- Node1 -->
<g id="node2" class="node">
<title>Node1</title>
<g id="a_node2"><a xlink:href="classblockfactory_1_1coder_1_1_coder_block_information.html" target="_top" xlink:title="blockfactory::coder\l::CoderBlockInformation">
<polygon fill="none" stroke="#000000" points="135,-49.5 135,-79.5 257,-79.5 257,-49.5 135,-49.5"/>
<text text-anchor="start" x="143" y="-67.5" font-family="Helvetica,sans-Serif" font-size="10.00" fill="#000000">blockfactory::coder</text>
<text text-anchor="middle" x="196" y="-56.5" font-family="Helvetica,sans-Serif" font-size="10.00" fill="#000000">::CoderBlockInformation</text>
</a>
</g>
</g>
<!-- Node0&#45;&gt;Node1 -->
<g id="edge1" class="edge">
<title>Node0&#45;&gt;Node1</title>
<path fill="none" stroke="#191970" d="M106.1433,-49.3215C115.6036,-50.9195 125.4267,-52.5788 134.9541,-54.1882"/>
<polygon fill="#191970" stroke="#191970" points="106.4947,-45.8313 96.0514,-47.6168 105.3287,-52.7336 106.4947,-45.8313"/>
</g>
<!-- Node2 -->
<g id="node3" class="node">
<title>Node2</title>
<g id="a_node3"><a xlink:href="classblockfactory_1_1mex_1_1_simulink_block_information.html" target="_top" xlink:title="blockfactory::mex::\lSimulinkBlockInformation">
<polygon fill="none" stroke="#000000" points="132,-.5 132,-30.5 260,-30.5 260,-.5 132,-.5"/>
<text text-anchor="start" x="140" y="-18.5" font-family="Helvetica,sans-Serif" font-size="10.00" fill="#000000">blockfactory::mex::</text>
<text text-anchor="middle" x="196" y="-7.5" font-family="Helvetica,sans-Serif" font-size="10.00" fill="#000000">SimulinkBlockInformation</text>
</a>
</g>
</g>
<!-- Node0&#45;&gt;Node2 -->
<g id="edge2" class="edge">
<title>Node0&#45;&gt;Node2</title>
<path fill="none" stroke="#191970" d="M106.1371,-30.0724C114.5477,-28.7085 123.2452,-27.2981 131.7669,-25.9162"/>
<polygon fill="#191970" stroke="#191970" points="105.3621,-26.6522 96.0514,-31.7079 106.4827,-33.562 105.3621,-26.6522"/>
</g>
</g>
</svg>
